%TF.GenerationSoftware,KiCad,Pcbnew,(5.1.10)-1*%
%TF.CreationDate,2021-11-23T17:51:28-05:00*%
%TF.ProjectId,Electronics Club,456c6563-7472-46f6-9e69-637320436c75,rev?*%
%TF.SameCoordinates,Original*%
%TF.FileFunction,Copper,L1,Top*%
%TF.FilePolarity,Positive*%
%FSLAX46Y46*%
G04 Gerber Fmt 4.6, Leading zero omitted, Abs format (unit mm)*
G04 Created by KiCad (PCBNEW (5.1.10)-1) date 2021-11-23 17:51:28*
%MOMM*%
%LPD*%
G01*
G04 APERTURE LIST*
%TA.AperFunction,ComponentPad*%
%ADD10C,3.300000*%
%TD*%
%TA.AperFunction,ComponentPad*%
%ADD11R,2.000000X2.000000*%
%TD*%
%TA.AperFunction,ComponentPad*%
%ADD12C,2.000000*%
%TD*%
%TA.AperFunction,SMDPad,CuDef*%
%ADD13C,4.000000*%
%TD*%
%TA.AperFunction,ComponentPad*%
%ADD14R,1.700000X1.700000*%
%TD*%
%TA.AperFunction,ComponentPad*%
%ADD15O,1.700000X1.700000*%
%TD*%
%TA.AperFunction,ViaPad*%
%ADD16C,0.800000*%
%TD*%
%TA.AperFunction,Conductor*%
%ADD17C,0.250000*%
%TD*%
%TA.AperFunction,Conductor*%
%ADD18C,0.254000*%
%TD*%
%TA.AperFunction,Conductor*%
%ADD19C,0.100000*%
%TD*%
G04 APERTURE END LIST*
D10*
%TO.P,BT1,1*%
%TO.N,Net-(BT1-Pad1)*%
X176009300Y-127774700D03*
%TO.P,BT1,2*%
%TO.N,GND*%
X188709300Y-127774700D03*
%TD*%
D11*
%TO.P,BZ1,1*%
%TO.N,Net-(BZ1-Pad1)*%
X162255200Y-109372400D03*
D12*
%TO.P,BZ1,2*%
%TO.N,GND*%
X169855200Y-109372400D03*
%TD*%
%TO.P,D1,1*%
%TO.N,GND*%
%TA.AperFunction,SMDPad,CuDef*%
G36*
G01*
X181340600Y-55900900D02*
X182590600Y-55900900D01*
G75*
G02*
X182840600Y-56150900I0J-250000D01*
G01*
X182840600Y-57075900D01*
G75*
G02*
X182590600Y-57325900I-250000J0D01*
G01*
X181340600Y-57325900D01*
G75*
G02*
X181090600Y-57075900I0J250000D01*
G01*
X181090600Y-56150900D01*
G75*
G02*
X181340600Y-55900900I250000J0D01*
G01*
G37*
%TD.AperFunction*%
%TO.P,D1,2*%
%TO.N,Net-(D1-Pad2)*%
%TA.AperFunction,SMDPad,CuDef*%
G36*
G01*
X181340600Y-58875900D02*
X182590600Y-58875900D01*
G75*
G02*
X182840600Y-59125900I0J-250000D01*
G01*
X182840600Y-60050900D01*
G75*
G02*
X182590600Y-60300900I-250000J0D01*
G01*
X181340600Y-60300900D01*
G75*
G02*
X181090600Y-60050900I0J250000D01*
G01*
X181090600Y-59125900D01*
G75*
G02*
X181340600Y-58875900I250000J0D01*
G01*
G37*
%TD.AperFunction*%
%TD*%
%TO.P,D2,2*%
%TO.N,Net-(D2-Pad2)*%
%TA.AperFunction,SMDPad,CuDef*%
G36*
G01*
X163287500Y-114625000D02*
X163287500Y-113375000D01*
G75*
G02*
X163537500Y-113125000I250000J0D01*
G01*
X164462500Y-113125000D01*
G75*
G02*
X164712500Y-113375000I0J-250000D01*
G01*
X164712500Y-114625000D01*
G75*
G02*
X164462500Y-114875000I-250000J0D01*
G01*
X163537500Y-114875000D01*
G75*
G02*
X163287500Y-114625000I0J250000D01*
G01*
G37*
%TD.AperFunction*%
%TO.P,D2,1*%
%TO.N,GND*%
%TA.AperFunction,SMDPad,CuDef*%
G36*
G01*
X160312500Y-114625000D02*
X160312500Y-113375000D01*
G75*
G02*
X160562500Y-113125000I250000J0D01*
G01*
X161487500Y-113125000D01*
G75*
G02*
X161737500Y-113375000I0J-250000D01*
G01*
X161737500Y-114625000D01*
G75*
G02*
X161487500Y-114875000I-250000J0D01*
G01*
X160562500Y-114875000D01*
G75*
G02*
X160312500Y-114625000I0J250000D01*
G01*
G37*
%TD.AperFunction*%
%TD*%
%TO.P,D3,1*%
%TO.N,GND*%
%TA.AperFunction,SMDPad,CuDef*%
G36*
G01*
X172312500Y-85625000D02*
X172312500Y-84375000D01*
G75*
G02*
X172562500Y-84125000I250000J0D01*
G01*
X173487500Y-84125000D01*
G75*
G02*
X173737500Y-84375000I0J-250000D01*
G01*
X173737500Y-85625000D01*
G75*
G02*
X173487500Y-85875000I-250000J0D01*
G01*
X172562500Y-85875000D01*
G75*
G02*
X172312500Y-85625000I0J250000D01*
G01*
G37*
%TD.AperFunction*%
%TO.P,D3,2*%
%TO.N,Net-(D3-Pad2)*%
%TA.AperFunction,SMDPad,CuDef*%
G36*
G01*
X175287500Y-85625000D02*
X175287500Y-84375000D01*
G75*
G02*
X175537500Y-84125000I250000J0D01*
G01*
X176462500Y-84125000D01*
G75*
G02*
X176712500Y-84375000I0J-250000D01*
G01*
X176712500Y-85625000D01*
G75*
G02*
X176462500Y-85875000I-250000J0D01*
G01*
X175537500Y-85875000D01*
G75*
G02*
X175287500Y-85625000I0J250000D01*
G01*
G37*
%TD.AperFunction*%
%TD*%
%TO.P,D4,2*%
%TO.N,Net-(D4-Pad2)*%
%TA.AperFunction,SMDPad,CuDef*%
G36*
G01*
X193737500Y-102375000D02*
X193737500Y-103625000D01*
G75*
G02*
X193487500Y-103875000I-250000J0D01*
G01*
X192562500Y-103875000D01*
G75*
G02*
X192312500Y-103625000I0J250000D01*
G01*
X192312500Y-102375000D01*
G75*
G02*
X192562500Y-102125000I250000J0D01*
G01*
X193487500Y-102125000D01*
G75*
G02*
X193737500Y-102375000I0J-250000D01*
G01*
G37*
%TD.AperFunction*%
%TO.P,D4,1*%
%TO.N,GND*%
%TA.AperFunction,SMDPad,CuDef*%
G36*
G01*
X196712500Y-102375000D02*
X196712500Y-103625000D01*
G75*
G02*
X196462500Y-103875000I-250000J0D01*
G01*
X195537500Y-103875000D01*
G75*
G02*
X195287500Y-103625000I0J250000D01*
G01*
X195287500Y-102375000D01*
G75*
G02*
X195537500Y-102125000I250000J0D01*
G01*
X196462500Y-102125000D01*
G75*
G02*
X196712500Y-102375000I0J-250000D01*
G01*
G37*
%TD.AperFunction*%
%TD*%
%TO.P,D5,1*%
%TO.N,GND*%
%TA.AperFunction,SMDPad,CuDef*%
G36*
G01*
X180700100Y-92202600D02*
X180700100Y-90952600D01*
G75*
G02*
X180950100Y-90702600I250000J0D01*
G01*
X181875100Y-90702600D01*
G75*
G02*
X182125100Y-90952600I0J-250000D01*
G01*
X182125100Y-92202600D01*
G75*
G02*
X181875100Y-92452600I-250000J0D01*
G01*
X180950100Y-92452600D01*
G75*
G02*
X180700100Y-92202600I0J250000D01*
G01*
G37*
%TD.AperFunction*%
%TO.P,D5,2*%
%TO.N,Net-(D5-Pad2)*%
%TA.AperFunction,SMDPad,CuDef*%
G36*
G01*
X183675100Y-92202600D02*
X183675100Y-90952600D01*
G75*
G02*
X183925100Y-90702600I250000J0D01*
G01*
X184850100Y-90702600D01*
G75*
G02*
X185100100Y-90952600I0J-250000D01*
G01*
X185100100Y-92202600D01*
G75*
G02*
X184850100Y-92452600I-250000J0D01*
G01*
X183925100Y-92452600D01*
G75*
G02*
X183675100Y-92202600I0J250000D01*
G01*
G37*
%TD.AperFunction*%
%TD*%
%TO.P,D6,2*%
%TO.N,Net-(D6-Pad2)*%
%TA.AperFunction,SMDPad,CuDef*%
G36*
G01*
X199072200Y-108544200D02*
X199072200Y-109794200D01*
G75*
G02*
X198822200Y-110044200I-250000J0D01*
G01*
X197897200Y-110044200D01*
G75*
G02*
X197647200Y-109794200I0J250000D01*
G01*
X197647200Y-108544200D01*
G75*
G02*
X197897200Y-108294200I250000J0D01*
G01*
X198822200Y-108294200D01*
G75*
G02*
X199072200Y-108544200I0J-250000D01*
G01*
G37*
%TD.AperFunction*%
%TO.P,D6,1*%
%TO.N,GND*%
%TA.AperFunction,SMDPad,CuDef*%
G36*
G01*
X202047200Y-108544200D02*
X202047200Y-109794200D01*
G75*
G02*
X201797200Y-110044200I-250000J0D01*
G01*
X200872200Y-110044200D01*
G75*
G02*
X200622200Y-109794200I0J250000D01*
G01*
X200622200Y-108544200D01*
G75*
G02*
X200872200Y-108294200I250000J0D01*
G01*
X201797200Y-108294200D01*
G75*
G02*
X202047200Y-108544200I0J-250000D01*
G01*
G37*
%TD.AperFunction*%
%TD*%
%TO.P,D7,1*%
%TO.N,GND*%
%TA.AperFunction,SMDPad,CuDef*%
G36*
G01*
X165679700Y-102529800D02*
X165679700Y-101279800D01*
G75*
G02*
X165929700Y-101029800I250000J0D01*
G01*
X166854700Y-101029800D01*
G75*
G02*
X167104700Y-101279800I0J-250000D01*
G01*
X167104700Y-102529800D01*
G75*
G02*
X166854700Y-102779800I-250000J0D01*
G01*
X165929700Y-102779800D01*
G75*
G02*
X165679700Y-102529800I0J250000D01*
G01*
G37*
%TD.AperFunction*%
%TO.P,D7,2*%
%TO.N,Net-(D7-Pad2)*%
%TA.AperFunction,SMDPad,CuDef*%
G36*
G01*
X168654700Y-102529800D02*
X168654700Y-101279800D01*
G75*
G02*
X168904700Y-101029800I250000J0D01*
G01*
X169829700Y-101029800D01*
G75*
G02*
X170079700Y-101279800I0J-250000D01*
G01*
X170079700Y-102529800D01*
G75*
G02*
X169829700Y-102779800I-250000J0D01*
G01*
X168904700Y-102779800D01*
G75*
G02*
X168654700Y-102529800I0J250000D01*
G01*
G37*
%TD.AperFunction*%
%TD*%
%TO.P,D8,2*%
%TO.N,Net-(D8-Pad2)*%
%TA.AperFunction,SMDPad,CuDef*%
G36*
G01*
X181737500Y-72375000D02*
X181737500Y-73625000D01*
G75*
G02*
X181487500Y-73875000I-250000J0D01*
G01*
X180562500Y-73875000D01*
G75*
G02*
X180312500Y-73625000I0J250000D01*
G01*
X180312500Y-72375000D01*
G75*
G02*
X180562500Y-72125000I250000J0D01*
G01*
X181487500Y-72125000D01*
G75*
G02*
X181737500Y-72375000I0J-250000D01*
G01*
G37*
%TD.AperFunction*%
%TO.P,D8,1*%
%TO.N,GND*%
%TA.AperFunction,SMDPad,CuDef*%
G36*
G01*
X184712500Y-72375000D02*
X184712500Y-73625000D01*
G75*
G02*
X184462500Y-73875000I-250000J0D01*
G01*
X183537500Y-73875000D01*
G75*
G02*
X183287500Y-73625000I0J250000D01*
G01*
X183287500Y-72375000D01*
G75*
G02*
X183537500Y-72125000I250000J0D01*
G01*
X184462500Y-72125000D01*
G75*
G02*
X184712500Y-72375000I0J-250000D01*
G01*
G37*
%TD.AperFunction*%
%TD*%
%TO.P,D9,1*%
%TO.N,GND*%
%TA.AperFunction,SMDPad,CuDef*%
G36*
G01*
X190200000Y-83375000D02*
X190200000Y-84625000D01*
G75*
G02*
X189950000Y-84875000I-250000J0D01*
G01*
X189025000Y-84875000D01*
G75*
G02*
X188775000Y-84625000I0J250000D01*
G01*
X188775000Y-83375000D01*
G75*
G02*
X189025000Y-83125000I250000J0D01*
G01*
X189950000Y-83125000D01*
G75*
G02*
X190200000Y-83375000I0J-250000D01*
G01*
G37*
%TD.AperFunction*%
%TO.P,D9,2*%
%TO.N,Net-(D9-Pad2)*%
%TA.AperFunction,SMDPad,CuDef*%
G36*
G01*
X187225000Y-83375000D02*
X187225000Y-84625000D01*
G75*
G02*
X186975000Y-84875000I-250000J0D01*
G01*
X186050000Y-84875000D01*
G75*
G02*
X185800000Y-84625000I0J250000D01*
G01*
X185800000Y-83375000D01*
G75*
G02*
X186050000Y-83125000I250000J0D01*
G01*
X186975000Y-83125000D01*
G75*
G02*
X187225000Y-83375000I0J-250000D01*
G01*
G37*
%TD.AperFunction*%
%TD*%
%TO.P,D10,2*%
%TO.N,Net-(D10-Pad2)*%
%TA.AperFunction,SMDPad,CuDef*%
G36*
G01*
X182287500Y-113625000D02*
X182287500Y-112375000D01*
G75*
G02*
X182537500Y-112125000I250000J0D01*
G01*
X183462500Y-112125000D01*
G75*
G02*
X183712500Y-112375000I0J-250000D01*
G01*
X183712500Y-113625000D01*
G75*
G02*
X183462500Y-113875000I-250000J0D01*
G01*
X182537500Y-113875000D01*
G75*
G02*
X182287500Y-113625000I0J250000D01*
G01*
G37*
%TD.AperFunction*%
%TO.P,D10,1*%
%TO.N,GND*%
%TA.AperFunction,SMDPad,CuDef*%
G36*
G01*
X179312500Y-113625000D02*
X179312500Y-112375000D01*
G75*
G02*
X179562500Y-112125000I250000J0D01*
G01*
X180487500Y-112125000D01*
G75*
G02*
X180737500Y-112375000I0J-250000D01*
G01*
X180737500Y-113625000D01*
G75*
G02*
X180487500Y-113875000I-250000J0D01*
G01*
X179562500Y-113875000D01*
G75*
G02*
X179312500Y-113625000I0J250000D01*
G01*
G37*
%TD.AperFunction*%
%TD*%
D13*
%TO.P,TP1,1*%
%TO.N,/D14*%
X181813200Y-79349600D03*
%TD*%
%TO.P,TP2,1*%
%TO.N,/D15*%
X170510200Y-95351600D03*
%TD*%
%TO.P,TP3,1*%
%TO.N,/D16*%
X191643000Y-113995200D03*
%TD*%
D14*
%TO.P,J1,1*%
%TO.N,GND*%
X187083700Y-123736100D03*
D15*
%TO.P,J1,2*%
%TO.N,VCC*%
X184543700Y-123736100D03*
%TO.P,J1,3*%
%TO.N,/328_TX*%
X182003700Y-123736100D03*
%TO.P,J1,4*%
%TO.N,/328_RX*%
X179463700Y-123736100D03*
%TO.P,J1,5*%
%TO.N,/RESET*%
X176923700Y-123736100D03*
%TD*%
D16*
%TO.N,GND*%
X183502300Y-69303900D03*
X176987200Y-75590400D03*
X196811900Y-92773500D03*
X200621900Y-102108000D03*
X209410300Y-116446300D03*
X155384500Y-116217700D03*
X160578800Y-106400600D03*
X165138100Y-96469200D03*
X181279800Y-117170200D03*
X186182000Y-117221000D03*
X181965600Y-107645200D03*
X178943000Y-91986100D03*
%TO.N,+5V*%
X191897000Y-104597200D03*
X185166000Y-107924600D03*
X190703200Y-98361500D03*
X184069740Y-95363200D03*
%TO.N,Net-(D1-Pad2)*%
X182016400Y-58166000D03*
%TO.N,Net-(D2-Pad2)*%
X162509200Y-114046000D03*
%TO.N,Net-(D3-Pad2)*%
X174498000Y-84988400D03*
%TO.N,Net-(D4-Pad2)*%
X191744600Y-101460300D03*
%TO.N,Net-(D5-Pad2)*%
X182829200Y-91592400D03*
%TO.N,Net-(D6-Pad2)*%
X199898000Y-109270800D03*
%TO.N,Net-(D7-Pad2)*%
X167944800Y-101955600D03*
%TO.N,Net-(D8-Pad2)*%
X182626000Y-72999600D03*
%TO.N,Net-(D9-Pad2)*%
X187960000Y-83921600D03*
%TO.N,Net-(D10-Pad2)*%
X181457600Y-113080800D03*
%TO.N,/D11MOSI*%
X178892200Y-101193600D03*
X171246800Y-100253800D03*
%TO.N,/D10*%
X173925400Y-118008400D03*
X176326800Y-118008400D03*
%TO.N,/D9*%
X178903800Y-99949000D03*
X172262800Y-99491800D03*
%TO.N,/D7*%
X187883800Y-98075000D03*
X187485447Y-95004047D03*
%TO.N,/D6*%
X184422800Y-99600000D03*
X189534800Y-99618800D03*
%TO.N,/D5*%
X175209200Y-98856800D03*
X181457600Y-99212400D03*
%TO.N,/D2*%
X179628800Y-111252000D03*
X179679600Y-98907600D03*
%TO.N,/D12MISO*%
X173888400Y-104648000D03*
X178903800Y-104449998D03*
%TO.N,/D14*%
X174117000Y-80238600D03*
X172212000Y-107696000D03*
X177419000Y-118237000D03*
X178562000Y-116433600D03*
X179273200Y-108393400D03*
%TO.N,/D15*%
X176352200Y-108254800D03*
%TO.N,/D16*%
X177088800Y-106832400D03*
%TD*%
D17*
%TO.N,GND*%
X183165610Y-57813410D02*
X183165610Y-60289080D01*
X181965600Y-56613400D02*
X183165610Y-57813410D01*
X182828780Y-60625910D02*
X182083790Y-60625910D01*
X183165610Y-60289080D02*
X182828780Y-60625910D01*
X182083790Y-60625910D02*
X182003700Y-60706000D01*
X182003700Y-60706000D02*
X182003700Y-63398400D01*
%TO.N,+5V*%
X191897000Y-104597200D02*
X188569600Y-107924600D01*
X188569600Y-107924600D02*
X185166000Y-107924600D01*
X190264699Y-98800001D02*
X187268201Y-98800001D01*
X190703200Y-98361500D02*
X190264699Y-98800001D01*
X184069740Y-95601540D02*
X184069740Y-95363200D01*
X187268201Y-98800001D02*
X184069740Y-95601540D01*
%TO.N,Net-(D1-Pad2)*%
X181965600Y-58216800D02*
X182016400Y-58166000D01*
X181965600Y-59588400D02*
X181965600Y-58216800D01*
%TO.N,Net-(D2-Pad2)*%
X162555200Y-114000000D02*
X162509200Y-114046000D01*
X164000000Y-114000000D02*
X162555200Y-114000000D01*
%TO.N,Net-(D3-Pad2)*%
X174509600Y-85000000D02*
X174498000Y-84988400D01*
X176000000Y-85000000D02*
X174509600Y-85000000D01*
%TO.N,Net-(D4-Pad2)*%
X191744600Y-101719600D02*
X193025000Y-103000000D01*
X191744600Y-101460300D02*
X191744600Y-101719600D01*
%TO.N,Net-(D5-Pad2)*%
X184372800Y-91592400D02*
X184387600Y-91577600D01*
X182829200Y-91592400D02*
X184372800Y-91592400D01*
%TO.N,Net-(D6-Pad2)*%
X199796400Y-109169200D02*
X199898000Y-109270800D01*
X198359700Y-109169200D02*
X199796400Y-109169200D01*
%TO.N,Net-(D7-Pad2)*%
X167995600Y-101904800D02*
X167944800Y-101955600D01*
X169367200Y-101904800D02*
X167995600Y-101904800D01*
%TO.N,Net-(D8-Pad2)*%
X182625600Y-73000000D02*
X182626000Y-72999600D01*
X181025000Y-73000000D02*
X182625600Y-73000000D01*
%TO.N,Net-(D9-Pad2)*%
X187881600Y-84000000D02*
X187960000Y-83921600D01*
X186512500Y-84000000D02*
X187881600Y-84000000D01*
%TO.N,Net-(D10-Pad2)*%
X183000000Y-113000000D02*
X183000000Y-112960800D01*
X182880000Y-113080800D02*
X181457600Y-113080800D01*
X183000000Y-112960800D02*
X182880000Y-113080800D01*
%TO.N,/D11MOSI*%
X178892200Y-101193600D02*
X178097610Y-100399010D01*
X178097610Y-100399010D02*
X171392010Y-100399010D01*
X171392010Y-100399010D02*
X171246800Y-100253800D01*
%TO.N,/D10*%
X173925400Y-118008400D02*
X176326800Y-118008400D01*
%TO.N,/D9*%
X178903800Y-99949000D02*
X172720000Y-99949000D01*
X172720000Y-99949000D02*
X172262800Y-99491800D01*
%TO.N,/D7*%
X187883800Y-98075000D02*
X187883800Y-95402400D01*
X187883800Y-95402400D02*
X187485447Y-95004047D01*
%TO.N,/D6*%
X184422800Y-99600000D02*
X189477400Y-99600000D01*
X189516000Y-99600000D02*
X189534800Y-99618800D01*
X189477400Y-99600000D02*
X189516000Y-99600000D01*
%TO.N,/D5*%
X180848000Y-97891600D02*
X181406800Y-98270398D01*
X175883401Y-98182599D02*
X180848000Y-97891600D01*
X175209200Y-98856800D02*
X175883401Y-98182599D01*
X181406800Y-98270398D02*
X181406800Y-98247200D01*
X181406800Y-98247200D02*
X181356000Y-98298000D01*
X181356000Y-99110800D02*
X181457600Y-99212400D01*
X181356000Y-98298000D02*
X181356000Y-99110800D01*
%TO.N,/D2*%
X179628800Y-98958400D02*
X179679600Y-98907600D01*
X179628800Y-111252000D02*
X181000400Y-109880400D01*
X181000400Y-109880400D02*
X181000400Y-100457000D01*
X179679600Y-99136200D02*
X179679600Y-98907600D01*
X181000400Y-100457000D02*
X179679600Y-99136200D01*
%TO.N,/D12MISO*%
X173888400Y-104648000D02*
X178816000Y-104648000D01*
X178903800Y-104560200D02*
X178903800Y-104449998D01*
X178816000Y-104648000D02*
X178903800Y-104560200D01*
%TO.N,/D14*%
X181813200Y-79349600D02*
X175006000Y-79349600D01*
X175006000Y-79349600D02*
X174117000Y-80238600D01*
X172212000Y-112820598D02*
X177342800Y-117951398D01*
X172212000Y-107696000D02*
X172212000Y-112820598D01*
X177342800Y-118160800D02*
X177419000Y-118237000D01*
X177342800Y-117951398D02*
X177342800Y-118160800D01*
X178562000Y-116433600D02*
X178562000Y-110566200D01*
X178562000Y-110566200D02*
X178562000Y-109143800D01*
X179273200Y-108432600D02*
X179273200Y-108393400D01*
X178562000Y-109143800D02*
X179273200Y-108432600D01*
%TO.N,/D15*%
X170510200Y-100590202D02*
X172821600Y-102901602D01*
X170510200Y-95351600D02*
X170510200Y-100590202D01*
X172821600Y-102901602D02*
X172821600Y-106502200D01*
X172821600Y-106502200D02*
X174574200Y-108254800D01*
X174574200Y-108254800D02*
X176352200Y-108254800D01*
%TO.N,/D16*%
X191643000Y-113995200D02*
X187401200Y-118237000D01*
X187401200Y-118237000D02*
X178460400Y-118237000D01*
X178460400Y-118237000D02*
X177088800Y-116865400D01*
X177088800Y-116865400D02*
X177088800Y-106832400D01*
%TD*%
D18*
%TO.N,GND*%
X182356647Y-60950314D02*
X182335224Y-60975490D01*
X182319590Y-61003526D01*
X182301243Y-61029872D01*
X182288007Y-61060165D01*
X182271906Y-61089038D01*
X182262041Y-61119589D01*
X182249188Y-61149005D01*
X182242115Y-61181300D01*
X182231958Y-61212757D01*
X182228243Y-61244642D01*
X182221375Y-61276003D01*
X182220739Y-61309057D01*
X182216913Y-61341892D01*
X182219490Y-61373889D01*
X182218872Y-61405986D01*
X182224696Y-61438527D01*
X182227350Y-61471480D01*
X182236121Y-61502363D01*
X182241776Y-61533961D01*
X182253836Y-61564738D01*
X182262868Y-61596542D01*
X182277497Y-61625124D01*
X182289207Y-61655009D01*
X182307036Y-61682837D01*
X182307260Y-61683275D01*
X182325038Y-61710935D01*
X182359341Y-61764477D01*
X182359670Y-61764819D01*
X185996427Y-67423185D01*
X185954017Y-67436050D01*
X185905632Y-67448347D01*
X185891935Y-67454883D01*
X185877407Y-67459290D01*
X185833354Y-67482837D01*
X185788297Y-67504337D01*
X185776141Y-67513417D01*
X185762750Y-67520575D01*
X185724133Y-67552268D01*
X185684140Y-67582142D01*
X185673989Y-67593420D01*
X185662252Y-67603052D01*
X185630561Y-67641668D01*
X185597164Y-67678771D01*
X185589409Y-67691811D01*
X185579775Y-67703550D01*
X185556226Y-67747607D01*
X185530710Y-67790512D01*
X185525647Y-67804817D01*
X185518490Y-67818207D01*
X185503987Y-67866016D01*
X185487333Y-67913071D01*
X185485159Y-67928084D01*
X185480750Y-67942617D01*
X185475854Y-67992332D01*
X185468698Y-68041738D01*
X185469495Y-68056894D01*
X185468007Y-68072000D01*
X185472902Y-68121705D01*
X185475524Y-68171565D01*
X185479262Y-68186272D01*
X185480750Y-68201383D01*
X185495250Y-68249183D01*
X185507547Y-68297568D01*
X185514083Y-68311265D01*
X185518490Y-68325793D01*
X185542038Y-68369848D01*
X185549508Y-68385503D01*
X185557302Y-68398406D01*
X185579775Y-68440450D01*
X185590854Y-68453950D01*
X191006652Y-77419600D01*
X190168404Y-77419600D01*
X190127547Y-77416622D01*
X190071401Y-77423597D01*
X190015017Y-77429150D01*
X190006916Y-77431607D01*
X189998531Y-77432649D01*
X189944812Y-77450447D01*
X189890607Y-77466890D01*
X189883148Y-77470877D01*
X189875119Y-77473537D01*
X189825891Y-77501481D01*
X189775950Y-77528175D01*
X189769409Y-77533543D01*
X189762056Y-77537717D01*
X189719227Y-77574726D01*
X189675452Y-77610652D01*
X189670086Y-77617191D01*
X189663686Y-77622721D01*
X189628910Y-77667363D01*
X189592975Y-77711150D01*
X189588984Y-77718617D01*
X189583791Y-77725283D01*
X189558400Y-77775837D01*
X189531690Y-77825807D01*
X189529233Y-77833906D01*
X189525439Y-77841460D01*
X189510396Y-77896003D01*
X189493950Y-77950217D01*
X189493120Y-77958641D01*
X189490873Y-77966789D01*
X189486760Y-78023222D01*
X189481207Y-78079600D01*
X189482037Y-78088022D01*
X189481422Y-78096453D01*
X189488397Y-78152598D01*
X189493950Y-78208983D01*
X189496407Y-78217084D01*
X189497449Y-78225469D01*
X189515247Y-78279188D01*
X189531690Y-78333393D01*
X189535677Y-78340852D01*
X189538337Y-78348881D01*
X189566277Y-78398100D01*
X189592975Y-78448050D01*
X189618977Y-78479734D01*
X195932163Y-87427200D01*
X195198732Y-87427200D01*
X195158999Y-87424168D01*
X195101702Y-87431088D01*
X195044217Y-87436750D01*
X195037199Y-87438879D01*
X195029929Y-87439757D01*
X194975088Y-87457720D01*
X194919807Y-87474490D01*
X194913342Y-87477946D01*
X194906380Y-87480226D01*
X194856089Y-87508548D01*
X194805150Y-87535775D01*
X194799483Y-87540426D01*
X194793099Y-87544021D01*
X194749298Y-87581612D01*
X194704652Y-87618252D01*
X194700001Y-87623920D01*
X194694441Y-87628691D01*
X194658826Y-87674090D01*
X194622175Y-87718750D01*
X194618717Y-87725219D01*
X194614198Y-87730980D01*
X194588122Y-87782460D01*
X194560890Y-87833407D01*
X194558762Y-87840421D01*
X194555451Y-87846958D01*
X194539918Y-87902540D01*
X194523150Y-87957817D01*
X194522431Y-87965117D01*
X194520460Y-87972170D01*
X194516069Y-88029712D01*
X194510407Y-88087200D01*
X194511126Y-88094495D01*
X194510568Y-88101801D01*
X194517488Y-88159097D01*
X194523150Y-88216583D01*
X194525279Y-88223601D01*
X194526157Y-88230871D01*
X194544120Y-88285712D01*
X194560890Y-88340993D01*
X194564346Y-88347458D01*
X194566626Y-88354420D01*
X194594945Y-88404707D01*
X194622175Y-88455650D01*
X194647464Y-88486464D01*
X200915840Y-97434800D01*
X200178259Y-97434800D01*
X200139662Y-97431722D01*
X200081218Y-97438578D01*
X200022617Y-97444350D01*
X200016687Y-97446149D01*
X200010540Y-97446870D01*
X199954551Y-97464998D01*
X199898207Y-97482090D01*
X199892746Y-97485009D01*
X199886853Y-97486917D01*
X199835491Y-97515612D01*
X199783550Y-97543375D01*
X199778757Y-97547309D01*
X199773356Y-97550326D01*
X199728593Y-97588478D01*
X199683052Y-97625852D01*
X199679121Y-97630642D01*
X199674409Y-97634658D01*
X199637948Y-97680812D01*
X199600575Y-97726350D01*
X199597652Y-97731819D01*
X199593817Y-97736673D01*
X199567062Y-97789049D01*
X199539290Y-97841007D01*
X199537491Y-97846937D01*
X199534675Y-97852450D01*
X199518654Y-97909032D01*
X199501550Y-97965417D01*
X199500942Y-97971590D01*
X199499257Y-97977541D01*
X199494582Y-98036170D01*
X199488807Y-98094800D01*
X199489414Y-98100965D01*
X199488922Y-98107138D01*
X199495778Y-98165581D01*
X199501550Y-98224183D01*
X199503349Y-98230113D01*
X199504070Y-98236260D01*
X199522198Y-98292249D01*
X199539290Y-98348593D01*
X199542209Y-98354054D01*
X199544117Y-98359947D01*
X199572814Y-98411313D01*
X199600575Y-98463250D01*
X199625149Y-98493193D01*
X205848708Y-107442400D01*
X205156659Y-107442400D01*
X205118062Y-107439322D01*
X205059618Y-107446178D01*
X205001017Y-107451950D01*
X204995087Y-107453749D01*
X204988940Y-107454470D01*
X204932951Y-107472598D01*
X204876607Y-107489690D01*
X204871146Y-107492609D01*
X204865253Y-107494517D01*
X204813891Y-107523212D01*
X204761950Y-107550975D01*
X204757157Y-107554909D01*
X204751756Y-107557926D01*
X204706993Y-107596078D01*
X204661452Y-107633452D01*
X204657521Y-107638242D01*
X204652809Y-107642258D01*
X204616348Y-107688412D01*
X204578975Y-107733950D01*
X204576052Y-107739419D01*
X204572217Y-107744273D01*
X204545462Y-107796649D01*
X204517690Y-107848607D01*
X204515891Y-107854537D01*
X204513075Y-107860050D01*
X204497054Y-107916632D01*
X204479950Y-107973017D01*
X204479342Y-107979190D01*
X204477657Y-107985141D01*
X204472982Y-108043770D01*
X204467207Y-108102400D01*
X204467814Y-108108565D01*
X204467322Y-108114738D01*
X204474178Y-108173181D01*
X204479950Y-108231783D01*
X204481749Y-108237713D01*
X204482470Y-108243860D01*
X204500598Y-108299849D01*
X204517690Y-108356193D01*
X204520609Y-108361654D01*
X204522517Y-108367547D01*
X204551214Y-108418913D01*
X204578975Y-108470850D01*
X204603549Y-108500793D01*
X210827108Y-117450000D01*
X195104419Y-117450000D01*
X195072000Y-117446807D01*
X195039581Y-117450000D01*
X194942617Y-117459550D01*
X194818207Y-117497290D01*
X194703550Y-117558575D01*
X194603052Y-117641052D01*
X194520575Y-117741550D01*
X194459290Y-117856207D01*
X194421550Y-117980617D01*
X194408807Y-118110000D01*
X194412001Y-118142429D01*
X194412000Y-132436000D01*
X170586000Y-132436000D01*
X170586000Y-127549647D01*
X173724300Y-127549647D01*
X173724300Y-127999753D01*
X173812111Y-128441210D01*
X173984359Y-128857053D01*
X174234425Y-129231303D01*
X174552697Y-129549575D01*
X174926947Y-129799641D01*
X175342790Y-129971889D01*
X175784247Y-130059700D01*
X176234353Y-130059700D01*
X176675810Y-129971889D01*
X177091653Y-129799641D01*
X177465903Y-129549575D01*
X177642343Y-129373135D01*
X187290470Y-129373135D01*
X187464523Y-129704054D01*
X187864840Y-129909825D01*
X188297608Y-130033546D01*
X188746198Y-130070459D01*
X189193370Y-130019149D01*
X189621939Y-129881585D01*
X189954077Y-129704054D01*
X190128130Y-129373135D01*
X188709300Y-127954305D01*
X187290470Y-129373135D01*
X177642343Y-129373135D01*
X177784175Y-129231303D01*
X178034241Y-128857053D01*
X178206489Y-128441210D01*
X178294300Y-127999753D01*
X178294300Y-127811598D01*
X186413541Y-127811598D01*
X186464851Y-128258770D01*
X186602415Y-128687339D01*
X186779946Y-129019477D01*
X187110865Y-129193530D01*
X188529695Y-127774700D01*
X188888905Y-127774700D01*
X190307735Y-129193530D01*
X190638654Y-129019477D01*
X190844425Y-128619160D01*
X190968146Y-128186392D01*
X191005059Y-127737802D01*
X190953749Y-127290630D01*
X190816185Y-126862061D01*
X190638654Y-126529923D01*
X190307735Y-126355870D01*
X188888905Y-127774700D01*
X188529695Y-127774700D01*
X187110865Y-126355870D01*
X186779946Y-126529923D01*
X186574175Y-126930240D01*
X186450454Y-127363008D01*
X186413541Y-127811598D01*
X178294300Y-127811598D01*
X178294300Y-127549647D01*
X178206489Y-127108190D01*
X178034241Y-126692347D01*
X177784175Y-126318097D01*
X177642343Y-126176265D01*
X187290470Y-126176265D01*
X188709300Y-127595095D01*
X190128130Y-126176265D01*
X189954077Y-125845346D01*
X189553760Y-125639575D01*
X189120992Y-125515854D01*
X188672402Y-125478941D01*
X188225230Y-125530251D01*
X187796661Y-125667815D01*
X187464523Y-125845346D01*
X187290470Y-126176265D01*
X177642343Y-126176265D01*
X177465903Y-125999825D01*
X177091653Y-125749759D01*
X176675810Y-125577511D01*
X176234353Y-125489700D01*
X175784247Y-125489700D01*
X175342790Y-125577511D01*
X174926947Y-125749759D01*
X174552697Y-125999825D01*
X174234425Y-126318097D01*
X173984359Y-126692347D01*
X173812111Y-127108190D01*
X173724300Y-127549647D01*
X170586000Y-127549647D01*
X170586000Y-123589840D01*
X175438700Y-123589840D01*
X175438700Y-123882360D01*
X175495768Y-124169258D01*
X175607710Y-124439511D01*
X175770225Y-124682732D01*
X175977068Y-124889575D01*
X176220289Y-125052090D01*
X176490542Y-125164032D01*
X176777440Y-125221100D01*
X177069960Y-125221100D01*
X177356858Y-125164032D01*
X177627111Y-125052090D01*
X177870332Y-124889575D01*
X178077175Y-124682732D01*
X178193700Y-124508340D01*
X178310225Y-124682732D01*
X178517068Y-124889575D01*
X178760289Y-125052090D01*
X179030542Y-125164032D01*
X179317440Y-125221100D01*
X179609960Y-125221100D01*
X179896858Y-125164032D01*
X180167111Y-125052090D01*
X180410332Y-124889575D01*
X180617175Y-124682732D01*
X180733700Y-124508340D01*
X180850225Y-124682732D01*
X181057068Y-124889575D01*
X181300289Y-125052090D01*
X181570542Y-125164032D01*
X181857440Y-125221100D01*
X182149960Y-125221100D01*
X182436858Y-125164032D01*
X182707111Y-125052090D01*
X182950332Y-124889575D01*
X183157175Y-124682732D01*
X183273700Y-124508340D01*
X183390225Y-124682732D01*
X183597068Y-124889575D01*
X183840289Y-125052090D01*
X184110542Y-125164032D01*
X184397440Y-125221100D01*
X184689960Y-125221100D01*
X184976858Y-125164032D01*
X185247111Y-125052090D01*
X185490332Y-124889575D01*
X185622187Y-124757720D01*
X185644198Y-124830280D01*
X185703163Y-124940594D01*
X185782515Y-125037285D01*
X185879206Y-125116637D01*
X185989520Y-125175602D01*
X186109218Y-125211912D01*
X186233700Y-125224172D01*
X186797950Y-125221100D01*
X186956700Y-125062350D01*
X186956700Y-123863100D01*
X187210700Y-123863100D01*
X187210700Y-125062350D01*
X187369450Y-125221100D01*
X187933700Y-125224172D01*
X188058182Y-125211912D01*
X188177880Y-125175602D01*
X188288194Y-125116637D01*
X188384885Y-125037285D01*
X188464237Y-124940594D01*
X188523202Y-124830280D01*
X188559512Y-124710582D01*
X188571772Y-124586100D01*
X188568700Y-124021850D01*
X188409950Y-123863100D01*
X187210700Y-123863100D01*
X186956700Y-123863100D01*
X186936700Y-123863100D01*
X186936700Y-123609100D01*
X186956700Y-123609100D01*
X186956700Y-122409850D01*
X187210700Y-122409850D01*
X187210700Y-123609100D01*
X188409950Y-123609100D01*
X188568700Y-123450350D01*
X188571772Y-122886100D01*
X188559512Y-122761618D01*
X188523202Y-122641920D01*
X188464237Y-122531606D01*
X188384885Y-122434915D01*
X188288194Y-122355563D01*
X188177880Y-122296598D01*
X188058182Y-122260288D01*
X187933700Y-122248028D01*
X187369450Y-122251100D01*
X187210700Y-122409850D01*
X186956700Y-122409850D01*
X186797950Y-122251100D01*
X186233700Y-122248028D01*
X186109218Y-122260288D01*
X185989520Y-122296598D01*
X185879206Y-122355563D01*
X185782515Y-122434915D01*
X185703163Y-122531606D01*
X185644198Y-122641920D01*
X185622187Y-122714480D01*
X185490332Y-122582625D01*
X185247111Y-122420110D01*
X184976858Y-122308168D01*
X184689960Y-122251100D01*
X184397440Y-122251100D01*
X184110542Y-122308168D01*
X183840289Y-122420110D01*
X183597068Y-122582625D01*
X183390225Y-122789468D01*
X183273700Y-122963860D01*
X183157175Y-122789468D01*
X182950332Y-122582625D01*
X182707111Y-122420110D01*
X182436858Y-122308168D01*
X182149960Y-122251100D01*
X181857440Y-122251100D01*
X181570542Y-122308168D01*
X181300289Y-122420110D01*
X181057068Y-122582625D01*
X180850225Y-122789468D01*
X180733700Y-122963860D01*
X180617175Y-122789468D01*
X180410332Y-122582625D01*
X180167111Y-122420110D01*
X179896858Y-122308168D01*
X179609960Y-122251100D01*
X179317440Y-122251100D01*
X179030542Y-122308168D01*
X178760289Y-122420110D01*
X178517068Y-122582625D01*
X178310225Y-122789468D01*
X178193700Y-122963860D01*
X178077175Y-122789468D01*
X177870332Y-122582625D01*
X177627111Y-122420110D01*
X177356858Y-122308168D01*
X177069960Y-122251100D01*
X176777440Y-122251100D01*
X176490542Y-122308168D01*
X176220289Y-122420110D01*
X175977068Y-122582625D01*
X175770225Y-122789468D01*
X175607710Y-123032689D01*
X175495768Y-123302942D01*
X175438700Y-123589840D01*
X170586000Y-123589840D01*
X170586000Y-118142419D01*
X170589193Y-118110000D01*
X170576450Y-117980617D01*
X170538710Y-117856207D01*
X170477425Y-117741550D01*
X170394948Y-117641052D01*
X170294450Y-117558575D01*
X170179793Y-117497290D01*
X170055383Y-117459550D01*
X169958419Y-117450000D01*
X169926000Y-117446807D01*
X169893581Y-117450000D01*
X153063836Y-117450000D01*
X154880714Y-114875000D01*
X159674428Y-114875000D01*
X159686688Y-114999482D01*
X159722998Y-115119180D01*
X159781963Y-115229494D01*
X159861315Y-115326185D01*
X159958006Y-115405537D01*
X160068320Y-115464502D01*
X160188018Y-115500812D01*
X160312500Y-115513072D01*
X160739250Y-115510000D01*
X160898000Y-115351250D01*
X160898000Y-114127000D01*
X159836250Y-114127000D01*
X159677500Y-114285750D01*
X159674428Y-114875000D01*
X154880714Y-114875000D01*
X156115485Y-113125000D01*
X159674428Y-113125000D01*
X159677500Y-113714250D01*
X159836250Y-113873000D01*
X160898000Y-113873000D01*
X160898000Y-112648750D01*
X161152000Y-112648750D01*
X161152000Y-113873000D01*
X161172000Y-113873000D01*
X161172000Y-114127000D01*
X161152000Y-114127000D01*
X161152000Y-115351250D01*
X161310750Y-115510000D01*
X161737500Y-115513072D01*
X161861982Y-115500812D01*
X161981680Y-115464502D01*
X162091994Y-115405537D01*
X162188685Y-115326185D01*
X162268037Y-115229494D01*
X162327002Y-115119180D01*
X162342492Y-115068117D01*
X162407261Y-115081000D01*
X162611139Y-115081000D01*
X162762969Y-115050799D01*
X162799095Y-115118386D01*
X162909538Y-115252962D01*
X163044114Y-115363405D01*
X163197650Y-115445472D01*
X163364246Y-115496008D01*
X163537500Y-115513072D01*
X164462500Y-115513072D01*
X164635754Y-115496008D01*
X164802350Y-115445472D01*
X164955886Y-115363405D01*
X165090462Y-115252962D01*
X165200905Y-115118386D01*
X165282972Y-114964850D01*
X165333508Y-114798254D01*
X165350572Y-114625000D01*
X165350572Y-113375000D01*
X165333508Y-113201746D01*
X165282972Y-113035150D01*
X165200905Y-112881614D01*
X165090462Y-112747038D01*
X164955886Y-112636595D01*
X164802350Y-112554528D01*
X164635754Y-112503992D01*
X164462500Y-112486928D01*
X163537500Y-112486928D01*
X163364246Y-112503992D01*
X163197650Y-112554528D01*
X163044114Y-112636595D01*
X162909538Y-112747038D01*
X162799095Y-112881614D01*
X162718520Y-113032359D01*
X162611139Y-113011000D01*
X162407261Y-113011000D01*
X162365169Y-113019373D01*
X162363312Y-113000518D01*
X162327002Y-112880820D01*
X162268037Y-112770506D01*
X162188685Y-112673815D01*
X162091994Y-112594463D01*
X161981680Y-112535498D01*
X161861982Y-112499188D01*
X161737500Y-112486928D01*
X161310750Y-112490000D01*
X161152000Y-112648750D01*
X160898000Y-112648750D01*
X160739250Y-112490000D01*
X160312500Y-112486928D01*
X160188018Y-112499188D01*
X160068320Y-112535498D01*
X159958006Y-112594463D01*
X159861315Y-112673815D01*
X159781963Y-112770506D01*
X159722998Y-112880820D01*
X159686688Y-113000518D01*
X159674428Y-113125000D01*
X156115485Y-113125000D01*
X159377027Y-108502528D01*
X159403025Y-108470850D01*
X159429714Y-108420918D01*
X159457255Y-108372400D01*
X160617128Y-108372400D01*
X160617128Y-110372400D01*
X160629388Y-110496882D01*
X160665698Y-110616580D01*
X160724663Y-110726894D01*
X160804015Y-110823585D01*
X160900706Y-110902937D01*
X161011020Y-110961902D01*
X161130718Y-110998212D01*
X161255200Y-111010472D01*
X163255200Y-111010472D01*
X163379682Y-110998212D01*
X163499380Y-110961902D01*
X163609694Y-110902937D01*
X163706385Y-110823585D01*
X163785737Y-110726894D01*
X163844702Y-110616580D01*
X163877696Y-110507813D01*
X168899392Y-110507813D01*
X168995156Y-110772214D01*
X169284771Y-110913104D01*
X169596308Y-110994784D01*
X169917795Y-111014118D01*
X170236875Y-110970361D01*
X170541288Y-110865195D01*
X170715244Y-110772214D01*
X170811008Y-110507813D01*
X169855200Y-109552005D01*
X168899392Y-110507813D01*
X163877696Y-110507813D01*
X163881012Y-110496882D01*
X163893272Y-110372400D01*
X163893272Y-109434995D01*
X168213482Y-109434995D01*
X168257239Y-109754075D01*
X168362405Y-110058488D01*
X168455386Y-110232444D01*
X168719787Y-110328208D01*
X169675595Y-109372400D01*
X168719787Y-108416592D01*
X168455386Y-108512356D01*
X168314496Y-108801971D01*
X168232816Y-109113508D01*
X168213482Y-109434995D01*
X163893272Y-109434995D01*
X163893272Y-108372400D01*
X163881012Y-108247918D01*
X163877697Y-108236987D01*
X168899392Y-108236987D01*
X169855200Y-109192795D01*
X170811008Y-108236987D01*
X170715244Y-107972586D01*
X170425629Y-107831696D01*
X170114092Y-107750016D01*
X169792605Y-107730682D01*
X169473525Y-107774439D01*
X169169112Y-107879605D01*
X168995156Y-107972586D01*
X168899392Y-108236987D01*
X163877697Y-108236987D01*
X163844702Y-108128220D01*
X163785737Y-108017906D01*
X163706385Y-107921215D01*
X163609694Y-107841863D01*
X163499380Y-107782898D01*
X163379682Y-107746588D01*
X163255200Y-107734328D01*
X161255200Y-107734328D01*
X161130718Y-107746588D01*
X161011020Y-107782898D01*
X160900706Y-107841863D01*
X160804015Y-107921215D01*
X160724663Y-108017906D01*
X160665698Y-108128220D01*
X160629388Y-108247918D01*
X160617128Y-108372400D01*
X159457255Y-108372400D01*
X159457663Y-108371682D01*
X159460324Y-108363650D01*
X159464310Y-108356193D01*
X159480747Y-108302007D01*
X159498551Y-108248271D01*
X159499593Y-108239882D01*
X159502050Y-108231783D01*
X159507603Y-108175405D01*
X159514578Y-108119254D01*
X159513963Y-108110823D01*
X159514793Y-108102400D01*
X159509240Y-108046021D01*
X159505127Y-107989589D01*
X159502880Y-107981441D01*
X159502050Y-107973017D01*
X159485604Y-107918803D01*
X159470561Y-107864260D01*
X159466767Y-107856706D01*
X159464310Y-107848607D01*
X159437600Y-107798637D01*
X159412209Y-107748083D01*
X159407016Y-107741417D01*
X159403025Y-107733950D01*
X159367090Y-107690163D01*
X159332314Y-107645521D01*
X159325914Y-107639991D01*
X159320548Y-107633452D01*
X159276773Y-107597526D01*
X159233944Y-107560517D01*
X159226591Y-107556343D01*
X159220050Y-107550975D01*
X159170099Y-107524276D01*
X159120880Y-107496337D01*
X159112854Y-107493678D01*
X159105393Y-107489690D01*
X159051183Y-107473245D01*
X158997469Y-107455449D01*
X158989084Y-107454407D01*
X158980983Y-107451950D01*
X158924599Y-107446397D01*
X158868453Y-107439422D01*
X158827596Y-107442400D01*
X158087759Y-107442400D01*
X161353946Y-102779800D01*
X165041628Y-102779800D01*
X165053888Y-102904282D01*
X165090198Y-103023980D01*
X165149163Y-103134294D01*
X165228515Y-103230985D01*
X165325206Y-103310337D01*
X165435520Y-103369302D01*
X165555218Y-103405612D01*
X165679700Y-103417872D01*
X166106450Y-103414800D01*
X166265200Y-103256050D01*
X166265200Y-102031800D01*
X165203450Y-102031800D01*
X165044700Y-102190550D01*
X165041628Y-102779800D01*
X161353946Y-102779800D01*
X162579834Y-101029800D01*
X165041628Y-101029800D01*
X165044700Y-101619050D01*
X165203450Y-101777800D01*
X166265200Y-101777800D01*
X166265200Y-100553550D01*
X166519200Y-100553550D01*
X166519200Y-101777800D01*
X166539200Y-101777800D01*
X166539200Y-102031800D01*
X166519200Y-102031800D01*
X166519200Y-103256050D01*
X166677950Y-103414800D01*
X167104700Y-103417872D01*
X167229182Y-103405612D01*
X167348880Y-103369302D01*
X167459194Y-103310337D01*
X167555885Y-103230985D01*
X167635237Y-103134294D01*
X167694202Y-103023980D01*
X167712211Y-102964612D01*
X167842861Y-102990600D01*
X168046739Y-102990600D01*
X168139062Y-102972236D01*
X168166295Y-103023186D01*
X168276738Y-103157762D01*
X168411314Y-103268205D01*
X168564850Y-103350272D01*
X168731446Y-103400808D01*
X168904700Y-103417872D01*
X169829700Y-103417872D01*
X170002954Y-103400808D01*
X170169550Y-103350272D01*
X170323086Y-103268205D01*
X170457662Y-103157762D01*
X170568105Y-103023186D01*
X170650172Y-102869650D01*
X170700708Y-102703054D01*
X170717772Y-102529800D01*
X170717772Y-101872575D01*
X172061600Y-103216404D01*
X172061601Y-106464868D01*
X172057924Y-106502200D01*
X172072598Y-106651185D01*
X172077538Y-106667469D01*
X171910102Y-106700774D01*
X171721744Y-106778795D01*
X171552226Y-106892063D01*
X171408063Y-107036226D01*
X171294795Y-107205744D01*
X171216774Y-107394102D01*
X171177000Y-107594061D01*
X171177000Y-107797939D01*
X171216774Y-107997898D01*
X171294795Y-108186256D01*
X171408063Y-108355774D01*
X171452000Y-108399711D01*
X171452000Y-108987365D01*
X171347995Y-108686312D01*
X171255014Y-108512356D01*
X170990613Y-108416592D01*
X170034805Y-109372400D01*
X170990613Y-110328208D01*
X171255014Y-110232444D01*
X171395904Y-109942829D01*
X171452000Y-109728871D01*
X171452001Y-112783266D01*
X171448324Y-112820598D01*
X171462998Y-112969583D01*
X171506454Y-113112844D01*
X171577026Y-113244874D01*
X171617716Y-113294454D01*
X171672000Y-113360599D01*
X171700998Y-113384397D01*
X175565000Y-117248400D01*
X174629111Y-117248400D01*
X174585174Y-117204463D01*
X174415656Y-117091195D01*
X174227298Y-117013174D01*
X174027339Y-116973400D01*
X173823461Y-116973400D01*
X173623502Y-117013174D01*
X173435144Y-117091195D01*
X173265626Y-117204463D01*
X173121463Y-117348626D01*
X173008195Y-117518144D01*
X172930174Y-117706502D01*
X172890400Y-117906461D01*
X172890400Y-118110339D01*
X172930174Y-118310298D01*
X173008195Y-118498656D01*
X173121463Y-118668174D01*
X173265626Y-118812337D01*
X173435144Y-118925605D01*
X173623502Y-119003626D01*
X173823461Y-119043400D01*
X174027339Y-119043400D01*
X174227298Y-119003626D01*
X174415656Y-118925605D01*
X174585174Y-118812337D01*
X174629111Y-118768400D01*
X175623089Y-118768400D01*
X175667026Y-118812337D01*
X175836544Y-118925605D01*
X176024902Y-119003626D01*
X176224861Y-119043400D01*
X176428739Y-119043400D01*
X176628698Y-119003626D01*
X176694612Y-118976323D01*
X176759226Y-119040937D01*
X176928744Y-119154205D01*
X177117102Y-119232226D01*
X177317061Y-119272000D01*
X177520939Y-119272000D01*
X177720898Y-119232226D01*
X177909256Y-119154205D01*
X178078774Y-119040937D01*
X178175068Y-118944643D01*
X178311414Y-118986003D01*
X178423067Y-118997000D01*
X178423076Y-118997000D01*
X178460399Y-119000676D01*
X178497722Y-118997000D01*
X187363878Y-118997000D01*
X187401200Y-119000676D01*
X187438522Y-118997000D01*
X187438533Y-118997000D01*
X187550186Y-118986003D01*
X187693447Y-118942546D01*
X187825476Y-118871974D01*
X187941201Y-118777001D01*
X187965004Y-118747997D01*
X190387567Y-116325435D01*
X190394859Y-116330307D01*
X190874399Y-116528939D01*
X191383475Y-116630200D01*
X191902525Y-116630200D01*
X192411601Y-116528939D01*
X192891141Y-116330307D01*
X193322715Y-116041938D01*
X193689738Y-115674915D01*
X193831243Y-115463137D01*
X198715000Y-115463137D01*
X198715000Y-115676863D01*
X198756696Y-115886483D01*
X198838485Y-116083940D01*
X198957225Y-116261647D01*
X199108353Y-116412775D01*
X199286060Y-116531515D01*
X199483517Y-116613304D01*
X199693137Y-116655000D01*
X199906863Y-116655000D01*
X200116483Y-116613304D01*
X200313940Y-116531515D01*
X200491647Y-116412775D01*
X200642775Y-116261647D01*
X200761515Y-116083940D01*
X200843304Y-115886483D01*
X200885000Y-115676863D01*
X200885000Y-115463137D01*
X205515000Y-115463137D01*
X205515000Y-115676863D01*
X205556696Y-115886483D01*
X205638485Y-116083940D01*
X205757225Y-116261647D01*
X205908353Y-116412775D01*
X206086060Y-116531515D01*
X206283517Y-116613304D01*
X206493137Y-116655000D01*
X206706863Y-116655000D01*
X206916483Y-116613304D01*
X207113940Y-116531515D01*
X207291647Y-116412775D01*
X207442775Y-116261647D01*
X207561515Y-116083940D01*
X207643304Y-115886483D01*
X207685000Y-115676863D01*
X207685000Y-115463137D01*
X207643304Y-115253517D01*
X207561515Y-115056060D01*
X207442775Y-114878353D01*
X207291647Y-114727225D01*
X207113940Y-114608485D01*
X206916483Y-114526696D01*
X206706863Y-114485000D01*
X206493137Y-114485000D01*
X206283517Y-114526696D01*
X206086060Y-114608485D01*
X205908353Y-114727225D01*
X205757225Y-114878353D01*
X205638485Y-115056060D01*
X205556696Y-115253517D01*
X205515000Y-115463137D01*
X200885000Y-115463137D01*
X200843304Y-115253517D01*
X200761515Y-115056060D01*
X200642775Y-114878353D01*
X200491647Y-114727225D01*
X200313940Y-114608485D01*
X200116483Y-114526696D01*
X199906863Y-114485000D01*
X199693137Y-114485000D01*
X199483517Y-114526696D01*
X199286060Y-114608485D01*
X199108353Y-114727225D01*
X198957225Y-114878353D01*
X198838485Y-115056060D01*
X198756696Y-115253517D01*
X198715000Y-115463137D01*
X193831243Y-115463137D01*
X193978107Y-115243341D01*
X194176739Y-114763801D01*
X194278000Y-114254725D01*
X194278000Y-113735675D01*
X194176739Y-113226599D01*
X193978107Y-112747059D01*
X193689738Y-112315485D01*
X193322715Y-111948462D01*
X192891141Y-111660093D01*
X192411601Y-111461461D01*
X191902525Y-111360200D01*
X191383475Y-111360200D01*
X190874399Y-111461461D01*
X190394859Y-111660093D01*
X189963285Y-111948462D01*
X189596262Y-112315485D01*
X189307893Y-112747059D01*
X189109261Y-113226599D01*
X189008000Y-113735675D01*
X189008000Y-114254725D01*
X189109261Y-114763801D01*
X189307893Y-115243341D01*
X189312765Y-115250633D01*
X187086399Y-117477000D01*
X178775202Y-117477000D01*
X178749736Y-117451534D01*
X178863898Y-117428826D01*
X179052256Y-117350805D01*
X179221774Y-117237537D01*
X179365937Y-117093374D01*
X179479205Y-116923856D01*
X179557226Y-116735498D01*
X179597000Y-116535539D01*
X179597000Y-116331661D01*
X179557226Y-116131702D01*
X179479205Y-115943344D01*
X179365937Y-115773826D01*
X179322000Y-115729889D01*
X179322000Y-114513004D01*
X179739250Y-114510000D01*
X179898000Y-114351250D01*
X179898000Y-113127000D01*
X179878000Y-113127000D01*
X179878000Y-112873000D01*
X179898000Y-112873000D01*
X179898000Y-112853000D01*
X180152000Y-112853000D01*
X180152000Y-112873000D01*
X180172000Y-112873000D01*
X180172000Y-113127000D01*
X180152000Y-113127000D01*
X180152000Y-114351250D01*
X180310750Y-114510000D01*
X180737500Y-114513072D01*
X180861982Y-114500812D01*
X180981680Y-114464502D01*
X181091994Y-114405537D01*
X181188685Y-114326185D01*
X181268037Y-114229494D01*
X181327002Y-114119180D01*
X181329600Y-114110616D01*
X181355661Y-114115800D01*
X181559539Y-114115800D01*
X181759498Y-114076026D01*
X181773380Y-114070276D01*
X181799095Y-114118386D01*
X181909538Y-114252962D01*
X182044114Y-114363405D01*
X182197650Y-114445472D01*
X182364246Y-114496008D01*
X182537500Y-114513072D01*
X183462500Y-114513072D01*
X183635754Y-114496008D01*
X183802350Y-114445472D01*
X183955886Y-114363405D01*
X184090462Y-114252962D01*
X184200905Y-114118386D01*
X184282972Y-113964850D01*
X184333508Y-113798254D01*
X184350572Y-113625000D01*
X184350572Y-112375000D01*
X184333508Y-112201746D01*
X184282972Y-112035150D01*
X184200905Y-111881614D01*
X184090462Y-111747038D01*
X183955886Y-111636595D01*
X183802350Y-111554528D01*
X183635754Y-111503992D01*
X183462500Y-111486928D01*
X182537500Y-111486928D01*
X182364246Y-111503992D01*
X182197650Y-111554528D01*
X182044114Y-111636595D01*
X181909538Y-111747038D01*
X181799095Y-111881614D01*
X181717028Y-112035150D01*
X181705019Y-112074738D01*
X181559539Y-112045800D01*
X181367772Y-112045800D01*
X181363312Y-112000518D01*
X181327002Y-111880820D01*
X181268037Y-111770506D01*
X181188685Y-111673815D01*
X181091994Y-111594463D01*
X180981680Y-111535498D01*
X180861982Y-111499188D01*
X180737500Y-111486928D01*
X180637203Y-111487650D01*
X180663800Y-111353939D01*
X180663800Y-111291801D01*
X181511404Y-110444198D01*
X181540401Y-110420401D01*
X181635374Y-110304676D01*
X181705946Y-110172647D01*
X181749403Y-110029386D01*
X181760400Y-109917733D01*
X181760400Y-109917724D01*
X181764076Y-109880401D01*
X181760400Y-109843078D01*
X181760400Y-107822661D01*
X184131000Y-107822661D01*
X184131000Y-108026539D01*
X184170774Y-108226498D01*
X184248795Y-108414856D01*
X184362063Y-108584374D01*
X184506226Y-108728537D01*
X184675744Y-108841805D01*
X184864102Y-108919826D01*
X185064061Y-108959600D01*
X185267939Y-108959600D01*
X185467898Y-108919826D01*
X185656256Y-108841805D01*
X185825774Y-108728537D01*
X185869711Y-108684600D01*
X188532278Y-108684600D01*
X188569600Y-108688276D01*
X188606922Y-108684600D01*
X188606933Y-108684600D01*
X188718586Y-108673603D01*
X188861847Y-108630146D01*
X188993876Y-108559574D01*
X189012609Y-108544200D01*
X197009128Y-108544200D01*
X197009128Y-109794200D01*
X197026192Y-109967454D01*
X197076728Y-110134050D01*
X197158795Y-110287586D01*
X197269238Y-110422162D01*
X197403814Y-110532605D01*
X197557350Y-110614672D01*
X197723946Y-110665208D01*
X197897200Y-110682272D01*
X198822200Y-110682272D01*
X198995454Y-110665208D01*
X199162050Y-110614672D01*
X199315586Y-110532605D01*
X199450162Y-110422162D01*
X199560605Y-110287586D01*
X199576475Y-110257896D01*
X199596102Y-110266026D01*
X199796061Y-110305800D01*
X199999939Y-110305800D01*
X200037966Y-110298236D01*
X200091663Y-110398694D01*
X200171015Y-110495385D01*
X200267706Y-110574737D01*
X200378020Y-110633702D01*
X200497718Y-110670012D01*
X200622200Y-110682272D01*
X201048950Y-110679200D01*
X201207700Y-110520450D01*
X201207700Y-109296200D01*
X201461700Y-109296200D01*
X201461700Y-110520450D01*
X201620450Y-110679200D01*
X202047200Y-110682272D01*
X202171682Y-110670012D01*
X202291380Y-110633702D01*
X202401694Y-110574737D01*
X202498385Y-110495385D01*
X202577737Y-110398694D01*
X202636702Y-110288380D01*
X202673012Y-110168682D01*
X202685272Y-110044200D01*
X202682200Y-109454950D01*
X202523450Y-109296200D01*
X201461700Y-109296200D01*
X201207700Y-109296200D01*
X201187700Y-109296200D01*
X201187700Y-109042200D01*
X201207700Y-109042200D01*
X201207700Y-107817950D01*
X201461700Y-107817950D01*
X201461700Y-109042200D01*
X202523450Y-109042200D01*
X202682200Y-108883450D01*
X202685272Y-108294200D01*
X202673012Y-108169718D01*
X202636702Y-108050020D01*
X202577737Y-107939706D01*
X202498385Y-107843015D01*
X202401694Y-107763663D01*
X202291380Y-107704698D01*
X202171682Y-107668388D01*
X202047200Y-107656128D01*
X201620450Y-107659200D01*
X201461700Y-107817950D01*
X201207700Y-107817950D01*
X201048950Y-107659200D01*
X200622200Y-107656128D01*
X200497718Y-107668388D01*
X200378020Y-107704698D01*
X200267706Y-107763663D01*
X200171015Y-107843015D01*
X200091663Y-107939706D01*
X200032698Y-108050020D01*
X199996388Y-108169718D01*
X199989880Y-108235800D01*
X199796061Y-108235800D01*
X199660398Y-108262785D01*
X199642672Y-108204350D01*
X199560605Y-108050814D01*
X199450162Y-107916238D01*
X199315586Y-107805795D01*
X199162050Y-107723728D01*
X198995454Y-107673192D01*
X198822200Y-107656128D01*
X197897200Y-107656128D01*
X197723946Y-107673192D01*
X197557350Y-107723728D01*
X197403814Y-107805795D01*
X197269238Y-107916238D01*
X197158795Y-108050814D01*
X197076728Y-108204350D01*
X197026192Y-108370946D01*
X197009128Y-108544200D01*
X189012609Y-108544200D01*
X189109601Y-108464601D01*
X189133404Y-108435597D01*
X191936802Y-105632200D01*
X191998939Y-105632200D01*
X192198898Y-105592426D01*
X192387256Y-105514405D01*
X192556774Y-105401137D01*
X192700937Y-105256974D01*
X192814205Y-105087456D01*
X192892226Y-104899098D01*
X192932000Y-104699139D01*
X192932000Y-104513072D01*
X193487500Y-104513072D01*
X193660754Y-104496008D01*
X193827350Y-104445472D01*
X193980886Y-104363405D01*
X194115462Y-104252962D01*
X194225905Y-104118386D01*
X194307972Y-103964850D01*
X194335227Y-103875000D01*
X194649428Y-103875000D01*
X194661688Y-103999482D01*
X194697998Y-104119180D01*
X194756963Y-104229494D01*
X194836315Y-104326185D01*
X194933006Y-104405537D01*
X195043320Y-104464502D01*
X195163018Y-104500812D01*
X195287500Y-104513072D01*
X195714250Y-104510000D01*
X195873000Y-104351250D01*
X195873000Y-103127000D01*
X196127000Y-103127000D01*
X196127000Y-104351250D01*
X196285750Y-104510000D01*
X196712500Y-104513072D01*
X196836982Y-104500812D01*
X196956680Y-104464502D01*
X197066994Y-104405537D01*
X197163685Y-104326185D01*
X197243037Y-104229494D01*
X197302002Y-104119180D01*
X197338312Y-103999482D01*
X197350572Y-103875000D01*
X197347500Y-103285750D01*
X197188750Y-103127000D01*
X196127000Y-103127000D01*
X195873000Y-103127000D01*
X194811250Y-103127000D01*
X194652500Y-103285750D01*
X194649428Y-103875000D01*
X194335227Y-103875000D01*
X194358508Y-103798254D01*
X194375572Y-103625000D01*
X194375572Y-102375000D01*
X194358508Y-102201746D01*
X194335228Y-102125000D01*
X194649428Y-102125000D01*
X194652500Y-102714250D01*
X194811250Y-102873000D01*
X195873000Y-102873000D01*
X195873000Y-101648750D01*
X196127000Y-101648750D01*
X196127000Y-102873000D01*
X197188750Y-102873000D01*
X197347500Y-102714250D01*
X197350572Y-102125000D01*
X197338312Y-102000518D01*
X197302002Y-101880820D01*
X197243037Y-101770506D01*
X197163685Y-101673815D01*
X197066994Y-101594463D01*
X196956680Y-101535498D01*
X196836982Y-101499188D01*
X196712500Y-101486928D01*
X196285750Y-101490000D01*
X196127000Y-101648750D01*
X195873000Y-101648750D01*
X195714250Y-101490000D01*
X195287500Y-101486928D01*
X195163018Y-101499188D01*
X195043320Y-101535498D01*
X194933006Y-101594463D01*
X194836315Y-101673815D01*
X194756963Y-101770506D01*
X194697998Y-101880820D01*
X194661688Y-102000518D01*
X194649428Y-102125000D01*
X194335228Y-102125000D01*
X194307972Y-102035150D01*
X194225905Y-101881614D01*
X194115462Y-101747038D01*
X193980886Y-101636595D01*
X193827350Y-101554528D01*
X193660754Y-101503992D01*
X193487500Y-101486928D01*
X192779600Y-101486928D01*
X192779600Y-101358361D01*
X192739826Y-101158402D01*
X192661805Y-100970044D01*
X192548537Y-100800526D01*
X192404374Y-100656363D01*
X192234856Y-100543095D01*
X192046498Y-100465074D01*
X191846539Y-100425300D01*
X191642661Y-100425300D01*
X191442702Y-100465074D01*
X191254344Y-100543095D01*
X191084826Y-100656363D01*
X190940663Y-100800526D01*
X190827395Y-100970044D01*
X190749374Y-101158402D01*
X190709600Y-101358361D01*
X190709600Y-101562239D01*
X190749374Y-101762198D01*
X190827395Y-101950556D01*
X190940663Y-102120074D01*
X191084826Y-102264237D01*
X191254344Y-102377505D01*
X191379578Y-102429379D01*
X191674428Y-102724229D01*
X191674428Y-103586195D01*
X191595102Y-103601974D01*
X191406744Y-103679995D01*
X191237226Y-103793263D01*
X191093063Y-103937426D01*
X190979795Y-104106944D01*
X190901774Y-104295302D01*
X190862000Y-104495261D01*
X190862000Y-104557398D01*
X188254799Y-107164600D01*
X185869711Y-107164600D01*
X185825774Y-107120663D01*
X185656256Y-107007395D01*
X185467898Y-106929374D01*
X185267939Y-106889600D01*
X185064061Y-106889600D01*
X184864102Y-106929374D01*
X184675744Y-107007395D01*
X184506226Y-107120663D01*
X184362063Y-107264826D01*
X184248795Y-107434344D01*
X184170774Y-107622702D01*
X184131000Y-107822661D01*
X181760400Y-107822661D01*
X181760400Y-100494322D01*
X181764076Y-100456999D01*
X181760400Y-100419676D01*
X181760400Y-100419667D01*
X181749403Y-100308014D01*
X181721258Y-100215232D01*
X181759498Y-100207626D01*
X181947856Y-100129605D01*
X182117374Y-100016337D01*
X182261537Y-99872174D01*
X182374805Y-99702656D01*
X182452826Y-99514298D01*
X182492600Y-99314339D01*
X182492600Y-99110461D01*
X182452826Y-98910502D01*
X182374805Y-98722144D01*
X182261537Y-98552626D01*
X182149696Y-98440785D01*
X182154792Y-98424380D01*
X182155060Y-98421833D01*
X182155803Y-98419384D01*
X182162898Y-98347344D01*
X182170459Y-98275495D01*
X182169123Y-98260936D01*
X182170476Y-98247201D01*
X182166800Y-98209878D01*
X182166800Y-98209868D01*
X182155803Y-98098215D01*
X182112346Y-97954954D01*
X182102869Y-97937224D01*
X182041774Y-97822924D01*
X181946801Y-97707199D01*
X181831076Y-97612226D01*
X181798196Y-97594651D01*
X181699047Y-97541654D01*
X181675839Y-97534614D01*
X181284776Y-97269521D01*
X181234393Y-97232888D01*
X181188939Y-97211914D01*
X181144949Y-97188022D01*
X181121123Y-97180620D01*
X181098461Y-97170163D01*
X181049788Y-97158459D01*
X181001982Y-97143608D01*
X180977162Y-97140996D01*
X180952903Y-97135163D01*
X180902880Y-97133180D01*
X180853097Y-97127941D01*
X180791060Y-97133633D01*
X175898498Y-97420410D01*
X175883400Y-97418923D01*
X175823920Y-97424781D01*
X175801662Y-97426086D01*
X175786752Y-97428442D01*
X175734414Y-97433597D01*
X175712972Y-97440101D01*
X175690843Y-97443598D01*
X175641501Y-97461781D01*
X175591154Y-97477053D01*
X175571390Y-97487617D01*
X175550371Y-97495363D01*
X175505517Y-97522828D01*
X175459124Y-97547626D01*
X175441802Y-97561841D01*
X175422697Y-97573540D01*
X175384070Y-97609221D01*
X175372398Y-97618800D01*
X175356627Y-97634571D01*
X175312728Y-97675122D01*
X175303808Y-97687390D01*
X175169398Y-97821800D01*
X175107261Y-97821800D01*
X174907302Y-97861574D01*
X174718944Y-97939595D01*
X174549426Y-98052863D01*
X174405263Y-98197026D01*
X174291995Y-98366544D01*
X174213974Y-98554902D01*
X174174200Y-98754861D01*
X174174200Y-98958739D01*
X174213974Y-99158698D01*
X174226526Y-99189000D01*
X173257652Y-99189000D01*
X173180005Y-99001544D01*
X173066737Y-98832026D01*
X172922574Y-98687863D01*
X172753056Y-98574595D01*
X172564698Y-98496574D01*
X172364739Y-98456800D01*
X172160861Y-98456800D01*
X171960902Y-98496574D01*
X171772544Y-98574595D01*
X171603026Y-98687863D01*
X171458863Y-98832026D01*
X171345595Y-99001544D01*
X171270200Y-99183562D01*
X171270200Y-97887050D01*
X171278801Y-97885339D01*
X171758341Y-97686707D01*
X172189915Y-97398338D01*
X172556938Y-97031315D01*
X172845307Y-96599741D01*
X173043939Y-96120201D01*
X173145200Y-95611125D01*
X173145200Y-95261261D01*
X183034740Y-95261261D01*
X183034740Y-95465139D01*
X183074514Y-95665098D01*
X183152535Y-95853456D01*
X183265803Y-96022974D01*
X183409966Y-96167137D01*
X183579484Y-96280405D01*
X183740499Y-96347100D01*
X186233398Y-98840000D01*
X185126511Y-98840000D01*
X185082574Y-98796063D01*
X184913056Y-98682795D01*
X184724698Y-98604774D01*
X184524739Y-98565000D01*
X184320861Y-98565000D01*
X184120902Y-98604774D01*
X183932544Y-98682795D01*
X183763026Y-98796063D01*
X183618863Y-98940226D01*
X183505595Y-99109744D01*
X183427574Y-99298102D01*
X183387800Y-99498061D01*
X183387800Y-99701939D01*
X183427574Y-99901898D01*
X183505595Y-100090256D01*
X183618863Y-100259774D01*
X183763026Y-100403937D01*
X183932544Y-100517205D01*
X184120902Y-100595226D01*
X184320861Y-100635000D01*
X184524739Y-100635000D01*
X184724698Y-100595226D01*
X184913056Y-100517205D01*
X185082574Y-100403937D01*
X185126511Y-100360000D01*
X188812289Y-100360000D01*
X188875026Y-100422737D01*
X189044544Y-100536005D01*
X189232902Y-100614026D01*
X189432861Y-100653800D01*
X189636739Y-100653800D01*
X189836698Y-100614026D01*
X190025056Y-100536005D01*
X190194574Y-100422737D01*
X190338737Y-100278574D01*
X190452005Y-100109056D01*
X190530026Y-99920698D01*
X190569800Y-99720739D01*
X190569800Y-99516861D01*
X190566530Y-99500424D01*
X190688975Y-99434975D01*
X190735857Y-99396500D01*
X190805139Y-99396500D01*
X191005098Y-99356726D01*
X191193456Y-99278705D01*
X191362974Y-99165437D01*
X191507137Y-99021274D01*
X191620405Y-98851756D01*
X191698426Y-98663398D01*
X191738200Y-98463439D01*
X191738200Y-98259561D01*
X191698426Y-98059602D01*
X191620405Y-97871244D01*
X191507137Y-97701726D01*
X191362974Y-97557563D01*
X191193456Y-97444295D01*
X191005098Y-97366274D01*
X190805139Y-97326500D01*
X190601261Y-97326500D01*
X190401302Y-97366274D01*
X190212944Y-97444295D01*
X190043426Y-97557563D01*
X189899263Y-97701726D01*
X189785995Y-97871244D01*
X189716093Y-98040001D01*
X188918800Y-98040001D01*
X188918800Y-97973061D01*
X188879026Y-97773102D01*
X188801005Y-97584744D01*
X188687737Y-97415226D01*
X188643800Y-97371289D01*
X188643800Y-95439722D01*
X188647476Y-95402399D01*
X188643800Y-95365076D01*
X188643800Y-95365067D01*
X188632803Y-95253414D01*
X188589346Y-95110153D01*
X188520447Y-94981254D01*
X188520447Y-94902108D01*
X188480673Y-94702149D01*
X188402652Y-94513791D01*
X188289384Y-94344273D01*
X188145221Y-94200110D01*
X187975703Y-94086842D01*
X187787345Y-94008821D01*
X187587386Y-93969047D01*
X187383508Y-93969047D01*
X187183549Y-94008821D01*
X186995191Y-94086842D01*
X186825673Y-94200110D01*
X186681510Y-94344273D01*
X186568242Y-94513791D01*
X186490221Y-94702149D01*
X186450447Y-94902108D01*
X186450447Y-95105986D01*
X186490221Y-95305945D01*
X186568242Y-95494303D01*
X186681510Y-95663821D01*
X186825673Y-95807984D01*
X186995191Y-95921252D01*
X187123801Y-95974524D01*
X187123800Y-97371289D01*
X187079863Y-97415226D01*
X187031143Y-97488141D01*
X185088713Y-95545712D01*
X185104740Y-95465139D01*
X185104740Y-95261261D01*
X185064966Y-95061302D01*
X184986945Y-94872944D01*
X184873677Y-94703426D01*
X184729514Y-94559263D01*
X184559996Y-94445995D01*
X184371638Y-94367974D01*
X184171679Y-94328200D01*
X183967801Y-94328200D01*
X183767842Y-94367974D01*
X183579484Y-94445995D01*
X183409966Y-94559263D01*
X183265803Y-94703426D01*
X183152535Y-94872944D01*
X183074514Y-95061302D01*
X183034740Y-95261261D01*
X173145200Y-95261261D01*
X173145200Y-95092075D01*
X173043939Y-94582999D01*
X172845307Y-94103459D01*
X172556938Y-93671885D01*
X172189915Y-93304862D01*
X171758341Y-93016493D01*
X171278801Y-92817861D01*
X170769725Y-92716600D01*
X170250675Y-92716600D01*
X169741599Y-92817861D01*
X169262059Y-93016493D01*
X168830485Y-93304862D01*
X168463462Y-93671885D01*
X168175093Y-94103459D01*
X167976461Y-94582999D01*
X167875200Y-95092075D01*
X167875200Y-95611125D01*
X167976461Y-96120201D01*
X168175093Y-96599741D01*
X168463462Y-97031315D01*
X168830485Y-97398338D01*
X169262059Y-97686707D01*
X169741599Y-97885339D01*
X169750200Y-97887050D01*
X169750201Y-100391728D01*
X168904700Y-100391728D01*
X168731446Y-100408792D01*
X168564850Y-100459328D01*
X168411314Y-100541395D01*
X168276738Y-100651838D01*
X168166295Y-100786414D01*
X168089974Y-100929200D01*
X168046739Y-100920600D01*
X167842861Y-100920600D01*
X167734147Y-100942224D01*
X167730512Y-100905318D01*
X167694202Y-100785620D01*
X167635237Y-100675306D01*
X167555885Y-100578615D01*
X167459194Y-100499263D01*
X167348880Y-100440298D01*
X167229182Y-100403988D01*
X167104700Y-100391728D01*
X166677950Y-100394800D01*
X166519200Y-100553550D01*
X166265200Y-100553550D01*
X166106450Y-100394800D01*
X165679700Y-100391728D01*
X165555218Y-100403988D01*
X165435520Y-100440298D01*
X165325206Y-100499263D01*
X165228515Y-100578615D01*
X165149163Y-100675306D01*
X165090198Y-100785620D01*
X165053888Y-100905318D01*
X165041628Y-101029800D01*
X162579834Y-101029800D01*
X164356139Y-98494061D01*
X164381425Y-98463250D01*
X164408645Y-98412325D01*
X164436974Y-98362022D01*
X164439256Y-98355055D01*
X164442710Y-98348593D01*
X164459474Y-98293332D01*
X164477443Y-98238472D01*
X164478321Y-98231201D01*
X164480450Y-98224183D01*
X164486114Y-98166677D01*
X164493031Y-98109402D01*
X164492474Y-98102101D01*
X164493193Y-98094800D01*
X164487529Y-98037290D01*
X164483140Y-97979770D01*
X164481169Y-97972717D01*
X164480450Y-97965417D01*
X164463680Y-97910133D01*
X164448149Y-97854559D01*
X164444838Y-97848023D01*
X164442710Y-97841007D01*
X164415469Y-97790042D01*
X164389402Y-97738581D01*
X164384884Y-97732822D01*
X164381425Y-97726350D01*
X164344766Y-97681681D01*
X164309159Y-97636291D01*
X164303600Y-97631520D01*
X164298948Y-97625852D01*
X164254275Y-97589189D01*
X164210500Y-97551622D01*
X164204123Y-97548030D01*
X164198450Y-97543375D01*
X164147487Y-97516135D01*
X164097220Y-97487826D01*
X164090258Y-97485546D01*
X164083793Y-97482090D01*
X164028512Y-97465320D01*
X163973671Y-97447357D01*
X163966401Y-97446479D01*
X163959383Y-97444350D01*
X163901873Y-97438686D01*
X163844601Y-97431769D01*
X163804877Y-97434800D01*
X163116959Y-97434800D01*
X166607028Y-92452600D01*
X180062028Y-92452600D01*
X180074288Y-92577082D01*
X180110598Y-92696780D01*
X180169563Y-92807094D01*
X180248915Y-92903785D01*
X180345606Y-92983137D01*
X180455920Y-93042102D01*
X180575618Y-93078412D01*
X180700100Y-93090672D01*
X181126850Y-93087600D01*
X181285600Y-92928850D01*
X181285600Y-91704600D01*
X180223850Y-91704600D01*
X180065100Y-91863350D01*
X180062028Y-92452600D01*
X166607028Y-92452600D01*
X167832916Y-90702600D01*
X180062028Y-90702600D01*
X180065100Y-91291850D01*
X180223850Y-91450600D01*
X181285600Y-91450600D01*
X181285600Y-90226350D01*
X181539600Y-90226350D01*
X181539600Y-91450600D01*
X181559600Y-91450600D01*
X181559600Y-91704600D01*
X181539600Y-91704600D01*
X181539600Y-92928850D01*
X181698350Y-93087600D01*
X182125100Y-93090672D01*
X182249582Y-93078412D01*
X182369280Y-93042102D01*
X182479594Y-92983137D01*
X182576285Y-92903785D01*
X182655637Y-92807094D01*
X182714602Y-92696780D01*
X182735648Y-92627400D01*
X182931139Y-92627400D01*
X183128998Y-92588044D01*
X183186695Y-92695986D01*
X183297138Y-92830562D01*
X183431714Y-92941005D01*
X183585250Y-93023072D01*
X183751846Y-93073608D01*
X183925100Y-93090672D01*
X184850100Y-93090672D01*
X185023354Y-93073608D01*
X185189950Y-93023072D01*
X185343486Y-92941005D01*
X185478062Y-92830562D01*
X185588505Y-92695986D01*
X185670572Y-92542450D01*
X185721108Y-92375854D01*
X185738172Y-92202600D01*
X185738172Y-90952600D01*
X185721108Y-90779346D01*
X185670572Y-90612750D01*
X185588505Y-90459214D01*
X185478062Y-90324638D01*
X185343486Y-90214195D01*
X185189950Y-90132128D01*
X185023354Y-90081592D01*
X184850100Y-90064528D01*
X183925100Y-90064528D01*
X183751846Y-90081592D01*
X183585250Y-90132128D01*
X183431714Y-90214195D01*
X183297138Y-90324638D01*
X183186695Y-90459214D01*
X183114697Y-90593912D01*
X182931139Y-90557400D01*
X182744627Y-90557400D01*
X182714602Y-90458420D01*
X182655637Y-90348106D01*
X182576285Y-90251415D01*
X182479594Y-90172063D01*
X182369280Y-90113098D01*
X182249582Y-90076788D01*
X182125100Y-90064528D01*
X181698350Y-90067600D01*
X181539600Y-90226350D01*
X181285600Y-90226350D01*
X181126850Y-90067600D01*
X180700100Y-90064528D01*
X180575618Y-90076788D01*
X180455920Y-90113098D01*
X180345606Y-90172063D01*
X180248915Y-90251415D01*
X180169563Y-90348106D01*
X180110598Y-90458420D01*
X180074288Y-90578118D01*
X180062028Y-90702600D01*
X167832916Y-90702600D01*
X169390084Y-88479688D01*
X169419661Y-88441753D01*
X169441886Y-88397549D01*
X169466174Y-88354422D01*
X169471042Y-88339560D01*
X169478061Y-88325600D01*
X169491236Y-88277908D01*
X169506643Y-88230872D01*
X169508517Y-88215355D01*
X169512680Y-88200286D01*
X169516299Y-88150921D01*
X169522231Y-88101802D01*
X169521042Y-88086218D01*
X169522185Y-88070626D01*
X169516104Y-88021506D01*
X169512340Y-87972170D01*
X169508134Y-87957119D01*
X169506213Y-87941602D01*
X169490667Y-87894617D01*
X169477349Y-87846959D01*
X169470284Y-87833012D01*
X169465375Y-87818174D01*
X169440960Y-87775120D01*
X169418602Y-87730981D01*
X169408959Y-87718688D01*
X169401244Y-87705084D01*
X169368897Y-87667619D01*
X169338359Y-87628691D01*
X169326496Y-87618510D01*
X169316281Y-87606679D01*
X169277245Y-87576243D01*
X169239700Y-87544022D01*
X169226086Y-87536355D01*
X169213753Y-87526739D01*
X169169531Y-87504505D01*
X169126420Y-87480226D01*
X169111564Y-87475360D01*
X169097600Y-87468339D01*
X169049899Y-87455161D01*
X169002871Y-87439757D01*
X168987356Y-87437883D01*
X168972286Y-87433720D01*
X168922912Y-87430100D01*
X168873801Y-87424169D01*
X168825851Y-87427828D01*
X168114256Y-87445618D01*
X169208929Y-85875000D01*
X171674428Y-85875000D01*
X171686688Y-85999482D01*
X171722998Y-86119180D01*
X171781963Y-86229494D01*
X171861315Y-86326185D01*
X171958006Y-86405537D01*
X172068320Y-86464502D01*
X172188018Y-86500812D01*
X172312500Y-86513072D01*
X172739250Y-86510000D01*
X172898000Y-86351250D01*
X172898000Y-85127000D01*
X171836250Y-85127000D01*
X171677500Y-85285750D01*
X171674428Y-85875000D01*
X169208929Y-85875000D01*
X170428625Y-84125000D01*
X171674428Y-84125000D01*
X171677500Y-84714250D01*
X171836250Y-84873000D01*
X172898000Y-84873000D01*
X172898000Y-83648750D01*
X173152000Y-83648750D01*
X173152000Y-84873000D01*
X173172000Y-84873000D01*
X173172000Y-85127000D01*
X173152000Y-85127000D01*
X173152000Y-86351250D01*
X173310750Y-86510000D01*
X173737500Y-86513072D01*
X173861982Y-86500812D01*
X173981680Y-86464502D01*
X174091994Y-86405537D01*
X174188685Y-86326185D01*
X174268037Y-86229494D01*
X174327002Y-86119180D01*
X174358333Y-86015895D01*
X174396061Y-86023400D01*
X174599939Y-86023400D01*
X174734064Y-85996721D01*
X174799095Y-86118386D01*
X174909538Y-86252962D01*
X175044114Y-86363405D01*
X175197650Y-86445472D01*
X175364246Y-86496008D01*
X175537500Y-86513072D01*
X176462500Y-86513072D01*
X176635754Y-86496008D01*
X176802350Y-86445472D01*
X176955886Y-86363405D01*
X177090462Y-86252962D01*
X177200905Y-86118386D01*
X177282972Y-85964850D01*
X177333508Y-85798254D01*
X177350572Y-85625000D01*
X177350572Y-84375000D01*
X177333508Y-84201746D01*
X177282972Y-84035150D01*
X177200905Y-83881614D01*
X177090462Y-83747038D01*
X176955886Y-83636595D01*
X176802350Y-83554528D01*
X176635754Y-83503992D01*
X176462500Y-83486928D01*
X175537500Y-83486928D01*
X175364246Y-83503992D01*
X175197650Y-83554528D01*
X175044114Y-83636595D01*
X174909538Y-83747038D01*
X174799095Y-83881614D01*
X174745273Y-83982308D01*
X174599939Y-83953400D01*
X174396061Y-83953400D01*
X174351696Y-83962225D01*
X174327002Y-83880820D01*
X174268037Y-83770506D01*
X174188685Y-83673815D01*
X174091994Y-83594463D01*
X173981680Y-83535498D01*
X173861982Y-83499188D01*
X173737500Y-83486928D01*
X173310750Y-83490000D01*
X173152000Y-83648750D01*
X172898000Y-83648750D01*
X172739250Y-83490000D01*
X172312500Y-83486928D01*
X172188018Y-83499188D01*
X172068320Y-83535498D01*
X171958006Y-83594463D01*
X171861315Y-83673815D01*
X171781963Y-83770506D01*
X171722998Y-83880820D01*
X171686688Y-84000518D01*
X171674428Y-84125000D01*
X170428625Y-84125000D01*
X170951352Y-83375000D01*
X185161928Y-83375000D01*
X185161928Y-84625000D01*
X185178992Y-84798254D01*
X185229528Y-84964850D01*
X185311595Y-85118386D01*
X185422038Y-85252962D01*
X185556614Y-85363405D01*
X185710150Y-85445472D01*
X185876746Y-85496008D01*
X186050000Y-85513072D01*
X186975000Y-85513072D01*
X187148254Y-85496008D01*
X187314850Y-85445472D01*
X187468386Y-85363405D01*
X187602962Y-85252962D01*
X187713405Y-85118386D01*
X187795472Y-84964850D01*
X187801394Y-84945328D01*
X187858061Y-84956600D01*
X188061939Y-84956600D01*
X188143369Y-84940403D01*
X188149188Y-84999482D01*
X188185498Y-85119180D01*
X188244463Y-85229494D01*
X188323815Y-85326185D01*
X188420506Y-85405537D01*
X188530820Y-85464502D01*
X188650518Y-85500812D01*
X188775000Y-85513072D01*
X189201750Y-85510000D01*
X189360500Y-85351250D01*
X189360500Y-84127000D01*
X189614500Y-84127000D01*
X189614500Y-85351250D01*
X189773250Y-85510000D01*
X190200000Y-85513072D01*
X190324482Y-85500812D01*
X190444180Y-85464502D01*
X190554494Y-85405537D01*
X190651185Y-85326185D01*
X190730537Y-85229494D01*
X190789502Y-85119180D01*
X190825812Y-84999482D01*
X190838072Y-84875000D01*
X190835000Y-84285750D01*
X190676250Y-84127000D01*
X189614500Y-84127000D01*
X189360500Y-84127000D01*
X189340500Y-84127000D01*
X189340500Y-83873000D01*
X189360500Y-83873000D01*
X189360500Y-82648750D01*
X189614500Y-82648750D01*
X189614500Y-83873000D01*
X190676250Y-83873000D01*
X190835000Y-83714250D01*
X190838072Y-83125000D01*
X190825812Y-83000518D01*
X190789502Y-82880820D01*
X190730537Y-82770506D01*
X190651185Y-82673815D01*
X190554494Y-82594463D01*
X190444180Y-82535498D01*
X190324482Y-82499188D01*
X190200000Y-82486928D01*
X189773250Y-82490000D01*
X189614500Y-82648750D01*
X189360500Y-82648750D01*
X189201750Y-82490000D01*
X188775000Y-82486928D01*
X188650518Y-82499188D01*
X188530820Y-82535498D01*
X188420506Y-82594463D01*
X188323815Y-82673815D01*
X188244463Y-82770506D01*
X188185498Y-82880820D01*
X188176813Y-82909450D01*
X188061939Y-82886600D01*
X187858061Y-82886600D01*
X187729716Y-82912129D01*
X187713405Y-82881614D01*
X187602962Y-82747038D01*
X187468386Y-82636595D01*
X187314850Y-82554528D01*
X187148254Y-82503992D01*
X186975000Y-82486928D01*
X186050000Y-82486928D01*
X185876746Y-82503992D01*
X185710150Y-82554528D01*
X185556614Y-82636595D01*
X185422038Y-82747038D01*
X185311595Y-82881614D01*
X185229528Y-83035150D01*
X185178992Y-83201746D01*
X185161928Y-83375000D01*
X170951352Y-83375000D01*
X173082000Y-80317985D01*
X173082000Y-80340539D01*
X173121774Y-80540498D01*
X173199795Y-80728856D01*
X173313063Y-80898374D01*
X173457226Y-81042537D01*
X173626744Y-81155805D01*
X173815102Y-81233826D01*
X174015061Y-81273600D01*
X174218939Y-81273600D01*
X174418898Y-81233826D01*
X174607256Y-81155805D01*
X174776774Y-81042537D01*
X174920937Y-80898374D01*
X175034205Y-80728856D01*
X175112226Y-80540498D01*
X175152000Y-80340539D01*
X175152000Y-80278402D01*
X175320802Y-80109600D01*
X179277750Y-80109600D01*
X179279461Y-80118201D01*
X179478093Y-80597741D01*
X179766462Y-81029315D01*
X180133485Y-81396338D01*
X180565059Y-81684707D01*
X181044599Y-81883339D01*
X181553675Y-81984600D01*
X182072725Y-81984600D01*
X182581801Y-81883339D01*
X183061341Y-81684707D01*
X183492915Y-81396338D01*
X183859938Y-81029315D01*
X184148307Y-80597741D01*
X184346939Y-80118201D01*
X184448200Y-79609125D01*
X184448200Y-79090075D01*
X184346939Y-78580999D01*
X184148307Y-78101459D01*
X183859938Y-77669885D01*
X183492915Y-77302862D01*
X183061341Y-77014493D01*
X182581801Y-76815861D01*
X182072725Y-76714600D01*
X181553675Y-76714600D01*
X181044599Y-76815861D01*
X180565059Y-77014493D01*
X180133485Y-77302862D01*
X179766462Y-77669885D01*
X179478093Y-78101459D01*
X179279461Y-78580999D01*
X179277750Y-78589600D01*
X175043323Y-78589600D01*
X175006000Y-78585924D01*
X174968677Y-78589600D01*
X174968667Y-78589600D01*
X174857014Y-78600597D01*
X174713753Y-78644054D01*
X174581724Y-78714626D01*
X174465999Y-78809599D01*
X174442201Y-78838597D01*
X174077198Y-79203600D01*
X174015061Y-79203600D01*
X173833526Y-79239709D01*
X174364237Y-78478254D01*
X174389025Y-78448050D01*
X174416611Y-78396439D01*
X174445208Y-78345378D01*
X174447230Y-78339156D01*
X174450310Y-78333393D01*
X174467298Y-78277391D01*
X174485383Y-78221732D01*
X174486151Y-78215243D01*
X174488050Y-78208983D01*
X174493790Y-78150702D01*
X174500664Y-78092626D01*
X174500151Y-78086114D01*
X174500793Y-78079600D01*
X174495050Y-78021286D01*
X174490464Y-77963018D01*
X174488692Y-77956734D01*
X174488050Y-77950217D01*
X174471045Y-77894159D01*
X174455176Y-77837890D01*
X174452209Y-77832067D01*
X174450310Y-77825807D01*
X174422707Y-77774166D01*
X174396154Y-77722051D01*
X174392109Y-77716920D01*
X174389025Y-77711150D01*
X174351886Y-77665897D01*
X174315668Y-77619953D01*
X174310696Y-77615707D01*
X174306548Y-77610652D01*
X174261291Y-77573511D01*
X174216808Y-77535518D01*
X174211107Y-77532325D01*
X174206050Y-77528175D01*
X174154417Y-77500577D01*
X174103376Y-77471992D01*
X174097159Y-77469972D01*
X174091393Y-77466890D01*
X174035343Y-77449887D01*
X173979731Y-77431818D01*
X173973249Y-77431051D01*
X173966983Y-77429150D01*
X173908671Y-77423407D01*
X173850624Y-77416536D01*
X173811691Y-77419600D01*
X173021070Y-77419600D01*
X176042709Y-72375000D01*
X179674428Y-72375000D01*
X179674428Y-73625000D01*
X179691492Y-73798254D01*
X179742028Y-73964850D01*
X179824095Y-74118386D01*
X179934538Y-74252962D01*
X180069114Y-74363405D01*
X180222650Y-74445472D01*
X180389246Y-74496008D01*
X180562500Y-74513072D01*
X181487500Y-74513072D01*
X181660754Y-74496008D01*
X181827350Y-74445472D01*
X181980886Y-74363405D01*
X182115462Y-74252962D01*
X182225905Y-74118386D01*
X182297778Y-73983922D01*
X182324102Y-73994826D01*
X182524061Y-74034600D01*
X182672341Y-74034600D01*
X182697998Y-74119180D01*
X182756963Y-74229494D01*
X182836315Y-74326185D01*
X182933006Y-74405537D01*
X183043320Y-74464502D01*
X183163018Y-74500812D01*
X183287500Y-74513072D01*
X183714250Y-74510000D01*
X183873000Y-74351250D01*
X183873000Y-73127000D01*
X184127000Y-73127000D01*
X184127000Y-74351250D01*
X184285750Y-74510000D01*
X184712500Y-74513072D01*
X184836982Y-74500812D01*
X184956680Y-74464502D01*
X185066994Y-74405537D01*
X185163685Y-74326185D01*
X185243037Y-74229494D01*
X185302002Y-74119180D01*
X185338312Y-73999482D01*
X185350572Y-73875000D01*
X185347500Y-73285750D01*
X185188750Y-73127000D01*
X184127000Y-73127000D01*
X183873000Y-73127000D01*
X183853000Y-73127000D01*
X183853000Y-72873000D01*
X183873000Y-72873000D01*
X183873000Y-71648750D01*
X184127000Y-71648750D01*
X184127000Y-72873000D01*
X185188750Y-72873000D01*
X185347500Y-72714250D01*
X185350572Y-72125000D01*
X185338312Y-72000518D01*
X185302002Y-71880820D01*
X185243037Y-71770506D01*
X185163685Y-71673815D01*
X185066994Y-71594463D01*
X184956680Y-71535498D01*
X184836982Y-71499188D01*
X184712500Y-71486928D01*
X184285750Y-71490000D01*
X184127000Y-71648750D01*
X183873000Y-71648750D01*
X183714250Y-71490000D01*
X183287500Y-71486928D01*
X183163018Y-71499188D01*
X183043320Y-71535498D01*
X182933006Y-71594463D01*
X182836315Y-71673815D01*
X182756963Y-71770506D01*
X182697998Y-71880820D01*
X182672584Y-71964600D01*
X182524061Y-71964600D01*
X182324102Y-72004374D01*
X182297428Y-72015423D01*
X182225905Y-71881614D01*
X182115462Y-71747038D01*
X181980886Y-71636595D01*
X181827350Y-71554528D01*
X181660754Y-71503992D01*
X181487500Y-71486928D01*
X180562500Y-71486928D01*
X180389246Y-71503992D01*
X180222650Y-71554528D01*
X180069114Y-71636595D01*
X179934538Y-71747038D01*
X179824095Y-71881614D01*
X179742028Y-72035150D01*
X179691492Y-72201746D01*
X179674428Y-72375000D01*
X176042709Y-72375000D01*
X178391933Y-68452991D01*
X178402225Y-68440450D01*
X178425272Y-68397331D01*
X178433657Y-68383333D01*
X178440549Y-68368750D01*
X178463510Y-68325793D01*
X178468274Y-68310087D01*
X178475290Y-68295243D01*
X178487110Y-68247997D01*
X178501250Y-68201383D01*
X178502860Y-68185039D01*
X178506842Y-68169121D01*
X178509217Y-68120491D01*
X178513993Y-68072000D01*
X178512383Y-68055658D01*
X178513184Y-68039268D01*
X178506026Y-67991105D01*
X178501250Y-67942617D01*
X178496484Y-67926905D01*
X178494071Y-67910672D01*
X178477651Y-67864824D01*
X178463510Y-67818207D01*
X178455771Y-67803728D01*
X178450237Y-67788276D01*
X178425190Y-67746516D01*
X178402225Y-67703550D01*
X178391808Y-67690857D01*
X178383367Y-67676783D01*
X178350651Y-67640707D01*
X178319748Y-67603052D01*
X178307058Y-67592638D01*
X178296031Y-67580478D01*
X178256902Y-67551475D01*
X178219250Y-67520575D01*
X178204773Y-67512837D01*
X178191585Y-67503062D01*
X178147547Y-67482249D01*
X178104593Y-67459290D01*
X178088885Y-67454525D01*
X178074042Y-67447510D01*
X178026800Y-67435691D01*
X178024374Y-67434955D01*
X181668752Y-61725070D01*
X181702043Y-61674381D01*
X181715888Y-61640192D01*
X181732598Y-61607288D01*
X181740235Y-61580068D01*
X181750841Y-61553878D01*
X181757752Y-61517639D01*
X181767719Y-61482114D01*
X181769899Y-61453938D01*
X181775194Y-61426170D01*
X181774901Y-61389275D01*
X181777747Y-61352493D01*
X181774387Y-61324428D01*
X181774163Y-61296166D01*
X181766678Y-61260037D01*
X181762293Y-61223406D01*
X181753524Y-61196540D01*
X181747790Y-61168861D01*
X181733400Y-61134886D01*
X181721953Y-61099814D01*
X181708110Y-61075173D01*
X181697087Y-61049147D01*
X181676344Y-61018630D01*
X181658276Y-60986468D01*
X181639894Y-60965003D01*
X181624003Y-60941624D01*
X181621309Y-60938972D01*
X182364545Y-60938972D01*
X182356647Y-60950314D01*
%TA.AperFunction,Conductor*%
D19*
G36*
X182356647Y-60950314D02*
G01*
X182335224Y-60975490D01*
X182319590Y-61003526D01*
X182301243Y-61029872D01*
X182288007Y-61060165D01*
X182271906Y-61089038D01*
X182262041Y-61119589D01*
X182249188Y-61149005D01*
X182242115Y-61181300D01*
X182231958Y-61212757D01*
X182228243Y-61244642D01*
X182221375Y-61276003D01*
X182220739Y-61309057D01*
X182216913Y-61341892D01*
X182219490Y-61373889D01*
X182218872Y-61405986D01*
X182224696Y-61438527D01*
X182227350Y-61471480D01*
X182236121Y-61502363D01*
X182241776Y-61533961D01*
X182253836Y-61564738D01*
X182262868Y-61596542D01*
X182277497Y-61625124D01*
X182289207Y-61655009D01*
X182307036Y-61682837D01*
X182307260Y-61683275D01*
X182325038Y-61710935D01*
X182359341Y-61764477D01*
X182359670Y-61764819D01*
X185996427Y-67423185D01*
X185954017Y-67436050D01*
X185905632Y-67448347D01*
X185891935Y-67454883D01*
X185877407Y-67459290D01*
X185833354Y-67482837D01*
X185788297Y-67504337D01*
X185776141Y-67513417D01*
X185762750Y-67520575D01*
X185724133Y-67552268D01*
X185684140Y-67582142D01*
X185673989Y-67593420D01*
X185662252Y-67603052D01*
X185630561Y-67641668D01*
X185597164Y-67678771D01*
X185589409Y-67691811D01*
X185579775Y-67703550D01*
X185556226Y-67747607D01*
X185530710Y-67790512D01*
X185525647Y-67804817D01*
X185518490Y-67818207D01*
X185503987Y-67866016D01*
X185487333Y-67913071D01*
X185485159Y-67928084D01*
X185480750Y-67942617D01*
X185475854Y-67992332D01*
X185468698Y-68041738D01*
X185469495Y-68056894D01*
X185468007Y-68072000D01*
X185472902Y-68121705D01*
X185475524Y-68171565D01*
X185479262Y-68186272D01*
X185480750Y-68201383D01*
X185495250Y-68249183D01*
X185507547Y-68297568D01*
X185514083Y-68311265D01*
X185518490Y-68325793D01*
X185542038Y-68369848D01*
X185549508Y-68385503D01*
X185557302Y-68398406D01*
X185579775Y-68440450D01*
X185590854Y-68453950D01*
X191006652Y-77419600D01*
X190168404Y-77419600D01*
X190127547Y-77416622D01*
X190071401Y-77423597D01*
X190015017Y-77429150D01*
X190006916Y-77431607D01*
X189998531Y-77432649D01*
X189944812Y-77450447D01*
X189890607Y-77466890D01*
X189883148Y-77470877D01*
X189875119Y-77473537D01*
X189825891Y-77501481D01*
X189775950Y-77528175D01*
X189769409Y-77533543D01*
X189762056Y-77537717D01*
X189719227Y-77574726D01*
X189675452Y-77610652D01*
X189670086Y-77617191D01*
X189663686Y-77622721D01*
X189628910Y-77667363D01*
X189592975Y-77711150D01*
X189588984Y-77718617D01*
X189583791Y-77725283D01*
X189558400Y-77775837D01*
X189531690Y-77825807D01*
X189529233Y-77833906D01*
X189525439Y-77841460D01*
X189510396Y-77896003D01*
X189493950Y-77950217D01*
X189493120Y-77958641D01*
X189490873Y-77966789D01*
X189486760Y-78023222D01*
X189481207Y-78079600D01*
X189482037Y-78088022D01*
X189481422Y-78096453D01*
X189488397Y-78152598D01*
X189493950Y-78208983D01*
X189496407Y-78217084D01*
X189497449Y-78225469D01*
X189515247Y-78279188D01*
X189531690Y-78333393D01*
X189535677Y-78340852D01*
X189538337Y-78348881D01*
X189566277Y-78398100D01*
X189592975Y-78448050D01*
X189618977Y-78479734D01*
X195932163Y-87427200D01*
X195198732Y-87427200D01*
X195158999Y-87424168D01*
X195101702Y-87431088D01*
X195044217Y-87436750D01*
X195037199Y-87438879D01*
X195029929Y-87439757D01*
X194975088Y-87457720D01*
X194919807Y-87474490D01*
X194913342Y-87477946D01*
X194906380Y-87480226D01*
X194856089Y-87508548D01*
X194805150Y-87535775D01*
X194799483Y-87540426D01*
X194793099Y-87544021D01*
X194749298Y-87581612D01*
X194704652Y-87618252D01*
X194700001Y-87623920D01*
X194694441Y-87628691D01*
X194658826Y-87674090D01*
X194622175Y-87718750D01*
X194618717Y-87725219D01*
X194614198Y-87730980D01*
X194588122Y-87782460D01*
X194560890Y-87833407D01*
X194558762Y-87840421D01*
X194555451Y-87846958D01*
X194539918Y-87902540D01*
X194523150Y-87957817D01*
X194522431Y-87965117D01*
X194520460Y-87972170D01*
X194516069Y-88029712D01*
X194510407Y-88087200D01*
X194511126Y-88094495D01*
X194510568Y-88101801D01*
X194517488Y-88159097D01*
X194523150Y-88216583D01*
X194525279Y-88223601D01*
X194526157Y-88230871D01*
X194544120Y-88285712D01*
X194560890Y-88340993D01*
X194564346Y-88347458D01*
X194566626Y-88354420D01*
X194594945Y-88404707D01*
X194622175Y-88455650D01*
X194647464Y-88486464D01*
X200915840Y-97434800D01*
X200178259Y-97434800D01*
X200139662Y-97431722D01*
X200081218Y-97438578D01*
X200022617Y-97444350D01*
X200016687Y-97446149D01*
X200010540Y-97446870D01*
X199954551Y-97464998D01*
X199898207Y-97482090D01*
X199892746Y-97485009D01*
X199886853Y-97486917D01*
X199835491Y-97515612D01*
X199783550Y-97543375D01*
X199778757Y-97547309D01*
X199773356Y-97550326D01*
X199728593Y-97588478D01*
X199683052Y-97625852D01*
X199679121Y-97630642D01*
X199674409Y-97634658D01*
X199637948Y-97680812D01*
X199600575Y-97726350D01*
X199597652Y-97731819D01*
X199593817Y-97736673D01*
X199567062Y-97789049D01*
X199539290Y-97841007D01*
X199537491Y-97846937D01*
X199534675Y-97852450D01*
X199518654Y-97909032D01*
X199501550Y-97965417D01*
X199500942Y-97971590D01*
X199499257Y-97977541D01*
X199494582Y-98036170D01*
X199488807Y-98094800D01*
X199489414Y-98100965D01*
X199488922Y-98107138D01*
X199495778Y-98165581D01*
X199501550Y-98224183D01*
X199503349Y-98230113D01*
X199504070Y-98236260D01*
X199522198Y-98292249D01*
X199539290Y-98348593D01*
X199542209Y-98354054D01*
X199544117Y-98359947D01*
X199572814Y-98411313D01*
X199600575Y-98463250D01*
X199625149Y-98493193D01*
X205848708Y-107442400D01*
X205156659Y-107442400D01*
X205118062Y-107439322D01*
X205059618Y-107446178D01*
X205001017Y-107451950D01*
X204995087Y-107453749D01*
X204988940Y-107454470D01*
X204932951Y-107472598D01*
X204876607Y-107489690D01*
X204871146Y-107492609D01*
X204865253Y-107494517D01*
X204813891Y-107523212D01*
X204761950Y-107550975D01*
X204757157Y-107554909D01*
X204751756Y-107557926D01*
X204706993Y-107596078D01*
X204661452Y-107633452D01*
X204657521Y-107638242D01*
X204652809Y-107642258D01*
X204616348Y-107688412D01*
X204578975Y-107733950D01*
X204576052Y-107739419D01*
X204572217Y-107744273D01*
X204545462Y-107796649D01*
X204517690Y-107848607D01*
X204515891Y-107854537D01*
X204513075Y-107860050D01*
X204497054Y-107916632D01*
X204479950Y-107973017D01*
X204479342Y-107979190D01*
X204477657Y-107985141D01*
X204472982Y-108043770D01*
X204467207Y-108102400D01*
X204467814Y-108108565D01*
X204467322Y-108114738D01*
X204474178Y-108173181D01*
X204479950Y-108231783D01*
X204481749Y-108237713D01*
X204482470Y-108243860D01*
X204500598Y-108299849D01*
X204517690Y-108356193D01*
X204520609Y-108361654D01*
X204522517Y-108367547D01*
X204551214Y-108418913D01*
X204578975Y-108470850D01*
X204603549Y-108500793D01*
X210827108Y-117450000D01*
X195104419Y-117450000D01*
X195072000Y-117446807D01*
X195039581Y-117450000D01*
X194942617Y-117459550D01*
X194818207Y-117497290D01*
X194703550Y-117558575D01*
X194603052Y-117641052D01*
X194520575Y-117741550D01*
X194459290Y-117856207D01*
X194421550Y-117980617D01*
X194408807Y-118110000D01*
X194412001Y-118142429D01*
X194412000Y-132436000D01*
X170586000Y-132436000D01*
X170586000Y-127549647D01*
X173724300Y-127549647D01*
X173724300Y-127999753D01*
X173812111Y-128441210D01*
X173984359Y-128857053D01*
X174234425Y-129231303D01*
X174552697Y-129549575D01*
X174926947Y-129799641D01*
X175342790Y-129971889D01*
X175784247Y-130059700D01*
X176234353Y-130059700D01*
X176675810Y-129971889D01*
X177091653Y-129799641D01*
X177465903Y-129549575D01*
X177642343Y-129373135D01*
X187290470Y-129373135D01*
X187464523Y-129704054D01*
X187864840Y-129909825D01*
X188297608Y-130033546D01*
X188746198Y-130070459D01*
X189193370Y-130019149D01*
X189621939Y-129881585D01*
X189954077Y-129704054D01*
X190128130Y-129373135D01*
X188709300Y-127954305D01*
X187290470Y-129373135D01*
X177642343Y-129373135D01*
X177784175Y-129231303D01*
X178034241Y-128857053D01*
X178206489Y-128441210D01*
X178294300Y-127999753D01*
X178294300Y-127811598D01*
X186413541Y-127811598D01*
X186464851Y-128258770D01*
X186602415Y-128687339D01*
X186779946Y-129019477D01*
X187110865Y-129193530D01*
X188529695Y-127774700D01*
X188888905Y-127774700D01*
X190307735Y-129193530D01*
X190638654Y-129019477D01*
X190844425Y-128619160D01*
X190968146Y-128186392D01*
X191005059Y-127737802D01*
X190953749Y-127290630D01*
X190816185Y-126862061D01*
X190638654Y-126529923D01*
X190307735Y-126355870D01*
X188888905Y-127774700D01*
X188529695Y-127774700D01*
X187110865Y-126355870D01*
X186779946Y-126529923D01*
X186574175Y-126930240D01*
X186450454Y-127363008D01*
X186413541Y-127811598D01*
X178294300Y-127811598D01*
X178294300Y-127549647D01*
X178206489Y-127108190D01*
X178034241Y-126692347D01*
X177784175Y-126318097D01*
X177642343Y-126176265D01*
X187290470Y-126176265D01*
X188709300Y-127595095D01*
X190128130Y-126176265D01*
X189954077Y-125845346D01*
X189553760Y-125639575D01*
X189120992Y-125515854D01*
X188672402Y-125478941D01*
X188225230Y-125530251D01*
X187796661Y-125667815D01*
X187464523Y-125845346D01*
X187290470Y-126176265D01*
X177642343Y-126176265D01*
X177465903Y-125999825D01*
X177091653Y-125749759D01*
X176675810Y-125577511D01*
X176234353Y-125489700D01*
X175784247Y-125489700D01*
X175342790Y-125577511D01*
X174926947Y-125749759D01*
X174552697Y-125999825D01*
X174234425Y-126318097D01*
X173984359Y-126692347D01*
X173812111Y-127108190D01*
X173724300Y-127549647D01*
X170586000Y-127549647D01*
X170586000Y-123589840D01*
X175438700Y-123589840D01*
X175438700Y-123882360D01*
X175495768Y-124169258D01*
X175607710Y-124439511D01*
X175770225Y-124682732D01*
X175977068Y-124889575D01*
X176220289Y-125052090D01*
X176490542Y-125164032D01*
X176777440Y-125221100D01*
X177069960Y-125221100D01*
X177356858Y-125164032D01*
X177627111Y-125052090D01*
X177870332Y-124889575D01*
X178077175Y-124682732D01*
X178193700Y-124508340D01*
X178310225Y-124682732D01*
X178517068Y-124889575D01*
X178760289Y-125052090D01*
X179030542Y-125164032D01*
X179317440Y-125221100D01*
X179609960Y-125221100D01*
X179896858Y-125164032D01*
X180167111Y-125052090D01*
X180410332Y-124889575D01*
X180617175Y-124682732D01*
X180733700Y-124508340D01*
X180850225Y-124682732D01*
X181057068Y-124889575D01*
X181300289Y-125052090D01*
X181570542Y-125164032D01*
X181857440Y-125221100D01*
X182149960Y-125221100D01*
X182436858Y-125164032D01*
X182707111Y-125052090D01*
X182950332Y-124889575D01*
X183157175Y-124682732D01*
X183273700Y-124508340D01*
X183390225Y-124682732D01*
X183597068Y-124889575D01*
X183840289Y-125052090D01*
X184110542Y-125164032D01*
X184397440Y-125221100D01*
X184689960Y-125221100D01*
X184976858Y-125164032D01*
X185247111Y-125052090D01*
X185490332Y-124889575D01*
X185622187Y-124757720D01*
X185644198Y-124830280D01*
X185703163Y-124940594D01*
X185782515Y-125037285D01*
X185879206Y-125116637D01*
X185989520Y-125175602D01*
X186109218Y-125211912D01*
X186233700Y-125224172D01*
X186797950Y-125221100D01*
X186956700Y-125062350D01*
X186956700Y-123863100D01*
X187210700Y-123863100D01*
X187210700Y-125062350D01*
X187369450Y-125221100D01*
X187933700Y-125224172D01*
X188058182Y-125211912D01*
X188177880Y-125175602D01*
X188288194Y-125116637D01*
X188384885Y-125037285D01*
X188464237Y-124940594D01*
X188523202Y-124830280D01*
X188559512Y-124710582D01*
X188571772Y-124586100D01*
X188568700Y-124021850D01*
X188409950Y-123863100D01*
X187210700Y-123863100D01*
X186956700Y-123863100D01*
X186936700Y-123863100D01*
X186936700Y-123609100D01*
X186956700Y-123609100D01*
X186956700Y-122409850D01*
X187210700Y-122409850D01*
X187210700Y-123609100D01*
X188409950Y-123609100D01*
X188568700Y-123450350D01*
X188571772Y-122886100D01*
X188559512Y-122761618D01*
X188523202Y-122641920D01*
X188464237Y-122531606D01*
X188384885Y-122434915D01*
X188288194Y-122355563D01*
X188177880Y-122296598D01*
X188058182Y-122260288D01*
X187933700Y-122248028D01*
X187369450Y-122251100D01*
X187210700Y-122409850D01*
X186956700Y-122409850D01*
X186797950Y-122251100D01*
X186233700Y-122248028D01*
X186109218Y-122260288D01*
X185989520Y-122296598D01*
X185879206Y-122355563D01*
X185782515Y-122434915D01*
X185703163Y-122531606D01*
X185644198Y-122641920D01*
X185622187Y-122714480D01*
X185490332Y-122582625D01*
X185247111Y-122420110D01*
X184976858Y-122308168D01*
X184689960Y-122251100D01*
X184397440Y-122251100D01*
X184110542Y-122308168D01*
X183840289Y-122420110D01*
X183597068Y-122582625D01*
X183390225Y-122789468D01*
X183273700Y-122963860D01*
X183157175Y-122789468D01*
X182950332Y-122582625D01*
X182707111Y-122420110D01*
X182436858Y-122308168D01*
X182149960Y-122251100D01*
X181857440Y-122251100D01*
X181570542Y-122308168D01*
X181300289Y-122420110D01*
X181057068Y-122582625D01*
X180850225Y-122789468D01*
X180733700Y-122963860D01*
X180617175Y-122789468D01*
X180410332Y-122582625D01*
X180167111Y-122420110D01*
X179896858Y-122308168D01*
X179609960Y-122251100D01*
X179317440Y-122251100D01*
X179030542Y-122308168D01*
X178760289Y-122420110D01*
X178517068Y-122582625D01*
X178310225Y-122789468D01*
X178193700Y-122963860D01*
X178077175Y-122789468D01*
X177870332Y-122582625D01*
X177627111Y-122420110D01*
X177356858Y-122308168D01*
X177069960Y-122251100D01*
X176777440Y-122251100D01*
X176490542Y-122308168D01*
X176220289Y-122420110D01*
X175977068Y-122582625D01*
X175770225Y-122789468D01*
X175607710Y-123032689D01*
X175495768Y-123302942D01*
X175438700Y-123589840D01*
X170586000Y-123589840D01*
X170586000Y-118142419D01*
X170589193Y-118110000D01*
X170576450Y-117980617D01*
X170538710Y-117856207D01*
X170477425Y-117741550D01*
X170394948Y-117641052D01*
X170294450Y-117558575D01*
X170179793Y-117497290D01*
X170055383Y-117459550D01*
X169958419Y-117450000D01*
X169926000Y-117446807D01*
X169893581Y-117450000D01*
X153063836Y-117450000D01*
X154880714Y-114875000D01*
X159674428Y-114875000D01*
X159686688Y-114999482D01*
X159722998Y-115119180D01*
X159781963Y-115229494D01*
X159861315Y-115326185D01*
X159958006Y-115405537D01*
X160068320Y-115464502D01*
X160188018Y-115500812D01*
X160312500Y-115513072D01*
X160739250Y-115510000D01*
X160898000Y-115351250D01*
X160898000Y-114127000D01*
X159836250Y-114127000D01*
X159677500Y-114285750D01*
X159674428Y-114875000D01*
X154880714Y-114875000D01*
X156115485Y-113125000D01*
X159674428Y-113125000D01*
X159677500Y-113714250D01*
X159836250Y-113873000D01*
X160898000Y-113873000D01*
X160898000Y-112648750D01*
X161152000Y-112648750D01*
X161152000Y-113873000D01*
X161172000Y-113873000D01*
X161172000Y-114127000D01*
X161152000Y-114127000D01*
X161152000Y-115351250D01*
X161310750Y-115510000D01*
X161737500Y-115513072D01*
X161861982Y-115500812D01*
X161981680Y-115464502D01*
X162091994Y-115405537D01*
X162188685Y-115326185D01*
X162268037Y-115229494D01*
X162327002Y-115119180D01*
X162342492Y-115068117D01*
X162407261Y-115081000D01*
X162611139Y-115081000D01*
X162762969Y-115050799D01*
X162799095Y-115118386D01*
X162909538Y-115252962D01*
X163044114Y-115363405D01*
X163197650Y-115445472D01*
X163364246Y-115496008D01*
X163537500Y-115513072D01*
X164462500Y-115513072D01*
X164635754Y-115496008D01*
X164802350Y-115445472D01*
X164955886Y-115363405D01*
X165090462Y-115252962D01*
X165200905Y-115118386D01*
X165282972Y-114964850D01*
X165333508Y-114798254D01*
X165350572Y-114625000D01*
X165350572Y-113375000D01*
X165333508Y-113201746D01*
X165282972Y-113035150D01*
X165200905Y-112881614D01*
X165090462Y-112747038D01*
X164955886Y-112636595D01*
X164802350Y-112554528D01*
X164635754Y-112503992D01*
X164462500Y-112486928D01*
X163537500Y-112486928D01*
X163364246Y-112503992D01*
X163197650Y-112554528D01*
X163044114Y-112636595D01*
X162909538Y-112747038D01*
X162799095Y-112881614D01*
X162718520Y-113032359D01*
X162611139Y-113011000D01*
X162407261Y-113011000D01*
X162365169Y-113019373D01*
X162363312Y-113000518D01*
X162327002Y-112880820D01*
X162268037Y-112770506D01*
X162188685Y-112673815D01*
X162091994Y-112594463D01*
X161981680Y-112535498D01*
X161861982Y-112499188D01*
X161737500Y-112486928D01*
X161310750Y-112490000D01*
X161152000Y-112648750D01*
X160898000Y-112648750D01*
X160739250Y-112490000D01*
X160312500Y-112486928D01*
X160188018Y-112499188D01*
X160068320Y-112535498D01*
X159958006Y-112594463D01*
X159861315Y-112673815D01*
X159781963Y-112770506D01*
X159722998Y-112880820D01*
X159686688Y-113000518D01*
X159674428Y-113125000D01*
X156115485Y-113125000D01*
X159377027Y-108502528D01*
X159403025Y-108470850D01*
X159429714Y-108420918D01*
X159457255Y-108372400D01*
X160617128Y-108372400D01*
X160617128Y-110372400D01*
X160629388Y-110496882D01*
X160665698Y-110616580D01*
X160724663Y-110726894D01*
X160804015Y-110823585D01*
X160900706Y-110902937D01*
X161011020Y-110961902D01*
X161130718Y-110998212D01*
X161255200Y-111010472D01*
X163255200Y-111010472D01*
X163379682Y-110998212D01*
X163499380Y-110961902D01*
X163609694Y-110902937D01*
X163706385Y-110823585D01*
X163785737Y-110726894D01*
X163844702Y-110616580D01*
X163877696Y-110507813D01*
X168899392Y-110507813D01*
X168995156Y-110772214D01*
X169284771Y-110913104D01*
X169596308Y-110994784D01*
X169917795Y-111014118D01*
X170236875Y-110970361D01*
X170541288Y-110865195D01*
X170715244Y-110772214D01*
X170811008Y-110507813D01*
X169855200Y-109552005D01*
X168899392Y-110507813D01*
X163877696Y-110507813D01*
X163881012Y-110496882D01*
X163893272Y-110372400D01*
X163893272Y-109434995D01*
X168213482Y-109434995D01*
X168257239Y-109754075D01*
X168362405Y-110058488D01*
X168455386Y-110232444D01*
X168719787Y-110328208D01*
X169675595Y-109372400D01*
X168719787Y-108416592D01*
X168455386Y-108512356D01*
X168314496Y-108801971D01*
X168232816Y-109113508D01*
X168213482Y-109434995D01*
X163893272Y-109434995D01*
X163893272Y-108372400D01*
X163881012Y-108247918D01*
X163877697Y-108236987D01*
X168899392Y-108236987D01*
X169855200Y-109192795D01*
X170811008Y-108236987D01*
X170715244Y-107972586D01*
X170425629Y-107831696D01*
X170114092Y-107750016D01*
X169792605Y-107730682D01*
X169473525Y-107774439D01*
X169169112Y-107879605D01*
X168995156Y-107972586D01*
X168899392Y-108236987D01*
X163877697Y-108236987D01*
X163844702Y-108128220D01*
X163785737Y-108017906D01*
X163706385Y-107921215D01*
X163609694Y-107841863D01*
X163499380Y-107782898D01*
X163379682Y-107746588D01*
X163255200Y-107734328D01*
X161255200Y-107734328D01*
X161130718Y-107746588D01*
X161011020Y-107782898D01*
X160900706Y-107841863D01*
X160804015Y-107921215D01*
X160724663Y-108017906D01*
X160665698Y-108128220D01*
X160629388Y-108247918D01*
X160617128Y-108372400D01*
X159457255Y-108372400D01*
X159457663Y-108371682D01*
X159460324Y-108363650D01*
X159464310Y-108356193D01*
X159480747Y-108302007D01*
X159498551Y-108248271D01*
X159499593Y-108239882D01*
X159502050Y-108231783D01*
X159507603Y-108175405D01*
X159514578Y-108119254D01*
X159513963Y-108110823D01*
X159514793Y-108102400D01*
X159509240Y-108046021D01*
X159505127Y-107989589D01*
X159502880Y-107981441D01*
X159502050Y-107973017D01*
X159485604Y-107918803D01*
X159470561Y-107864260D01*
X159466767Y-107856706D01*
X159464310Y-107848607D01*
X159437600Y-107798637D01*
X159412209Y-107748083D01*
X159407016Y-107741417D01*
X159403025Y-107733950D01*
X159367090Y-107690163D01*
X159332314Y-107645521D01*
X159325914Y-107639991D01*
X159320548Y-107633452D01*
X159276773Y-107597526D01*
X159233944Y-107560517D01*
X159226591Y-107556343D01*
X159220050Y-107550975D01*
X159170099Y-107524276D01*
X159120880Y-107496337D01*
X159112854Y-107493678D01*
X159105393Y-107489690D01*
X159051183Y-107473245D01*
X158997469Y-107455449D01*
X158989084Y-107454407D01*
X158980983Y-107451950D01*
X158924599Y-107446397D01*
X158868453Y-107439422D01*
X158827596Y-107442400D01*
X158087759Y-107442400D01*
X161353946Y-102779800D01*
X165041628Y-102779800D01*
X165053888Y-102904282D01*
X165090198Y-103023980D01*
X165149163Y-103134294D01*
X165228515Y-103230985D01*
X165325206Y-103310337D01*
X165435520Y-103369302D01*
X165555218Y-103405612D01*
X165679700Y-103417872D01*
X166106450Y-103414800D01*
X166265200Y-103256050D01*
X166265200Y-102031800D01*
X165203450Y-102031800D01*
X165044700Y-102190550D01*
X165041628Y-102779800D01*
X161353946Y-102779800D01*
X162579834Y-101029800D01*
X165041628Y-101029800D01*
X165044700Y-101619050D01*
X165203450Y-101777800D01*
X166265200Y-101777800D01*
X166265200Y-100553550D01*
X166519200Y-100553550D01*
X166519200Y-101777800D01*
X166539200Y-101777800D01*
X166539200Y-102031800D01*
X166519200Y-102031800D01*
X166519200Y-103256050D01*
X166677950Y-103414800D01*
X167104700Y-103417872D01*
X167229182Y-103405612D01*
X167348880Y-103369302D01*
X167459194Y-103310337D01*
X167555885Y-103230985D01*
X167635237Y-103134294D01*
X167694202Y-103023980D01*
X167712211Y-102964612D01*
X167842861Y-102990600D01*
X168046739Y-102990600D01*
X168139062Y-102972236D01*
X168166295Y-103023186D01*
X168276738Y-103157762D01*
X168411314Y-103268205D01*
X168564850Y-103350272D01*
X168731446Y-103400808D01*
X168904700Y-103417872D01*
X169829700Y-103417872D01*
X170002954Y-103400808D01*
X170169550Y-103350272D01*
X170323086Y-103268205D01*
X170457662Y-103157762D01*
X170568105Y-103023186D01*
X170650172Y-102869650D01*
X170700708Y-102703054D01*
X170717772Y-102529800D01*
X170717772Y-101872575D01*
X172061600Y-103216404D01*
X172061601Y-106464868D01*
X172057924Y-106502200D01*
X172072598Y-106651185D01*
X172077538Y-106667469D01*
X171910102Y-106700774D01*
X171721744Y-106778795D01*
X171552226Y-106892063D01*
X171408063Y-107036226D01*
X171294795Y-107205744D01*
X171216774Y-107394102D01*
X171177000Y-107594061D01*
X171177000Y-107797939D01*
X171216774Y-107997898D01*
X171294795Y-108186256D01*
X171408063Y-108355774D01*
X171452000Y-108399711D01*
X171452000Y-108987365D01*
X171347995Y-108686312D01*
X171255014Y-108512356D01*
X170990613Y-108416592D01*
X170034805Y-109372400D01*
X170990613Y-110328208D01*
X171255014Y-110232444D01*
X171395904Y-109942829D01*
X171452000Y-109728871D01*
X171452001Y-112783266D01*
X171448324Y-112820598D01*
X171462998Y-112969583D01*
X171506454Y-113112844D01*
X171577026Y-113244874D01*
X171617716Y-113294454D01*
X171672000Y-113360599D01*
X171700998Y-113384397D01*
X175565000Y-117248400D01*
X174629111Y-117248400D01*
X174585174Y-117204463D01*
X174415656Y-117091195D01*
X174227298Y-117013174D01*
X174027339Y-116973400D01*
X173823461Y-116973400D01*
X173623502Y-117013174D01*
X173435144Y-117091195D01*
X173265626Y-117204463D01*
X173121463Y-117348626D01*
X173008195Y-117518144D01*
X172930174Y-117706502D01*
X172890400Y-117906461D01*
X172890400Y-118110339D01*
X172930174Y-118310298D01*
X173008195Y-118498656D01*
X173121463Y-118668174D01*
X173265626Y-118812337D01*
X173435144Y-118925605D01*
X173623502Y-119003626D01*
X173823461Y-119043400D01*
X174027339Y-119043400D01*
X174227298Y-119003626D01*
X174415656Y-118925605D01*
X174585174Y-118812337D01*
X174629111Y-118768400D01*
X175623089Y-118768400D01*
X175667026Y-118812337D01*
X175836544Y-118925605D01*
X176024902Y-119003626D01*
X176224861Y-119043400D01*
X176428739Y-119043400D01*
X176628698Y-119003626D01*
X176694612Y-118976323D01*
X176759226Y-119040937D01*
X176928744Y-119154205D01*
X177117102Y-119232226D01*
X177317061Y-119272000D01*
X177520939Y-119272000D01*
X177720898Y-119232226D01*
X177909256Y-119154205D01*
X178078774Y-119040937D01*
X178175068Y-118944643D01*
X178311414Y-118986003D01*
X178423067Y-118997000D01*
X178423076Y-118997000D01*
X178460399Y-119000676D01*
X178497722Y-118997000D01*
X187363878Y-118997000D01*
X187401200Y-119000676D01*
X187438522Y-118997000D01*
X187438533Y-118997000D01*
X187550186Y-118986003D01*
X187693447Y-118942546D01*
X187825476Y-118871974D01*
X187941201Y-118777001D01*
X187965004Y-118747997D01*
X190387567Y-116325435D01*
X190394859Y-116330307D01*
X190874399Y-116528939D01*
X191383475Y-116630200D01*
X191902525Y-116630200D01*
X192411601Y-116528939D01*
X192891141Y-116330307D01*
X193322715Y-116041938D01*
X193689738Y-115674915D01*
X193831243Y-115463137D01*
X198715000Y-115463137D01*
X198715000Y-115676863D01*
X198756696Y-115886483D01*
X198838485Y-116083940D01*
X198957225Y-116261647D01*
X199108353Y-116412775D01*
X199286060Y-116531515D01*
X199483517Y-116613304D01*
X199693137Y-116655000D01*
X199906863Y-116655000D01*
X200116483Y-116613304D01*
X200313940Y-116531515D01*
X200491647Y-116412775D01*
X200642775Y-116261647D01*
X200761515Y-116083940D01*
X200843304Y-115886483D01*
X200885000Y-115676863D01*
X200885000Y-115463137D01*
X205515000Y-115463137D01*
X205515000Y-115676863D01*
X205556696Y-115886483D01*
X205638485Y-116083940D01*
X205757225Y-116261647D01*
X205908353Y-116412775D01*
X206086060Y-116531515D01*
X206283517Y-116613304D01*
X206493137Y-116655000D01*
X206706863Y-116655000D01*
X206916483Y-116613304D01*
X207113940Y-116531515D01*
X207291647Y-116412775D01*
X207442775Y-116261647D01*
X207561515Y-116083940D01*
X207643304Y-115886483D01*
X207685000Y-115676863D01*
X207685000Y-115463137D01*
X207643304Y-115253517D01*
X207561515Y-115056060D01*
X207442775Y-114878353D01*
X207291647Y-114727225D01*
X207113940Y-114608485D01*
X206916483Y-114526696D01*
X206706863Y-114485000D01*
X206493137Y-114485000D01*
X206283517Y-114526696D01*
X206086060Y-114608485D01*
X205908353Y-114727225D01*
X205757225Y-114878353D01*
X205638485Y-115056060D01*
X205556696Y-115253517D01*
X205515000Y-115463137D01*
X200885000Y-115463137D01*
X200843304Y-115253517D01*
X200761515Y-115056060D01*
X200642775Y-114878353D01*
X200491647Y-114727225D01*
X200313940Y-114608485D01*
X200116483Y-114526696D01*
X199906863Y-114485000D01*
X199693137Y-114485000D01*
X199483517Y-114526696D01*
X199286060Y-114608485D01*
X199108353Y-114727225D01*
X198957225Y-114878353D01*
X198838485Y-115056060D01*
X198756696Y-115253517D01*
X198715000Y-115463137D01*
X193831243Y-115463137D01*
X193978107Y-115243341D01*
X194176739Y-114763801D01*
X194278000Y-114254725D01*
X194278000Y-113735675D01*
X194176739Y-113226599D01*
X193978107Y-112747059D01*
X193689738Y-112315485D01*
X193322715Y-111948462D01*
X192891141Y-111660093D01*
X192411601Y-111461461D01*
X191902525Y-111360200D01*
X191383475Y-111360200D01*
X190874399Y-111461461D01*
X190394859Y-111660093D01*
X189963285Y-111948462D01*
X189596262Y-112315485D01*
X189307893Y-112747059D01*
X189109261Y-113226599D01*
X189008000Y-113735675D01*
X189008000Y-114254725D01*
X189109261Y-114763801D01*
X189307893Y-115243341D01*
X189312765Y-115250633D01*
X187086399Y-117477000D01*
X178775202Y-117477000D01*
X178749736Y-117451534D01*
X178863898Y-117428826D01*
X179052256Y-117350805D01*
X179221774Y-117237537D01*
X179365937Y-117093374D01*
X179479205Y-116923856D01*
X179557226Y-116735498D01*
X179597000Y-116535539D01*
X179597000Y-116331661D01*
X179557226Y-116131702D01*
X179479205Y-115943344D01*
X179365937Y-115773826D01*
X179322000Y-115729889D01*
X179322000Y-114513004D01*
X179739250Y-114510000D01*
X179898000Y-114351250D01*
X179898000Y-113127000D01*
X179878000Y-113127000D01*
X179878000Y-112873000D01*
X179898000Y-112873000D01*
X179898000Y-112853000D01*
X180152000Y-112853000D01*
X180152000Y-112873000D01*
X180172000Y-112873000D01*
X180172000Y-113127000D01*
X180152000Y-113127000D01*
X180152000Y-114351250D01*
X180310750Y-114510000D01*
X180737500Y-114513072D01*
X180861982Y-114500812D01*
X180981680Y-114464502D01*
X181091994Y-114405537D01*
X181188685Y-114326185D01*
X181268037Y-114229494D01*
X181327002Y-114119180D01*
X181329600Y-114110616D01*
X181355661Y-114115800D01*
X181559539Y-114115800D01*
X181759498Y-114076026D01*
X181773380Y-114070276D01*
X181799095Y-114118386D01*
X181909538Y-114252962D01*
X182044114Y-114363405D01*
X182197650Y-114445472D01*
X182364246Y-114496008D01*
X182537500Y-114513072D01*
X183462500Y-114513072D01*
X183635754Y-114496008D01*
X183802350Y-114445472D01*
X183955886Y-114363405D01*
X184090462Y-114252962D01*
X184200905Y-114118386D01*
X184282972Y-113964850D01*
X184333508Y-113798254D01*
X184350572Y-113625000D01*
X184350572Y-112375000D01*
X184333508Y-112201746D01*
X184282972Y-112035150D01*
X184200905Y-111881614D01*
X184090462Y-111747038D01*
X183955886Y-111636595D01*
X183802350Y-111554528D01*
X183635754Y-111503992D01*
X183462500Y-111486928D01*
X182537500Y-111486928D01*
X182364246Y-111503992D01*
X182197650Y-111554528D01*
X182044114Y-111636595D01*
X181909538Y-111747038D01*
X181799095Y-111881614D01*
X181717028Y-112035150D01*
X181705019Y-112074738D01*
X181559539Y-112045800D01*
X181367772Y-112045800D01*
X181363312Y-112000518D01*
X181327002Y-111880820D01*
X181268037Y-111770506D01*
X181188685Y-111673815D01*
X181091994Y-111594463D01*
X180981680Y-111535498D01*
X180861982Y-111499188D01*
X180737500Y-111486928D01*
X180637203Y-111487650D01*
X180663800Y-111353939D01*
X180663800Y-111291801D01*
X181511404Y-110444198D01*
X181540401Y-110420401D01*
X181635374Y-110304676D01*
X181705946Y-110172647D01*
X181749403Y-110029386D01*
X181760400Y-109917733D01*
X181760400Y-109917724D01*
X181764076Y-109880401D01*
X181760400Y-109843078D01*
X181760400Y-107822661D01*
X184131000Y-107822661D01*
X184131000Y-108026539D01*
X184170774Y-108226498D01*
X184248795Y-108414856D01*
X184362063Y-108584374D01*
X184506226Y-108728537D01*
X184675744Y-108841805D01*
X184864102Y-108919826D01*
X185064061Y-108959600D01*
X185267939Y-108959600D01*
X185467898Y-108919826D01*
X185656256Y-108841805D01*
X185825774Y-108728537D01*
X185869711Y-108684600D01*
X188532278Y-108684600D01*
X188569600Y-108688276D01*
X188606922Y-108684600D01*
X188606933Y-108684600D01*
X188718586Y-108673603D01*
X188861847Y-108630146D01*
X188993876Y-108559574D01*
X189012609Y-108544200D01*
X197009128Y-108544200D01*
X197009128Y-109794200D01*
X197026192Y-109967454D01*
X197076728Y-110134050D01*
X197158795Y-110287586D01*
X197269238Y-110422162D01*
X197403814Y-110532605D01*
X197557350Y-110614672D01*
X197723946Y-110665208D01*
X197897200Y-110682272D01*
X198822200Y-110682272D01*
X198995454Y-110665208D01*
X199162050Y-110614672D01*
X199315586Y-110532605D01*
X199450162Y-110422162D01*
X199560605Y-110287586D01*
X199576475Y-110257896D01*
X199596102Y-110266026D01*
X199796061Y-110305800D01*
X199999939Y-110305800D01*
X200037966Y-110298236D01*
X200091663Y-110398694D01*
X200171015Y-110495385D01*
X200267706Y-110574737D01*
X200378020Y-110633702D01*
X200497718Y-110670012D01*
X200622200Y-110682272D01*
X201048950Y-110679200D01*
X201207700Y-110520450D01*
X201207700Y-109296200D01*
X201461700Y-109296200D01*
X201461700Y-110520450D01*
X201620450Y-110679200D01*
X202047200Y-110682272D01*
X202171682Y-110670012D01*
X202291380Y-110633702D01*
X202401694Y-110574737D01*
X202498385Y-110495385D01*
X202577737Y-110398694D01*
X202636702Y-110288380D01*
X202673012Y-110168682D01*
X202685272Y-110044200D01*
X202682200Y-109454950D01*
X202523450Y-109296200D01*
X201461700Y-109296200D01*
X201207700Y-109296200D01*
X201187700Y-109296200D01*
X201187700Y-109042200D01*
X201207700Y-109042200D01*
X201207700Y-107817950D01*
X201461700Y-107817950D01*
X201461700Y-109042200D01*
X202523450Y-109042200D01*
X202682200Y-108883450D01*
X202685272Y-108294200D01*
X202673012Y-108169718D01*
X202636702Y-108050020D01*
X202577737Y-107939706D01*
X202498385Y-107843015D01*
X202401694Y-107763663D01*
X202291380Y-107704698D01*
X202171682Y-107668388D01*
X202047200Y-107656128D01*
X201620450Y-107659200D01*
X201461700Y-107817950D01*
X201207700Y-107817950D01*
X201048950Y-107659200D01*
X200622200Y-107656128D01*
X200497718Y-107668388D01*
X200378020Y-107704698D01*
X200267706Y-107763663D01*
X200171015Y-107843015D01*
X200091663Y-107939706D01*
X200032698Y-108050020D01*
X199996388Y-108169718D01*
X199989880Y-108235800D01*
X199796061Y-108235800D01*
X199660398Y-108262785D01*
X199642672Y-108204350D01*
X199560605Y-108050814D01*
X199450162Y-107916238D01*
X199315586Y-107805795D01*
X199162050Y-107723728D01*
X198995454Y-107673192D01*
X198822200Y-107656128D01*
X197897200Y-107656128D01*
X197723946Y-107673192D01*
X197557350Y-107723728D01*
X197403814Y-107805795D01*
X197269238Y-107916238D01*
X197158795Y-108050814D01*
X197076728Y-108204350D01*
X197026192Y-108370946D01*
X197009128Y-108544200D01*
X189012609Y-108544200D01*
X189109601Y-108464601D01*
X189133404Y-108435597D01*
X191936802Y-105632200D01*
X191998939Y-105632200D01*
X192198898Y-105592426D01*
X192387256Y-105514405D01*
X192556774Y-105401137D01*
X192700937Y-105256974D01*
X192814205Y-105087456D01*
X192892226Y-104899098D01*
X192932000Y-104699139D01*
X192932000Y-104513072D01*
X193487500Y-104513072D01*
X193660754Y-104496008D01*
X193827350Y-104445472D01*
X193980886Y-104363405D01*
X194115462Y-104252962D01*
X194225905Y-104118386D01*
X194307972Y-103964850D01*
X194335227Y-103875000D01*
X194649428Y-103875000D01*
X194661688Y-103999482D01*
X194697998Y-104119180D01*
X194756963Y-104229494D01*
X194836315Y-104326185D01*
X194933006Y-104405537D01*
X195043320Y-104464502D01*
X195163018Y-104500812D01*
X195287500Y-104513072D01*
X195714250Y-104510000D01*
X195873000Y-104351250D01*
X195873000Y-103127000D01*
X196127000Y-103127000D01*
X196127000Y-104351250D01*
X196285750Y-104510000D01*
X196712500Y-104513072D01*
X196836982Y-104500812D01*
X196956680Y-104464502D01*
X197066994Y-104405537D01*
X197163685Y-104326185D01*
X197243037Y-104229494D01*
X197302002Y-104119180D01*
X197338312Y-103999482D01*
X197350572Y-103875000D01*
X197347500Y-103285750D01*
X197188750Y-103127000D01*
X196127000Y-103127000D01*
X195873000Y-103127000D01*
X194811250Y-103127000D01*
X194652500Y-103285750D01*
X194649428Y-103875000D01*
X194335227Y-103875000D01*
X194358508Y-103798254D01*
X194375572Y-103625000D01*
X194375572Y-102375000D01*
X194358508Y-102201746D01*
X194335228Y-102125000D01*
X194649428Y-102125000D01*
X194652500Y-102714250D01*
X194811250Y-102873000D01*
X195873000Y-102873000D01*
X195873000Y-101648750D01*
X196127000Y-101648750D01*
X196127000Y-102873000D01*
X197188750Y-102873000D01*
X197347500Y-102714250D01*
X197350572Y-102125000D01*
X197338312Y-102000518D01*
X197302002Y-101880820D01*
X197243037Y-101770506D01*
X197163685Y-101673815D01*
X197066994Y-101594463D01*
X196956680Y-101535498D01*
X196836982Y-101499188D01*
X196712500Y-101486928D01*
X196285750Y-101490000D01*
X196127000Y-101648750D01*
X195873000Y-101648750D01*
X195714250Y-101490000D01*
X195287500Y-101486928D01*
X195163018Y-101499188D01*
X195043320Y-101535498D01*
X194933006Y-101594463D01*
X194836315Y-101673815D01*
X194756963Y-101770506D01*
X194697998Y-101880820D01*
X194661688Y-102000518D01*
X194649428Y-102125000D01*
X194335228Y-102125000D01*
X194307972Y-102035150D01*
X194225905Y-101881614D01*
X194115462Y-101747038D01*
X193980886Y-101636595D01*
X193827350Y-101554528D01*
X193660754Y-101503992D01*
X193487500Y-101486928D01*
X192779600Y-101486928D01*
X192779600Y-101358361D01*
X192739826Y-101158402D01*
X192661805Y-100970044D01*
X192548537Y-100800526D01*
X192404374Y-100656363D01*
X192234856Y-100543095D01*
X192046498Y-100465074D01*
X191846539Y-100425300D01*
X191642661Y-100425300D01*
X191442702Y-100465074D01*
X191254344Y-100543095D01*
X191084826Y-100656363D01*
X190940663Y-100800526D01*
X190827395Y-100970044D01*
X190749374Y-101158402D01*
X190709600Y-101358361D01*
X190709600Y-101562239D01*
X190749374Y-101762198D01*
X190827395Y-101950556D01*
X190940663Y-102120074D01*
X191084826Y-102264237D01*
X191254344Y-102377505D01*
X191379578Y-102429379D01*
X191674428Y-102724229D01*
X191674428Y-103586195D01*
X191595102Y-103601974D01*
X191406744Y-103679995D01*
X191237226Y-103793263D01*
X191093063Y-103937426D01*
X190979795Y-104106944D01*
X190901774Y-104295302D01*
X190862000Y-104495261D01*
X190862000Y-104557398D01*
X188254799Y-107164600D01*
X185869711Y-107164600D01*
X185825774Y-107120663D01*
X185656256Y-107007395D01*
X185467898Y-106929374D01*
X185267939Y-106889600D01*
X185064061Y-106889600D01*
X184864102Y-106929374D01*
X184675744Y-107007395D01*
X184506226Y-107120663D01*
X184362063Y-107264826D01*
X184248795Y-107434344D01*
X184170774Y-107622702D01*
X184131000Y-107822661D01*
X181760400Y-107822661D01*
X181760400Y-100494322D01*
X181764076Y-100456999D01*
X181760400Y-100419676D01*
X181760400Y-100419667D01*
X181749403Y-100308014D01*
X181721258Y-100215232D01*
X181759498Y-100207626D01*
X181947856Y-100129605D01*
X182117374Y-100016337D01*
X182261537Y-99872174D01*
X182374805Y-99702656D01*
X182452826Y-99514298D01*
X182492600Y-99314339D01*
X182492600Y-99110461D01*
X182452826Y-98910502D01*
X182374805Y-98722144D01*
X182261537Y-98552626D01*
X182149696Y-98440785D01*
X182154792Y-98424380D01*
X182155060Y-98421833D01*
X182155803Y-98419384D01*
X182162898Y-98347344D01*
X182170459Y-98275495D01*
X182169123Y-98260936D01*
X182170476Y-98247201D01*
X182166800Y-98209878D01*
X182166800Y-98209868D01*
X182155803Y-98098215D01*
X182112346Y-97954954D01*
X182102869Y-97937224D01*
X182041774Y-97822924D01*
X181946801Y-97707199D01*
X181831076Y-97612226D01*
X181798196Y-97594651D01*
X181699047Y-97541654D01*
X181675839Y-97534614D01*
X181284776Y-97269521D01*
X181234393Y-97232888D01*
X181188939Y-97211914D01*
X181144949Y-97188022D01*
X181121123Y-97180620D01*
X181098461Y-97170163D01*
X181049788Y-97158459D01*
X181001982Y-97143608D01*
X180977162Y-97140996D01*
X180952903Y-97135163D01*
X180902880Y-97133180D01*
X180853097Y-97127941D01*
X180791060Y-97133633D01*
X175898498Y-97420410D01*
X175883400Y-97418923D01*
X175823920Y-97424781D01*
X175801662Y-97426086D01*
X175786752Y-97428442D01*
X175734414Y-97433597D01*
X175712972Y-97440101D01*
X175690843Y-97443598D01*
X175641501Y-97461781D01*
X175591154Y-97477053D01*
X175571390Y-97487617D01*
X175550371Y-97495363D01*
X175505517Y-97522828D01*
X175459124Y-97547626D01*
X175441802Y-97561841D01*
X175422697Y-97573540D01*
X175384070Y-97609221D01*
X175372398Y-97618800D01*
X175356627Y-97634571D01*
X175312728Y-97675122D01*
X175303808Y-97687390D01*
X175169398Y-97821800D01*
X175107261Y-97821800D01*
X174907302Y-97861574D01*
X174718944Y-97939595D01*
X174549426Y-98052863D01*
X174405263Y-98197026D01*
X174291995Y-98366544D01*
X174213974Y-98554902D01*
X174174200Y-98754861D01*
X174174200Y-98958739D01*
X174213974Y-99158698D01*
X174226526Y-99189000D01*
X173257652Y-99189000D01*
X173180005Y-99001544D01*
X173066737Y-98832026D01*
X172922574Y-98687863D01*
X172753056Y-98574595D01*
X172564698Y-98496574D01*
X172364739Y-98456800D01*
X172160861Y-98456800D01*
X171960902Y-98496574D01*
X171772544Y-98574595D01*
X171603026Y-98687863D01*
X171458863Y-98832026D01*
X171345595Y-99001544D01*
X171270200Y-99183562D01*
X171270200Y-97887050D01*
X171278801Y-97885339D01*
X171758341Y-97686707D01*
X172189915Y-97398338D01*
X172556938Y-97031315D01*
X172845307Y-96599741D01*
X173043939Y-96120201D01*
X173145200Y-95611125D01*
X173145200Y-95261261D01*
X183034740Y-95261261D01*
X183034740Y-95465139D01*
X183074514Y-95665098D01*
X183152535Y-95853456D01*
X183265803Y-96022974D01*
X183409966Y-96167137D01*
X183579484Y-96280405D01*
X183740499Y-96347100D01*
X186233398Y-98840000D01*
X185126511Y-98840000D01*
X185082574Y-98796063D01*
X184913056Y-98682795D01*
X184724698Y-98604774D01*
X184524739Y-98565000D01*
X184320861Y-98565000D01*
X184120902Y-98604774D01*
X183932544Y-98682795D01*
X183763026Y-98796063D01*
X183618863Y-98940226D01*
X183505595Y-99109744D01*
X183427574Y-99298102D01*
X183387800Y-99498061D01*
X183387800Y-99701939D01*
X183427574Y-99901898D01*
X183505595Y-100090256D01*
X183618863Y-100259774D01*
X183763026Y-100403937D01*
X183932544Y-100517205D01*
X184120902Y-100595226D01*
X184320861Y-100635000D01*
X184524739Y-100635000D01*
X184724698Y-100595226D01*
X184913056Y-100517205D01*
X185082574Y-100403937D01*
X185126511Y-100360000D01*
X188812289Y-100360000D01*
X188875026Y-100422737D01*
X189044544Y-100536005D01*
X189232902Y-100614026D01*
X189432861Y-100653800D01*
X189636739Y-100653800D01*
X189836698Y-100614026D01*
X190025056Y-100536005D01*
X190194574Y-100422737D01*
X190338737Y-100278574D01*
X190452005Y-100109056D01*
X190530026Y-99920698D01*
X190569800Y-99720739D01*
X190569800Y-99516861D01*
X190566530Y-99500424D01*
X190688975Y-99434975D01*
X190735857Y-99396500D01*
X190805139Y-99396500D01*
X191005098Y-99356726D01*
X191193456Y-99278705D01*
X191362974Y-99165437D01*
X191507137Y-99021274D01*
X191620405Y-98851756D01*
X191698426Y-98663398D01*
X191738200Y-98463439D01*
X191738200Y-98259561D01*
X191698426Y-98059602D01*
X191620405Y-97871244D01*
X191507137Y-97701726D01*
X191362974Y-97557563D01*
X191193456Y-97444295D01*
X191005098Y-97366274D01*
X190805139Y-97326500D01*
X190601261Y-97326500D01*
X190401302Y-97366274D01*
X190212944Y-97444295D01*
X190043426Y-97557563D01*
X189899263Y-97701726D01*
X189785995Y-97871244D01*
X189716093Y-98040001D01*
X188918800Y-98040001D01*
X188918800Y-97973061D01*
X188879026Y-97773102D01*
X188801005Y-97584744D01*
X188687737Y-97415226D01*
X188643800Y-97371289D01*
X188643800Y-95439722D01*
X188647476Y-95402399D01*
X188643800Y-95365076D01*
X188643800Y-95365067D01*
X188632803Y-95253414D01*
X188589346Y-95110153D01*
X188520447Y-94981254D01*
X188520447Y-94902108D01*
X188480673Y-94702149D01*
X188402652Y-94513791D01*
X188289384Y-94344273D01*
X188145221Y-94200110D01*
X187975703Y-94086842D01*
X187787345Y-94008821D01*
X187587386Y-93969047D01*
X187383508Y-93969047D01*
X187183549Y-94008821D01*
X186995191Y-94086842D01*
X186825673Y-94200110D01*
X186681510Y-94344273D01*
X186568242Y-94513791D01*
X186490221Y-94702149D01*
X186450447Y-94902108D01*
X186450447Y-95105986D01*
X186490221Y-95305945D01*
X186568242Y-95494303D01*
X186681510Y-95663821D01*
X186825673Y-95807984D01*
X186995191Y-95921252D01*
X187123801Y-95974524D01*
X187123800Y-97371289D01*
X187079863Y-97415226D01*
X187031143Y-97488141D01*
X185088713Y-95545712D01*
X185104740Y-95465139D01*
X185104740Y-95261261D01*
X185064966Y-95061302D01*
X184986945Y-94872944D01*
X184873677Y-94703426D01*
X184729514Y-94559263D01*
X184559996Y-94445995D01*
X184371638Y-94367974D01*
X184171679Y-94328200D01*
X183967801Y-94328200D01*
X183767842Y-94367974D01*
X183579484Y-94445995D01*
X183409966Y-94559263D01*
X183265803Y-94703426D01*
X183152535Y-94872944D01*
X183074514Y-95061302D01*
X183034740Y-95261261D01*
X173145200Y-95261261D01*
X173145200Y-95092075D01*
X173043939Y-94582999D01*
X172845307Y-94103459D01*
X172556938Y-93671885D01*
X172189915Y-93304862D01*
X171758341Y-93016493D01*
X171278801Y-92817861D01*
X170769725Y-92716600D01*
X170250675Y-92716600D01*
X169741599Y-92817861D01*
X169262059Y-93016493D01*
X168830485Y-93304862D01*
X168463462Y-93671885D01*
X168175093Y-94103459D01*
X167976461Y-94582999D01*
X167875200Y-95092075D01*
X167875200Y-95611125D01*
X167976461Y-96120201D01*
X168175093Y-96599741D01*
X168463462Y-97031315D01*
X168830485Y-97398338D01*
X169262059Y-97686707D01*
X169741599Y-97885339D01*
X169750200Y-97887050D01*
X169750201Y-100391728D01*
X168904700Y-100391728D01*
X168731446Y-100408792D01*
X168564850Y-100459328D01*
X168411314Y-100541395D01*
X168276738Y-100651838D01*
X168166295Y-100786414D01*
X168089974Y-100929200D01*
X168046739Y-100920600D01*
X167842861Y-100920600D01*
X167734147Y-100942224D01*
X167730512Y-100905318D01*
X167694202Y-100785620D01*
X167635237Y-100675306D01*
X167555885Y-100578615D01*
X167459194Y-100499263D01*
X167348880Y-100440298D01*
X167229182Y-100403988D01*
X167104700Y-100391728D01*
X166677950Y-100394800D01*
X166519200Y-100553550D01*
X166265200Y-100553550D01*
X166106450Y-100394800D01*
X165679700Y-100391728D01*
X165555218Y-100403988D01*
X165435520Y-100440298D01*
X165325206Y-100499263D01*
X165228515Y-100578615D01*
X165149163Y-100675306D01*
X165090198Y-100785620D01*
X165053888Y-100905318D01*
X165041628Y-101029800D01*
X162579834Y-101029800D01*
X164356139Y-98494061D01*
X164381425Y-98463250D01*
X164408645Y-98412325D01*
X164436974Y-98362022D01*
X164439256Y-98355055D01*
X164442710Y-98348593D01*
X164459474Y-98293332D01*
X164477443Y-98238472D01*
X164478321Y-98231201D01*
X164480450Y-98224183D01*
X164486114Y-98166677D01*
X164493031Y-98109402D01*
X164492474Y-98102101D01*
X164493193Y-98094800D01*
X164487529Y-98037290D01*
X164483140Y-97979770D01*
X164481169Y-97972717D01*
X164480450Y-97965417D01*
X164463680Y-97910133D01*
X164448149Y-97854559D01*
X164444838Y-97848023D01*
X164442710Y-97841007D01*
X164415469Y-97790042D01*
X164389402Y-97738581D01*
X164384884Y-97732822D01*
X164381425Y-97726350D01*
X164344766Y-97681681D01*
X164309159Y-97636291D01*
X164303600Y-97631520D01*
X164298948Y-97625852D01*
X164254275Y-97589189D01*
X164210500Y-97551622D01*
X164204123Y-97548030D01*
X164198450Y-97543375D01*
X164147487Y-97516135D01*
X164097220Y-97487826D01*
X164090258Y-97485546D01*
X164083793Y-97482090D01*
X164028512Y-97465320D01*
X163973671Y-97447357D01*
X163966401Y-97446479D01*
X163959383Y-97444350D01*
X163901873Y-97438686D01*
X163844601Y-97431769D01*
X163804877Y-97434800D01*
X163116959Y-97434800D01*
X166607028Y-92452600D01*
X180062028Y-92452600D01*
X180074288Y-92577082D01*
X180110598Y-92696780D01*
X180169563Y-92807094D01*
X180248915Y-92903785D01*
X180345606Y-92983137D01*
X180455920Y-93042102D01*
X180575618Y-93078412D01*
X180700100Y-93090672D01*
X181126850Y-93087600D01*
X181285600Y-92928850D01*
X181285600Y-91704600D01*
X180223850Y-91704600D01*
X180065100Y-91863350D01*
X180062028Y-92452600D01*
X166607028Y-92452600D01*
X167832916Y-90702600D01*
X180062028Y-90702600D01*
X180065100Y-91291850D01*
X180223850Y-91450600D01*
X181285600Y-91450600D01*
X181285600Y-90226350D01*
X181539600Y-90226350D01*
X181539600Y-91450600D01*
X181559600Y-91450600D01*
X181559600Y-91704600D01*
X181539600Y-91704600D01*
X181539600Y-92928850D01*
X181698350Y-93087600D01*
X182125100Y-93090672D01*
X182249582Y-93078412D01*
X182369280Y-93042102D01*
X182479594Y-92983137D01*
X182576285Y-92903785D01*
X182655637Y-92807094D01*
X182714602Y-92696780D01*
X182735648Y-92627400D01*
X182931139Y-92627400D01*
X183128998Y-92588044D01*
X183186695Y-92695986D01*
X183297138Y-92830562D01*
X183431714Y-92941005D01*
X183585250Y-93023072D01*
X183751846Y-93073608D01*
X183925100Y-93090672D01*
X184850100Y-93090672D01*
X185023354Y-93073608D01*
X185189950Y-93023072D01*
X185343486Y-92941005D01*
X185478062Y-92830562D01*
X185588505Y-92695986D01*
X185670572Y-92542450D01*
X185721108Y-92375854D01*
X185738172Y-92202600D01*
X185738172Y-90952600D01*
X185721108Y-90779346D01*
X185670572Y-90612750D01*
X185588505Y-90459214D01*
X185478062Y-90324638D01*
X185343486Y-90214195D01*
X185189950Y-90132128D01*
X185023354Y-90081592D01*
X184850100Y-90064528D01*
X183925100Y-90064528D01*
X183751846Y-90081592D01*
X183585250Y-90132128D01*
X183431714Y-90214195D01*
X183297138Y-90324638D01*
X183186695Y-90459214D01*
X183114697Y-90593912D01*
X182931139Y-90557400D01*
X182744627Y-90557400D01*
X182714602Y-90458420D01*
X182655637Y-90348106D01*
X182576285Y-90251415D01*
X182479594Y-90172063D01*
X182369280Y-90113098D01*
X182249582Y-90076788D01*
X182125100Y-90064528D01*
X181698350Y-90067600D01*
X181539600Y-90226350D01*
X181285600Y-90226350D01*
X181126850Y-90067600D01*
X180700100Y-90064528D01*
X180575618Y-90076788D01*
X180455920Y-90113098D01*
X180345606Y-90172063D01*
X180248915Y-90251415D01*
X180169563Y-90348106D01*
X180110598Y-90458420D01*
X180074288Y-90578118D01*
X180062028Y-90702600D01*
X167832916Y-90702600D01*
X169390084Y-88479688D01*
X169419661Y-88441753D01*
X169441886Y-88397549D01*
X169466174Y-88354422D01*
X169471042Y-88339560D01*
X169478061Y-88325600D01*
X169491236Y-88277908D01*
X169506643Y-88230872D01*
X169508517Y-88215355D01*
X169512680Y-88200286D01*
X169516299Y-88150921D01*
X169522231Y-88101802D01*
X169521042Y-88086218D01*
X169522185Y-88070626D01*
X169516104Y-88021506D01*
X169512340Y-87972170D01*
X169508134Y-87957119D01*
X169506213Y-87941602D01*
X169490667Y-87894617D01*
X169477349Y-87846959D01*
X169470284Y-87833012D01*
X169465375Y-87818174D01*
X169440960Y-87775120D01*
X169418602Y-87730981D01*
X169408959Y-87718688D01*
X169401244Y-87705084D01*
X169368897Y-87667619D01*
X169338359Y-87628691D01*
X169326496Y-87618510D01*
X169316281Y-87606679D01*
X169277245Y-87576243D01*
X169239700Y-87544022D01*
X169226086Y-87536355D01*
X169213753Y-87526739D01*
X169169531Y-87504505D01*
X169126420Y-87480226D01*
X169111564Y-87475360D01*
X169097600Y-87468339D01*
X169049899Y-87455161D01*
X169002871Y-87439757D01*
X168987356Y-87437883D01*
X168972286Y-87433720D01*
X168922912Y-87430100D01*
X168873801Y-87424169D01*
X168825851Y-87427828D01*
X168114256Y-87445618D01*
X169208929Y-85875000D01*
X171674428Y-85875000D01*
X171686688Y-85999482D01*
X171722998Y-86119180D01*
X171781963Y-86229494D01*
X171861315Y-86326185D01*
X171958006Y-86405537D01*
X172068320Y-86464502D01*
X172188018Y-86500812D01*
X172312500Y-86513072D01*
X172739250Y-86510000D01*
X172898000Y-86351250D01*
X172898000Y-85127000D01*
X171836250Y-85127000D01*
X171677500Y-85285750D01*
X171674428Y-85875000D01*
X169208929Y-85875000D01*
X170428625Y-84125000D01*
X171674428Y-84125000D01*
X171677500Y-84714250D01*
X171836250Y-84873000D01*
X172898000Y-84873000D01*
X172898000Y-83648750D01*
X173152000Y-83648750D01*
X173152000Y-84873000D01*
X173172000Y-84873000D01*
X173172000Y-85127000D01*
X173152000Y-85127000D01*
X173152000Y-86351250D01*
X173310750Y-86510000D01*
X173737500Y-86513072D01*
X173861982Y-86500812D01*
X173981680Y-86464502D01*
X174091994Y-86405537D01*
X174188685Y-86326185D01*
X174268037Y-86229494D01*
X174327002Y-86119180D01*
X174358333Y-86015895D01*
X174396061Y-86023400D01*
X174599939Y-86023400D01*
X174734064Y-85996721D01*
X174799095Y-86118386D01*
X174909538Y-86252962D01*
X175044114Y-86363405D01*
X175197650Y-86445472D01*
X175364246Y-86496008D01*
X175537500Y-86513072D01*
X176462500Y-86513072D01*
X176635754Y-86496008D01*
X176802350Y-86445472D01*
X176955886Y-86363405D01*
X177090462Y-86252962D01*
X177200905Y-86118386D01*
X177282972Y-85964850D01*
X177333508Y-85798254D01*
X177350572Y-85625000D01*
X177350572Y-84375000D01*
X177333508Y-84201746D01*
X177282972Y-84035150D01*
X177200905Y-83881614D01*
X177090462Y-83747038D01*
X176955886Y-83636595D01*
X176802350Y-83554528D01*
X176635754Y-83503992D01*
X176462500Y-83486928D01*
X175537500Y-83486928D01*
X175364246Y-83503992D01*
X175197650Y-83554528D01*
X175044114Y-83636595D01*
X174909538Y-83747038D01*
X174799095Y-83881614D01*
X174745273Y-83982308D01*
X174599939Y-83953400D01*
X174396061Y-83953400D01*
X174351696Y-83962225D01*
X174327002Y-83880820D01*
X174268037Y-83770506D01*
X174188685Y-83673815D01*
X174091994Y-83594463D01*
X173981680Y-83535498D01*
X173861982Y-83499188D01*
X173737500Y-83486928D01*
X173310750Y-83490000D01*
X173152000Y-83648750D01*
X172898000Y-83648750D01*
X172739250Y-83490000D01*
X172312500Y-83486928D01*
X172188018Y-83499188D01*
X172068320Y-83535498D01*
X171958006Y-83594463D01*
X171861315Y-83673815D01*
X171781963Y-83770506D01*
X171722998Y-83880820D01*
X171686688Y-84000518D01*
X171674428Y-84125000D01*
X170428625Y-84125000D01*
X170951352Y-83375000D01*
X185161928Y-83375000D01*
X185161928Y-84625000D01*
X185178992Y-84798254D01*
X185229528Y-84964850D01*
X185311595Y-85118386D01*
X185422038Y-85252962D01*
X185556614Y-85363405D01*
X185710150Y-85445472D01*
X185876746Y-85496008D01*
X186050000Y-85513072D01*
X186975000Y-85513072D01*
X187148254Y-85496008D01*
X187314850Y-85445472D01*
X187468386Y-85363405D01*
X187602962Y-85252962D01*
X187713405Y-85118386D01*
X187795472Y-84964850D01*
X187801394Y-84945328D01*
X187858061Y-84956600D01*
X188061939Y-84956600D01*
X188143369Y-84940403D01*
X188149188Y-84999482D01*
X188185498Y-85119180D01*
X188244463Y-85229494D01*
X188323815Y-85326185D01*
X188420506Y-85405537D01*
X188530820Y-85464502D01*
X188650518Y-85500812D01*
X188775000Y-85513072D01*
X189201750Y-85510000D01*
X189360500Y-85351250D01*
X189360500Y-84127000D01*
X189614500Y-84127000D01*
X189614500Y-85351250D01*
X189773250Y-85510000D01*
X190200000Y-85513072D01*
X190324482Y-85500812D01*
X190444180Y-85464502D01*
X190554494Y-85405537D01*
X190651185Y-85326185D01*
X190730537Y-85229494D01*
X190789502Y-85119180D01*
X190825812Y-84999482D01*
X190838072Y-84875000D01*
X190835000Y-84285750D01*
X190676250Y-84127000D01*
X189614500Y-84127000D01*
X189360500Y-84127000D01*
X189340500Y-84127000D01*
X189340500Y-83873000D01*
X189360500Y-83873000D01*
X189360500Y-82648750D01*
X189614500Y-82648750D01*
X189614500Y-83873000D01*
X190676250Y-83873000D01*
X190835000Y-83714250D01*
X190838072Y-83125000D01*
X190825812Y-83000518D01*
X190789502Y-82880820D01*
X190730537Y-82770506D01*
X190651185Y-82673815D01*
X190554494Y-82594463D01*
X190444180Y-82535498D01*
X190324482Y-82499188D01*
X190200000Y-82486928D01*
X189773250Y-82490000D01*
X189614500Y-82648750D01*
X189360500Y-82648750D01*
X189201750Y-82490000D01*
X188775000Y-82486928D01*
X188650518Y-82499188D01*
X188530820Y-82535498D01*
X188420506Y-82594463D01*
X188323815Y-82673815D01*
X188244463Y-82770506D01*
X188185498Y-82880820D01*
X188176813Y-82909450D01*
X188061939Y-82886600D01*
X187858061Y-82886600D01*
X187729716Y-82912129D01*
X187713405Y-82881614D01*
X187602962Y-82747038D01*
X187468386Y-82636595D01*
X187314850Y-82554528D01*
X187148254Y-82503992D01*
X186975000Y-82486928D01*
X186050000Y-82486928D01*
X185876746Y-82503992D01*
X185710150Y-82554528D01*
X185556614Y-82636595D01*
X185422038Y-82747038D01*
X185311595Y-82881614D01*
X185229528Y-83035150D01*
X185178992Y-83201746D01*
X185161928Y-83375000D01*
X170951352Y-83375000D01*
X173082000Y-80317985D01*
X173082000Y-80340539D01*
X173121774Y-80540498D01*
X173199795Y-80728856D01*
X173313063Y-80898374D01*
X173457226Y-81042537D01*
X173626744Y-81155805D01*
X173815102Y-81233826D01*
X174015061Y-81273600D01*
X174218939Y-81273600D01*
X174418898Y-81233826D01*
X174607256Y-81155805D01*
X174776774Y-81042537D01*
X174920937Y-80898374D01*
X175034205Y-80728856D01*
X175112226Y-80540498D01*
X175152000Y-80340539D01*
X175152000Y-80278402D01*
X175320802Y-80109600D01*
X179277750Y-80109600D01*
X179279461Y-80118201D01*
X179478093Y-80597741D01*
X179766462Y-81029315D01*
X180133485Y-81396338D01*
X180565059Y-81684707D01*
X181044599Y-81883339D01*
X181553675Y-81984600D01*
X182072725Y-81984600D01*
X182581801Y-81883339D01*
X183061341Y-81684707D01*
X183492915Y-81396338D01*
X183859938Y-81029315D01*
X184148307Y-80597741D01*
X184346939Y-80118201D01*
X184448200Y-79609125D01*
X184448200Y-79090075D01*
X184346939Y-78580999D01*
X184148307Y-78101459D01*
X183859938Y-77669885D01*
X183492915Y-77302862D01*
X183061341Y-77014493D01*
X182581801Y-76815861D01*
X182072725Y-76714600D01*
X181553675Y-76714600D01*
X181044599Y-76815861D01*
X180565059Y-77014493D01*
X180133485Y-77302862D01*
X179766462Y-77669885D01*
X179478093Y-78101459D01*
X179279461Y-78580999D01*
X179277750Y-78589600D01*
X175043323Y-78589600D01*
X175006000Y-78585924D01*
X174968677Y-78589600D01*
X174968667Y-78589600D01*
X174857014Y-78600597D01*
X174713753Y-78644054D01*
X174581724Y-78714626D01*
X174465999Y-78809599D01*
X174442201Y-78838597D01*
X174077198Y-79203600D01*
X174015061Y-79203600D01*
X173833526Y-79239709D01*
X174364237Y-78478254D01*
X174389025Y-78448050D01*
X174416611Y-78396439D01*
X174445208Y-78345378D01*
X174447230Y-78339156D01*
X174450310Y-78333393D01*
X174467298Y-78277391D01*
X174485383Y-78221732D01*
X174486151Y-78215243D01*
X174488050Y-78208983D01*
X174493790Y-78150702D01*
X174500664Y-78092626D01*
X174500151Y-78086114D01*
X174500793Y-78079600D01*
X174495050Y-78021286D01*
X174490464Y-77963018D01*
X174488692Y-77956734D01*
X174488050Y-77950217D01*
X174471045Y-77894159D01*
X174455176Y-77837890D01*
X174452209Y-77832067D01*
X174450310Y-77825807D01*
X174422707Y-77774166D01*
X174396154Y-77722051D01*
X174392109Y-77716920D01*
X174389025Y-77711150D01*
X174351886Y-77665897D01*
X174315668Y-77619953D01*
X174310696Y-77615707D01*
X174306548Y-77610652D01*
X174261291Y-77573511D01*
X174216808Y-77535518D01*
X174211107Y-77532325D01*
X174206050Y-77528175D01*
X174154417Y-77500577D01*
X174103376Y-77471992D01*
X174097159Y-77469972D01*
X174091393Y-77466890D01*
X174035343Y-77449887D01*
X173979731Y-77431818D01*
X173973249Y-77431051D01*
X173966983Y-77429150D01*
X173908671Y-77423407D01*
X173850624Y-77416536D01*
X173811691Y-77419600D01*
X173021070Y-77419600D01*
X176042709Y-72375000D01*
X179674428Y-72375000D01*
X179674428Y-73625000D01*
X179691492Y-73798254D01*
X179742028Y-73964850D01*
X179824095Y-74118386D01*
X179934538Y-74252962D01*
X180069114Y-74363405D01*
X180222650Y-74445472D01*
X180389246Y-74496008D01*
X180562500Y-74513072D01*
X181487500Y-74513072D01*
X181660754Y-74496008D01*
X181827350Y-74445472D01*
X181980886Y-74363405D01*
X182115462Y-74252962D01*
X182225905Y-74118386D01*
X182297778Y-73983922D01*
X182324102Y-73994826D01*
X182524061Y-74034600D01*
X182672341Y-74034600D01*
X182697998Y-74119180D01*
X182756963Y-74229494D01*
X182836315Y-74326185D01*
X182933006Y-74405537D01*
X183043320Y-74464502D01*
X183163018Y-74500812D01*
X183287500Y-74513072D01*
X183714250Y-74510000D01*
X183873000Y-74351250D01*
X183873000Y-73127000D01*
X184127000Y-73127000D01*
X184127000Y-74351250D01*
X184285750Y-74510000D01*
X184712500Y-74513072D01*
X184836982Y-74500812D01*
X184956680Y-74464502D01*
X185066994Y-74405537D01*
X185163685Y-74326185D01*
X185243037Y-74229494D01*
X185302002Y-74119180D01*
X185338312Y-73999482D01*
X185350572Y-73875000D01*
X185347500Y-73285750D01*
X185188750Y-73127000D01*
X184127000Y-73127000D01*
X183873000Y-73127000D01*
X183853000Y-73127000D01*
X183853000Y-72873000D01*
X183873000Y-72873000D01*
X183873000Y-71648750D01*
X184127000Y-71648750D01*
X184127000Y-72873000D01*
X185188750Y-72873000D01*
X185347500Y-72714250D01*
X185350572Y-72125000D01*
X185338312Y-72000518D01*
X185302002Y-71880820D01*
X185243037Y-71770506D01*
X185163685Y-71673815D01*
X185066994Y-71594463D01*
X184956680Y-71535498D01*
X184836982Y-71499188D01*
X184712500Y-71486928D01*
X184285750Y-71490000D01*
X184127000Y-71648750D01*
X183873000Y-71648750D01*
X183714250Y-71490000D01*
X183287500Y-71486928D01*
X183163018Y-71499188D01*
X183043320Y-71535498D01*
X182933006Y-71594463D01*
X182836315Y-71673815D01*
X182756963Y-71770506D01*
X182697998Y-71880820D01*
X182672584Y-71964600D01*
X182524061Y-71964600D01*
X182324102Y-72004374D01*
X182297428Y-72015423D01*
X182225905Y-71881614D01*
X182115462Y-71747038D01*
X181980886Y-71636595D01*
X181827350Y-71554528D01*
X181660754Y-71503992D01*
X181487500Y-71486928D01*
X180562500Y-71486928D01*
X180389246Y-71503992D01*
X180222650Y-71554528D01*
X180069114Y-71636595D01*
X179934538Y-71747038D01*
X179824095Y-71881614D01*
X179742028Y-72035150D01*
X179691492Y-72201746D01*
X179674428Y-72375000D01*
X176042709Y-72375000D01*
X178391933Y-68452991D01*
X178402225Y-68440450D01*
X178425272Y-68397331D01*
X178433657Y-68383333D01*
X178440549Y-68368750D01*
X178463510Y-68325793D01*
X178468274Y-68310087D01*
X178475290Y-68295243D01*
X178487110Y-68247997D01*
X178501250Y-68201383D01*
X178502860Y-68185039D01*
X178506842Y-68169121D01*
X178509217Y-68120491D01*
X178513993Y-68072000D01*
X178512383Y-68055658D01*
X178513184Y-68039268D01*
X178506026Y-67991105D01*
X178501250Y-67942617D01*
X178496484Y-67926905D01*
X178494071Y-67910672D01*
X178477651Y-67864824D01*
X178463510Y-67818207D01*
X178455771Y-67803728D01*
X178450237Y-67788276D01*
X178425190Y-67746516D01*
X178402225Y-67703550D01*
X178391808Y-67690857D01*
X178383367Y-67676783D01*
X178350651Y-67640707D01*
X178319748Y-67603052D01*
X178307058Y-67592638D01*
X178296031Y-67580478D01*
X178256902Y-67551475D01*
X178219250Y-67520575D01*
X178204773Y-67512837D01*
X178191585Y-67503062D01*
X178147547Y-67482249D01*
X178104593Y-67459290D01*
X178088885Y-67454525D01*
X178074042Y-67447510D01*
X178026800Y-67435691D01*
X178024374Y-67434955D01*
X181668752Y-61725070D01*
X181702043Y-61674381D01*
X181715888Y-61640192D01*
X181732598Y-61607288D01*
X181740235Y-61580068D01*
X181750841Y-61553878D01*
X181757752Y-61517639D01*
X181767719Y-61482114D01*
X181769899Y-61453938D01*
X181775194Y-61426170D01*
X181774901Y-61389275D01*
X181777747Y-61352493D01*
X181774387Y-61324428D01*
X181774163Y-61296166D01*
X181766678Y-61260037D01*
X181762293Y-61223406D01*
X181753524Y-61196540D01*
X181747790Y-61168861D01*
X181733400Y-61134886D01*
X181721953Y-61099814D01*
X181708110Y-61075173D01*
X181697087Y-61049147D01*
X181676344Y-61018630D01*
X181658276Y-60986468D01*
X181639894Y-60965003D01*
X181624003Y-60941624D01*
X181621309Y-60938972D01*
X182364545Y-60938972D01*
X182356647Y-60950314D01*
G37*
%TD.AperFunction*%
D18*
X183486448Y-57479899D02*
X183531755Y-57504967D01*
X183544427Y-57509012D01*
X183556327Y-57514988D01*
X183606279Y-57528759D01*
X183655605Y-57544506D01*
X183668827Y-57546002D01*
X183681661Y-57549540D01*
X183733332Y-57553300D01*
X183752421Y-57555460D01*
X183765644Y-57555652D01*
X183811326Y-57558976D01*
X183830504Y-57556592D01*
X184713018Y-57569382D01*
X183569140Y-58174965D01*
X183543132Y-58185194D01*
X183511830Y-58205306D01*
X183507743Y-58207469D01*
X183484579Y-58222814D01*
X183433753Y-58255469D01*
X183430399Y-58258705D01*
X183426516Y-58261277D01*
X183383654Y-58303800D01*
X183340187Y-58345733D01*
X183337529Y-58349560D01*
X183334222Y-58352841D01*
X183300481Y-58402906D01*
X183266028Y-58452515D01*
X183264167Y-58456788D01*
X183261564Y-58460651D01*
X183238235Y-58516346D01*
X183236652Y-58519981D01*
X183218562Y-58497938D01*
X183083986Y-58387495D01*
X183033036Y-58360262D01*
X183051400Y-58267939D01*
X183051400Y-58064061D01*
X183025412Y-57933411D01*
X183084780Y-57915402D01*
X183195094Y-57856437D01*
X183291785Y-57777085D01*
X183371137Y-57680394D01*
X183430102Y-57570080D01*
X183461290Y-57467267D01*
X183486448Y-57479899D01*
%TA.AperFunction,Conductor*%
D19*
G36*
X183486448Y-57479899D02*
G01*
X183531755Y-57504967D01*
X183544427Y-57509012D01*
X183556327Y-57514988D01*
X183606279Y-57528759D01*
X183655605Y-57544506D01*
X183668827Y-57546002D01*
X183681661Y-57549540D01*
X183733332Y-57553300D01*
X183752421Y-57555460D01*
X183765644Y-57555652D01*
X183811326Y-57558976D01*
X183830504Y-57556592D01*
X184713018Y-57569382D01*
X183569140Y-58174965D01*
X183543132Y-58185194D01*
X183511830Y-58205306D01*
X183507743Y-58207469D01*
X183484579Y-58222814D01*
X183433753Y-58255469D01*
X183430399Y-58258705D01*
X183426516Y-58261277D01*
X183383654Y-58303800D01*
X183340187Y-58345733D01*
X183337529Y-58349560D01*
X183334222Y-58352841D01*
X183300481Y-58402906D01*
X183266028Y-58452515D01*
X183264167Y-58456788D01*
X183261564Y-58460651D01*
X183238235Y-58516346D01*
X183236652Y-58519981D01*
X183218562Y-58497938D01*
X183083986Y-58387495D01*
X183033036Y-58360262D01*
X183051400Y-58267939D01*
X183051400Y-58064061D01*
X183025412Y-57933411D01*
X183084780Y-57915402D01*
X183195094Y-57856437D01*
X183291785Y-57777085D01*
X183371137Y-57680394D01*
X183430102Y-57570080D01*
X183461290Y-57467267D01*
X183486448Y-57479899D01*
G37*
%TD.AperFunction*%
D18*
X182347439Y-55265399D02*
X182251350Y-55265900D01*
X182092600Y-55424650D01*
X182092600Y-56486400D01*
X182112600Y-56486400D01*
X182112600Y-56740400D01*
X182092600Y-56740400D01*
X182092600Y-56760400D01*
X181838600Y-56760400D01*
X181838600Y-56740400D01*
X181818600Y-56740400D01*
X181818600Y-56486400D01*
X181838600Y-56486400D01*
X181838600Y-55424650D01*
X181730423Y-55316473D01*
X182021203Y-54531367D01*
X182347439Y-55265399D01*
%TA.AperFunction,Conductor*%
D19*
G36*
X182347439Y-55265399D02*
G01*
X182251350Y-55265900D01*
X182092600Y-55424650D01*
X182092600Y-56486400D01*
X182112600Y-56486400D01*
X182112600Y-56740400D01*
X182092600Y-56740400D01*
X182092600Y-56760400D01*
X181838600Y-56760400D01*
X181838600Y-56740400D01*
X181818600Y-56740400D01*
X181818600Y-56486400D01*
X181838600Y-56486400D01*
X181838600Y-55424650D01*
X181730423Y-55316473D01*
X182021203Y-54531367D01*
X182347439Y-55265399D01*
G37*
%TD.AperFunction*%
%TD*%
M02*
