M48
; DRILL file {KiCad (5.1.10)-1} date 11/13/21 13:22:25
; FORMAT={-:-/ absolute / inch / decimal}
; #@! TF.CreationDate,2021-11-13T13:22:25-05:00
; #@! TF.GenerationSoftware,Kicad,Pcbnew,(5.1.10)-1
FMAT,2
INCH
T1C0.0157
T2C0.0197
T3C0.0394
T4C0.0866
T5C0.0354
%
G90
G05
T1
X6.1175Y-4.5755
X6.322Y-4.189
X6.398Y-4.49
X6.5015Y-3.798
X6.612Y-4.014
X6.742Y-3.947
X6.78Y-4.24
X6.782Y-3.917
X6.846Y-4.12
X6.8475Y-4.646
X6.855Y-3.159
X6.87Y-3.346
X6.898Y-3.892
X6.942Y-4.646
X6.943Y-4.262
X6.968Y-2.976
X6.972Y-4.206
X6.985Y-4.655
X7.03Y-4.584
X7.043Y-3.984
X7.0435Y-3.935
X7.0435Y-4.1122
X7.045Y-3.6215
X7.058Y-4.2675
X7.072Y-4.38
X7.074Y-3.894
X7.105Y-4.8585
X7.144Y-3.906
X7.144Y-4.452
X7.15Y-5.0417
X7.15Y-5.1255
X7.164Y-4.238
X7.166Y-2.29
X7.19Y-2.874
X7.198Y-3.606
X7.2245Y-2.7285
X7.2468Y-3.7545
X7.2607Y-3.9213
X7.29Y-4.249
X7.3265Y-4.862
X7.3813Y-3.7403
X7.397Y-3.8612
X7.4Y-3.304
X7.462Y-3.922
X7.508Y-3.8725
X7.549Y-3.9945
X7.555Y-4.118
X7.7485Y-3.6525
X7.87Y-4.302
X7.8985Y-4.02
X8.2445Y-4.5845
T2
X7.0865Y-4.996
X7.1259Y-4.996
X7.1653Y-4.996
X7.2046Y-4.996
X7.244Y-4.996
X7.2834Y-4.996
T3
X6.388Y-4.306
X6.6872Y-4.306
T4
X6.93Y-5.0
X7.43Y-5.0
T5
X7.8661Y-4.55
X8.1339Y-4.55
T0
M30
