%TF.GenerationSoftware,KiCad,Pcbnew,(5.1.10)-1*%
%TF.CreationDate,2021-11-13T13:20:07-05:00*%
%TF.ProjectId,Electronics Club,456c6563-7472-46f6-9e69-637320436c75,rev?*%
%TF.SameCoordinates,Original*%
%TF.FileFunction,Copper,L2,Bot*%
%TF.FilePolarity,Positive*%
%FSLAX46Y46*%
G04 Gerber Fmt 4.6, Leading zero omitted, Abs format (unit mm)*
G04 Created by KiCad (PCBNEW (5.1.10)-1) date 2021-11-13 13:20:07*
%MOMM*%
%LPD*%
G01*
G04 APERTURE LIST*
%TA.AperFunction,ComponentPad*%
%ADD10C,3.300000*%
%TD*%
%TA.AperFunction,ComponentPad*%
%ADD11R,2.000000X2.000000*%
%TD*%
%TA.AperFunction,ComponentPad*%
%ADD12C,2.000000*%
%TD*%
%TA.AperFunction,ComponentPad*%
%ADD13R,0.850000X0.850000*%
%TD*%
%TA.AperFunction,ComponentPad*%
%ADD14O,0.850000X0.850000*%
%TD*%
%TA.AperFunction,SMDPad,CuDef*%
%ADD15R,1.250000X2.500000*%
%TD*%
%TA.AperFunction,SMDPad,CuDef*%
%ADD16R,3.800000X2.000000*%
%TD*%
%TA.AperFunction,SMDPad,CuDef*%
%ADD17R,1.500000X2.000000*%
%TD*%
%TA.AperFunction,SMDPad,CuDef*%
%ADD18R,0.550000X1.600000*%
%TD*%
%TA.AperFunction,SMDPad,CuDef*%
%ADD19R,1.600000X0.550000*%
%TD*%
%TA.AperFunction,SMDPad,CuDef*%
%ADD20C,0.100000*%
%TD*%
%TA.AperFunction,ViaPad*%
%ADD21C,0.800000*%
%TD*%
%TA.AperFunction,Conductor*%
%ADD22C,0.250000*%
%TD*%
%TA.AperFunction,Conductor*%
%ADD23C,0.254000*%
%TD*%
%TA.AperFunction,Conductor*%
%ADD24C,0.100000*%
%TD*%
G04 APERTURE END LIST*
D10*
%TO.P,BT1,1*%
%TO.N,Net-(BT1-Pad1)*%
X176022000Y-127000000D03*
%TO.P,BT1,2*%
%TO.N,GND*%
X188722000Y-127000000D03*
%TD*%
D11*
%TO.P,BZ1,1*%
%TO.N,Net-(BZ1-Pad1)*%
X162255200Y-109372400D03*
D12*
%TO.P,BZ1,2*%
%TO.N,GND*%
X169855200Y-109372400D03*
%TD*%
%TO.P,C1,2*%
%TO.N,GND*%
%TA.AperFunction,SMDPad,CuDef*%
G36*
G01*
X201255300Y-105544600D02*
X201255300Y-106494600D01*
G75*
G02*
X201005300Y-106744600I-250000J0D01*
G01*
X200330300Y-106744600D01*
G75*
G02*
X200080300Y-106494600I0J250000D01*
G01*
X200080300Y-105544600D01*
G75*
G02*
X200330300Y-105294600I250000J0D01*
G01*
X201005300Y-105294600D01*
G75*
G02*
X201255300Y-105544600I0J-250000D01*
G01*
G37*
%TD.AperFunction*%
%TO.P,C1,1*%
%TO.N,VCC*%
%TA.AperFunction,SMDPad,CuDef*%
G36*
G01*
X203330300Y-105544600D02*
X203330300Y-106494600D01*
G75*
G02*
X203080300Y-106744600I-250000J0D01*
G01*
X202405300Y-106744600D01*
G75*
G02*
X202155300Y-106494600I0J250000D01*
G01*
X202155300Y-105544600D01*
G75*
G02*
X202405300Y-105294600I250000J0D01*
G01*
X203080300Y-105294600D01*
G75*
G02*
X203330300Y-105544600I0J-250000D01*
G01*
G37*
%TD.AperFunction*%
%TD*%
%TO.P,C2,1*%
%TO.N,+5V*%
%TA.AperFunction,SMDPad,CuDef*%
G36*
G01*
X193831900Y-109034600D02*
X193831900Y-108084600D01*
G75*
G02*
X194081900Y-107834600I250000J0D01*
G01*
X194756900Y-107834600D01*
G75*
G02*
X195006900Y-108084600I0J-250000D01*
G01*
X195006900Y-109034600D01*
G75*
G02*
X194756900Y-109284600I-250000J0D01*
G01*
X194081900Y-109284600D01*
G75*
G02*
X193831900Y-109034600I0J250000D01*
G01*
G37*
%TD.AperFunction*%
%TO.P,C2,2*%
%TO.N,GND*%
%TA.AperFunction,SMDPad,CuDef*%
G36*
G01*
X195906900Y-109034600D02*
X195906900Y-108084600D01*
G75*
G02*
X196156900Y-107834600I250000J0D01*
G01*
X196831900Y-107834600D01*
G75*
G02*
X197081900Y-108084600I0J-250000D01*
G01*
X197081900Y-109034600D01*
G75*
G02*
X196831900Y-109284600I-250000J0D01*
G01*
X196156900Y-109284600D01*
G75*
G02*
X195906900Y-109034600I0J250000D01*
G01*
G37*
%TD.AperFunction*%
%TD*%
%TO.P,C3,2*%
%TO.N,GND*%
%TA.AperFunction,SMDPad,CuDef*%
G36*
G01*
X185285800Y-94480400D02*
X185285800Y-93530400D01*
G75*
G02*
X185535800Y-93280400I250000J0D01*
G01*
X186210800Y-93280400D01*
G75*
G02*
X186460800Y-93530400I0J-250000D01*
G01*
X186460800Y-94480400D01*
G75*
G02*
X186210800Y-94730400I-250000J0D01*
G01*
X185535800Y-94730400D01*
G75*
G02*
X185285800Y-94480400I0J250000D01*
G01*
G37*
%TD.AperFunction*%
%TO.P,C3,1*%
%TO.N,+5V*%
%TA.AperFunction,SMDPad,CuDef*%
G36*
G01*
X183210800Y-94480400D02*
X183210800Y-93530400D01*
G75*
G02*
X183460800Y-93280400I250000J0D01*
G01*
X184135800Y-93280400D01*
G75*
G02*
X184385800Y-93530400I0J-250000D01*
G01*
X184385800Y-94480400D01*
G75*
G02*
X184135800Y-94730400I-250000J0D01*
G01*
X183460800Y-94730400D01*
G75*
G02*
X183210800Y-94480400I0J250000D01*
G01*
G37*
%TD.AperFunction*%
%TD*%
%TO.P,C4,1*%
%TO.N,+5V*%
%TA.AperFunction,SMDPad,CuDef*%
G36*
G01*
X183116200Y-107421100D02*
X184066200Y-107421100D01*
G75*
G02*
X184316200Y-107671100I0J-250000D01*
G01*
X184316200Y-108346100D01*
G75*
G02*
X184066200Y-108596100I-250000J0D01*
G01*
X183116200Y-108596100D01*
G75*
G02*
X182866200Y-108346100I0J250000D01*
G01*
X182866200Y-107671100D01*
G75*
G02*
X183116200Y-107421100I250000J0D01*
G01*
G37*
%TD.AperFunction*%
%TO.P,C4,2*%
%TO.N,GND*%
%TA.AperFunction,SMDPad,CuDef*%
G36*
G01*
X183116200Y-109496100D02*
X184066200Y-109496100D01*
G75*
G02*
X184316200Y-109746100I0J-250000D01*
G01*
X184316200Y-110421100D01*
G75*
G02*
X184066200Y-110671100I-250000J0D01*
G01*
X183116200Y-110671100D01*
G75*
G02*
X182866200Y-110421100I0J250000D01*
G01*
X182866200Y-109746100D01*
G75*
G02*
X183116200Y-109496100I250000J0D01*
G01*
G37*
%TD.AperFunction*%
%TD*%
%TO.P,C5,2*%
%TO.N,GND*%
%TA.AperFunction,SMDPad,CuDef*%
G36*
G01*
X179919300Y-93555800D02*
X179919300Y-94505800D01*
G75*
G02*
X179669300Y-94755800I-250000J0D01*
G01*
X178994300Y-94755800D01*
G75*
G02*
X178744300Y-94505800I0J250000D01*
G01*
X178744300Y-93555800D01*
G75*
G02*
X178994300Y-93305800I250000J0D01*
G01*
X179669300Y-93305800D01*
G75*
G02*
X179919300Y-93555800I0J-250000D01*
G01*
G37*
%TD.AperFunction*%
%TO.P,C5,1*%
%TO.N,+5V*%
%TA.AperFunction,SMDPad,CuDef*%
G36*
G01*
X181994300Y-93555800D02*
X181994300Y-94505800D01*
G75*
G02*
X181744300Y-94755800I-250000J0D01*
G01*
X181069300Y-94755800D01*
G75*
G02*
X180819300Y-94505800I0J250000D01*
G01*
X180819300Y-93555800D01*
G75*
G02*
X181069300Y-93305800I250000J0D01*
G01*
X181744300Y-93305800D01*
G75*
G02*
X181994300Y-93555800I0J-250000D01*
G01*
G37*
%TD.AperFunction*%
%TD*%
%TO.P,C6,1*%
%TO.N,GND*%
%TA.AperFunction,SMDPad,CuDef*%
G36*
G01*
X195015112Y-86936090D02*
X194192388Y-87411090D01*
G75*
G02*
X193850882Y-87319584I-125000J216506D01*
G01*
X193513382Y-86735016D01*
G75*
G02*
X193604888Y-86393510I216506J125000D01*
G01*
X194427612Y-85918510D01*
G75*
G02*
X194769118Y-86010016I125000J-216506D01*
G01*
X195106618Y-86594584D01*
G75*
G02*
X195015112Y-86936090I-216506J-125000D01*
G01*
G37*
%TD.AperFunction*%
%TO.P,C6,2*%
%TO.N,Net-(C6-Pad2)*%
%TA.AperFunction,SMDPad,CuDef*%
G36*
G01*
X193977612Y-85139088D02*
X193154888Y-85614088D01*
G75*
G02*
X192813382Y-85522582I-125000J216506D01*
G01*
X192475882Y-84938014D01*
G75*
G02*
X192567388Y-84596508I216506J125000D01*
G01*
X193390112Y-84121508D01*
G75*
G02*
X193731618Y-84213014I125000J-216506D01*
G01*
X194069118Y-84797582D01*
G75*
G02*
X193977612Y-85139088I-216506J-125000D01*
G01*
G37*
%TD.AperFunction*%
%TD*%
%TO.P,C7,1*%
%TO.N,GND*%
%TA.AperFunction,SMDPad,CuDef*%
G36*
G01*
X199445390Y-95332288D02*
X199920390Y-96155012D01*
G75*
G02*
X199828884Y-96496518I-216506J-125000D01*
G01*
X199244316Y-96834018D01*
G75*
G02*
X198902810Y-96742512I-125000J216506D01*
G01*
X198427810Y-95919788D01*
G75*
G02*
X198519316Y-95578282I216506J125000D01*
G01*
X199103884Y-95240782D01*
G75*
G02*
X199445390Y-95332288I125000J-216506D01*
G01*
G37*
%TD.AperFunction*%
%TO.P,C7,2*%
%TO.N,Net-(C7-Pad2)*%
%TA.AperFunction,SMDPad,CuDef*%
G36*
G01*
X197648388Y-96369788D02*
X198123388Y-97192512D01*
G75*
G02*
X198031882Y-97534018I-216506J-125000D01*
G01*
X197447314Y-97871518D01*
G75*
G02*
X197105808Y-97780012I-125000J216506D01*
G01*
X196630808Y-96957288D01*
G75*
G02*
X196722314Y-96615782I216506J125000D01*
G01*
X197306882Y-96278282D01*
G75*
G02*
X197648388Y-96369788I125000J-216506D01*
G01*
G37*
%TD.AperFunction*%
%TD*%
D13*
%TO.P,J1,1*%
%TO.N,GND*%
X179997600Y-126898400D03*
D14*
%TO.P,J1,2*%
%TO.N,/CTS*%
X180997600Y-126898400D03*
%TO.P,J1,3*%
%TO.N,VCC*%
X181997600Y-126898400D03*
%TO.P,J1,4*%
%TO.N,/328_RX*%
X182997600Y-126898400D03*
%TO.P,J1,5*%
%TO.N,/328_TX*%
X183997600Y-126898400D03*
%TO.P,J1,6*%
%TO.N,/RESET*%
X184997600Y-126898400D03*
%TD*%
%TO.P,R1,1*%
%TO.N,/D11MOSI*%
%TA.AperFunction,SMDPad,CuDef*%
G36*
G01*
X182568001Y-65573200D02*
X181667999Y-65573200D01*
G75*
G02*
X181418000Y-65323201I0J249999D01*
G01*
X181418000Y-64623199D01*
G75*
G02*
X181667999Y-64373200I249999J0D01*
G01*
X182568001Y-64373200D01*
G75*
G02*
X182818000Y-64623199I0J-249999D01*
G01*
X182818000Y-65323201D01*
G75*
G02*
X182568001Y-65573200I-249999J0D01*
G01*
G37*
%TD.AperFunction*%
%TO.P,R1,2*%
%TO.N,Net-(D1-Pad2)*%
%TA.AperFunction,SMDPad,CuDef*%
G36*
G01*
X182568001Y-63573200D02*
X181667999Y-63573200D01*
G75*
G02*
X181418000Y-63323201I0J249999D01*
G01*
X181418000Y-62623199D01*
G75*
G02*
X181667999Y-62373200I249999J0D01*
G01*
X182568001Y-62373200D01*
G75*
G02*
X182818000Y-62623199I0J-249999D01*
G01*
X182818000Y-63323201D01*
G75*
G02*
X182568001Y-63573200I-249999J0D01*
G01*
G37*
%TD.AperFunction*%
%TD*%
%TO.P,R2,2*%
%TO.N,Net-(D2-Pad2)*%
%TA.AperFunction,SMDPad,CuDef*%
G36*
G01*
X162007600Y-116135999D02*
X162007600Y-117036001D01*
G75*
G02*
X161757601Y-117286000I-249999J0D01*
G01*
X161057599Y-117286000D01*
G75*
G02*
X160807600Y-117036001I0J249999D01*
G01*
X160807600Y-116135999D01*
G75*
G02*
X161057599Y-115886000I249999J0D01*
G01*
X161757601Y-115886000D01*
G75*
G02*
X162007600Y-116135999I0J-249999D01*
G01*
G37*
%TD.AperFunction*%
%TO.P,R2,1*%
%TO.N,/D10*%
%TA.AperFunction,SMDPad,CuDef*%
G36*
G01*
X164007600Y-116135999D02*
X164007600Y-117036001D01*
G75*
G02*
X163757601Y-117286000I-249999J0D01*
G01*
X163057599Y-117286000D01*
G75*
G02*
X162807600Y-117036001I0J249999D01*
G01*
X162807600Y-116135999D01*
G75*
G02*
X163057599Y-115886000I249999J0D01*
G01*
X163757601Y-115886000D01*
G75*
G02*
X164007600Y-116135999I0J-249999D01*
G01*
G37*
%TD.AperFunction*%
%TD*%
%TO.P,R3,1*%
%TO.N,/D9*%
%TA.AperFunction,SMDPad,CuDef*%
G36*
G01*
X180670000Y-84639999D02*
X180670000Y-85540001D01*
G75*
G02*
X180420001Y-85790000I-249999J0D01*
G01*
X179719999Y-85790000D01*
G75*
G02*
X179470000Y-85540001I0J249999D01*
G01*
X179470000Y-84639999D01*
G75*
G02*
X179719999Y-84390000I249999J0D01*
G01*
X180420001Y-84390000D01*
G75*
G02*
X180670000Y-84639999I0J-249999D01*
G01*
G37*
%TD.AperFunction*%
%TO.P,R3,2*%
%TO.N,Net-(D3-Pad2)*%
%TA.AperFunction,SMDPad,CuDef*%
G36*
G01*
X178670000Y-84639999D02*
X178670000Y-85540001D01*
G75*
G02*
X178420001Y-85790000I-249999J0D01*
G01*
X177719999Y-85790000D01*
G75*
G02*
X177470000Y-85540001I0J249999D01*
G01*
X177470000Y-84639999D01*
G75*
G02*
X177719999Y-84390000I249999J0D01*
G01*
X178420001Y-84390000D01*
G75*
G02*
X178670000Y-84639999I0J-249999D01*
G01*
G37*
%TD.AperFunction*%
%TD*%
%TO.P,R4,2*%
%TO.N,Net-(D4-Pad2)*%
%TA.AperFunction,SMDPad,CuDef*%
G36*
G01*
X190408000Y-103320001D02*
X190408000Y-102419999D01*
G75*
G02*
X190657999Y-102170000I249999J0D01*
G01*
X191358001Y-102170000D01*
G75*
G02*
X191608000Y-102419999I0J-249999D01*
G01*
X191608000Y-103320001D01*
G75*
G02*
X191358001Y-103570000I-249999J0D01*
G01*
X190657999Y-103570000D01*
G75*
G02*
X190408000Y-103320001I0J249999D01*
G01*
G37*
%TD.AperFunction*%
%TO.P,R4,1*%
%TO.N,/D8*%
%TA.AperFunction,SMDPad,CuDef*%
G36*
G01*
X188408000Y-103320001D02*
X188408000Y-102419999D01*
G75*
G02*
X188657999Y-102170000I249999J0D01*
G01*
X189358001Y-102170000D01*
G75*
G02*
X189608000Y-102419999I0J-249999D01*
G01*
X189608000Y-103320001D01*
G75*
G02*
X189358001Y-103570000I-249999J0D01*
G01*
X188657999Y-103570000D01*
G75*
G02*
X188408000Y-103320001I0J249999D01*
G01*
G37*
%TD.AperFunction*%
%TD*%
%TO.P,R5,1*%
%TO.N,/D7*%
%TA.AperFunction,SMDPad,CuDef*%
G36*
G01*
X187292401Y-92598800D02*
X186392399Y-92598800D01*
G75*
G02*
X186142400Y-92348801I0J249999D01*
G01*
X186142400Y-91648799D01*
G75*
G02*
X186392399Y-91398800I249999J0D01*
G01*
X187292401Y-91398800D01*
G75*
G02*
X187542400Y-91648799I0J-249999D01*
G01*
X187542400Y-92348801D01*
G75*
G02*
X187292401Y-92598800I-249999J0D01*
G01*
G37*
%TD.AperFunction*%
%TO.P,R5,2*%
%TO.N,Net-(D5-Pad2)*%
%TA.AperFunction,SMDPad,CuDef*%
G36*
G01*
X187292401Y-90598800D02*
X186392399Y-90598800D01*
G75*
G02*
X186142400Y-90348801I0J249999D01*
G01*
X186142400Y-89648799D01*
G75*
G02*
X186392399Y-89398800I249999J0D01*
G01*
X187292401Y-89398800D01*
G75*
G02*
X187542400Y-89648799I0J-249999D01*
G01*
X187542400Y-90348801D01*
G75*
G02*
X187292401Y-90598800I-249999J0D01*
G01*
G37*
%TD.AperFunction*%
%TD*%
%TO.P,R6,2*%
%TO.N,Net-(D6-Pad2)*%
%TA.AperFunction,SMDPad,CuDef*%
G36*
G01*
X193557600Y-110990801D02*
X193557600Y-110090799D01*
G75*
G02*
X193807599Y-109840800I249999J0D01*
G01*
X194507601Y-109840800D01*
G75*
G02*
X194757600Y-110090799I0J-249999D01*
G01*
X194757600Y-110990801D01*
G75*
G02*
X194507601Y-111240800I-249999J0D01*
G01*
X193807599Y-111240800D01*
G75*
G02*
X193557600Y-110990801I0J249999D01*
G01*
G37*
%TD.AperFunction*%
%TO.P,R6,1*%
%TO.N,/D6*%
%TA.AperFunction,SMDPad,CuDef*%
G36*
G01*
X191557600Y-110990801D02*
X191557600Y-110090799D01*
G75*
G02*
X191807599Y-109840800I249999J0D01*
G01*
X192507601Y-109840800D01*
G75*
G02*
X192757600Y-110090799I0J-249999D01*
G01*
X192757600Y-110990801D01*
G75*
G02*
X192507601Y-111240800I-249999J0D01*
G01*
X191807599Y-111240800D01*
G75*
G02*
X191557600Y-110990801I0J249999D01*
G01*
G37*
%TD.AperFunction*%
%TD*%
%TO.P,R7,1*%
%TO.N,/D5*%
%TA.AperFunction,SMDPad,CuDef*%
G36*
G01*
X173846800Y-101454799D02*
X173846800Y-102354801D01*
G75*
G02*
X173596801Y-102604800I-249999J0D01*
G01*
X172896799Y-102604800D01*
G75*
G02*
X172646800Y-102354801I0J249999D01*
G01*
X172646800Y-101454799D01*
G75*
G02*
X172896799Y-101204800I249999J0D01*
G01*
X173596801Y-101204800D01*
G75*
G02*
X173846800Y-101454799I0J-249999D01*
G01*
G37*
%TD.AperFunction*%
%TO.P,R7,2*%
%TO.N,Net-(D7-Pad2)*%
%TA.AperFunction,SMDPad,CuDef*%
G36*
G01*
X171846800Y-101454799D02*
X171846800Y-102354801D01*
G75*
G02*
X171596801Y-102604800I-249999J0D01*
G01*
X170896799Y-102604800D01*
G75*
G02*
X170646800Y-102354801I0J249999D01*
G01*
X170646800Y-101454799D01*
G75*
G02*
X170896799Y-101204800I249999J0D01*
G01*
X171596801Y-101204800D01*
G75*
G02*
X171846800Y-101454799I0J-249999D01*
G01*
G37*
%TD.AperFunction*%
%TD*%
%TO.P,R8,2*%
%TO.N,Net-(D8-Pad2)*%
%TA.AperFunction,SMDPad,CuDef*%
G36*
G01*
X179266001Y-73498000D02*
X178365999Y-73498000D01*
G75*
G02*
X178116000Y-73248001I0J249999D01*
G01*
X178116000Y-72547999D01*
G75*
G02*
X178365999Y-72298000I249999J0D01*
G01*
X179266001Y-72298000D01*
G75*
G02*
X179516000Y-72547999I0J-249999D01*
G01*
X179516000Y-73248001D01*
G75*
G02*
X179266001Y-73498000I-249999J0D01*
G01*
G37*
%TD.AperFunction*%
%TO.P,R8,1*%
%TO.N,/D4*%
%TA.AperFunction,SMDPad,CuDef*%
G36*
G01*
X179266001Y-75498000D02*
X178365999Y-75498000D01*
G75*
G02*
X178116000Y-75248001I0J249999D01*
G01*
X178116000Y-74547999D01*
G75*
G02*
X178365999Y-74298000I249999J0D01*
G01*
X179266001Y-74298000D01*
G75*
G02*
X179516000Y-74547999I0J-249999D01*
G01*
X179516000Y-75248001D01*
G75*
G02*
X179266001Y-75498000I-249999J0D01*
G01*
G37*
%TD.AperFunction*%
%TD*%
%TO.P,R9,1*%
%TO.N,/D3*%
%TA.AperFunction,SMDPad,CuDef*%
G36*
G01*
X181873600Y-84371601D02*
X181873600Y-83471599D01*
G75*
G02*
X182123599Y-83221600I249999J0D01*
G01*
X182823601Y-83221600D01*
G75*
G02*
X183073600Y-83471599I0J-249999D01*
G01*
X183073600Y-84371601D01*
G75*
G02*
X182823601Y-84621600I-249999J0D01*
G01*
X182123599Y-84621600D01*
G75*
G02*
X181873600Y-84371601I0J249999D01*
G01*
G37*
%TD.AperFunction*%
%TO.P,R9,2*%
%TO.N,Net-(D9-Pad2)*%
%TA.AperFunction,SMDPad,CuDef*%
G36*
G01*
X183873600Y-84371601D02*
X183873600Y-83471599D01*
G75*
G02*
X184123599Y-83221600I249999J0D01*
G01*
X184823601Y-83221600D01*
G75*
G02*
X185073600Y-83471599I0J-249999D01*
G01*
X185073600Y-84371601D01*
G75*
G02*
X184823601Y-84621600I-249999J0D01*
G01*
X184123599Y-84621600D01*
G75*
G02*
X183873600Y-84371601I0J249999D01*
G01*
G37*
%TD.AperFunction*%
%TD*%
%TO.P,R10,2*%
%TO.N,Net-(D10-Pad2)*%
%TA.AperFunction,SMDPad,CuDef*%
G36*
G01*
X185782000Y-112579999D02*
X185782000Y-113480001D01*
G75*
G02*
X185532001Y-113730000I-249999J0D01*
G01*
X184831999Y-113730000D01*
G75*
G02*
X184582000Y-113480001I0J249999D01*
G01*
X184582000Y-112579999D01*
G75*
G02*
X184831999Y-112330000I249999J0D01*
G01*
X185532001Y-112330000D01*
G75*
G02*
X185782000Y-112579999I0J-249999D01*
G01*
G37*
%TD.AperFunction*%
%TO.P,R10,1*%
%TO.N,/D2*%
%TA.AperFunction,SMDPad,CuDef*%
G36*
G01*
X187782000Y-112579999D02*
X187782000Y-113480001D01*
G75*
G02*
X187532001Y-113730000I-249999J0D01*
G01*
X186831999Y-113730000D01*
G75*
G02*
X186582000Y-113480001I0J249999D01*
G01*
X186582000Y-112579999D01*
G75*
G02*
X186831999Y-112330000I249999J0D01*
G01*
X187532001Y-112330000D01*
G75*
G02*
X187782000Y-112579999I0J-249999D01*
G01*
G37*
%TD.AperFunction*%
%TD*%
%TO.P,R11,1*%
%TO.N,/D12MISO*%
%TA.AperFunction,SMDPad,CuDef*%
G36*
G01*
X173726400Y-116085199D02*
X173726400Y-116985201D01*
G75*
G02*
X173476401Y-117235200I-249999J0D01*
G01*
X172776399Y-117235200D01*
G75*
G02*
X172526400Y-116985201I0J249999D01*
G01*
X172526400Y-116085199D01*
G75*
G02*
X172776399Y-115835200I249999J0D01*
G01*
X173476401Y-115835200D01*
G75*
G02*
X173726400Y-116085199I0J-249999D01*
G01*
G37*
%TD.AperFunction*%
%TO.P,R11,2*%
%TO.N,Net-(BZ1-Pad1)*%
%TA.AperFunction,SMDPad,CuDef*%
G36*
G01*
X171726400Y-116085199D02*
X171726400Y-116985201D01*
G75*
G02*
X171476401Y-117235200I-249999J0D01*
G01*
X170776399Y-117235200D01*
G75*
G02*
X170526400Y-116985201I0J249999D01*
G01*
X170526400Y-116085199D01*
G75*
G02*
X170776399Y-115835200I249999J0D01*
G01*
X171476401Y-115835200D01*
G75*
G02*
X171726400Y-116085199I0J-249999D01*
G01*
G37*
%TD.AperFunction*%
%TD*%
D15*
%TO.P,SW1,1*%
%TO.N,Net-(BT1-Pad1)*%
X205700000Y-112820000D03*
%TO.P,SW1,2*%
%TO.N,VCC*%
X203200000Y-112820000D03*
%TO.P,SW1,3*%
%TO.N,N/C*%
X200700000Y-112820000D03*
%TD*%
D16*
%TO.P,U2,2*%
%TO.N,+5V*%
X195580000Y-99720000D03*
D17*
X195580000Y-106020000D03*
%TO.P,U2,3*%
%TO.N,VCC*%
X193280000Y-106020000D03*
%TO.P,U2,1*%
%TO.N,GND*%
X197880000Y-106020000D03*
%TD*%
D18*
%TO.P,U3,1*%
%TO.N,/D3*%
X178810000Y-97350000D03*
%TO.P,U3,2*%
%TO.N,/D4*%
X179610000Y-97350000D03*
%TO.P,U3,3*%
%TO.N,GND*%
X180410000Y-97350000D03*
%TO.P,U3,4*%
%TO.N,+5V*%
X181210000Y-97350000D03*
%TO.P,U3,5*%
%TO.N,GND*%
X182010000Y-97350000D03*
%TO.P,U3,6*%
%TO.N,+5V*%
X182810000Y-97350000D03*
%TO.P,U3,7*%
%TO.N,Net-(C6-Pad2)*%
X183610000Y-97350000D03*
%TO.P,U3,8*%
%TO.N,Net-(C7-Pad2)*%
X184410000Y-97350000D03*
D19*
%TO.P,U3,9*%
%TO.N,/D5*%
X185860000Y-98800000D03*
%TO.P,U3,10*%
%TO.N,/D6*%
X185860000Y-99600000D03*
%TO.P,U3,11*%
%TO.N,/D7*%
X185860000Y-100400000D03*
%TO.P,U3,12*%
%TO.N,/D8*%
X185860000Y-101200000D03*
%TO.P,U3,13*%
%TO.N,/D9*%
X185860000Y-102000000D03*
%TO.P,U3,14*%
%TO.N,/D10*%
X185860000Y-102800000D03*
%TO.P,U3,15*%
%TO.N,/D11MOSI*%
X185860000Y-103600000D03*
%TO.P,U3,16*%
%TO.N,/D12MISO*%
X185860000Y-104400000D03*
D18*
%TO.P,U3,17*%
%TO.N,/D13SCK*%
X184410000Y-105850000D03*
%TO.P,U3,18*%
%TO.N,+5V*%
X183610000Y-105850000D03*
%TO.P,U3,19*%
%TO.N,Net-(U3-Pad19)*%
X182810000Y-105850000D03*
%TO.P,U3,20*%
%TO.N,Net-(U3-Pad20)*%
X182010000Y-105850000D03*
%TO.P,U3,21*%
%TO.N,GND*%
X181210000Y-105850000D03*
%TO.P,U3,22*%
%TO.N,Net-(U3-Pad22)*%
X180410000Y-105850000D03*
%TO.P,U3,23*%
%TO.N,/D14*%
X179610000Y-105850000D03*
%TO.P,U3,24*%
%TO.N,/D15*%
X178810000Y-105850000D03*
D19*
%TO.P,U3,25*%
%TO.N,/D16*%
X177360000Y-104400000D03*
%TO.P,U3,26*%
%TO.N,/D17*%
X177360000Y-103600000D03*
%TO.P,U3,27*%
%TO.N,/D18*%
X177360000Y-102800000D03*
%TO.P,U3,28*%
%TO.N,/D19*%
X177360000Y-102000000D03*
%TO.P,U3,29*%
%TO.N,/RESET*%
X177360000Y-101200000D03*
%TO.P,U3,30*%
%TO.N,/328_RX*%
X177360000Y-100400000D03*
%TO.P,U3,31*%
%TO.N,/328_TX*%
X177360000Y-99600000D03*
%TO.P,U3,32*%
%TO.N,/D2*%
X177360000Y-98800000D03*
%TD*%
%TA.AperFunction,SMDPad,CuDef*%
D20*
%TO.P,Y1,1*%
%TO.N,Net-(C6-Pad2)*%
G36*
X188034362Y-86743452D02*
G01*
X190632438Y-85243452D01*
X193082438Y-89486976D01*
X190484362Y-90986976D01*
X188034362Y-86743452D01*
G37*
%TD.AperFunction*%
%TA.AperFunction,SMDPad,CuDef*%
%TO.P,Y1,2*%
%TO.N,Net-(C7-Pad2)*%
G36*
X191684362Y-93065438D02*
G01*
X194282438Y-91565438D01*
X196732438Y-95808962D01*
X194134362Y-97308962D01*
X191684362Y-93065438D01*
G37*
%TD.AperFunction*%
%TD*%
D21*
%TO.N,GND*%
X183502300Y-69303900D03*
X176987200Y-75590400D03*
X196811900Y-92773500D03*
X200621900Y-102108000D03*
X209410300Y-116446300D03*
X155384500Y-116217700D03*
X160578800Y-106400600D03*
X165138100Y-96469200D03*
X180467000Y-123405900D03*
X186093100Y-123494800D03*
X181965600Y-107645200D03*
X178943000Y-91986100D03*
%TO.N,VCC*%
X181610000Y-130186600D03*
X181610000Y-128060190D03*
%TO.N,+5V*%
X191897000Y-104597200D03*
X185166000Y-107924600D03*
X190703200Y-98361500D03*
X184069740Y-95363200D03*
%TO.N,Net-(D1-Pad2)*%
X182016400Y-58166000D03*
%TO.N,Net-(D2-Pad2)*%
X162509200Y-114046000D03*
%TO.N,Net-(D3-Pad2)*%
X174498000Y-84988400D03*
%TO.N,Net-(D4-Pad2)*%
X191744600Y-101460300D03*
%TO.N,Net-(D5-Pad2)*%
X182829200Y-91592400D03*
%TO.N,Net-(D6-Pad2)*%
X199898000Y-109270800D03*
%TO.N,Net-(D7-Pad2)*%
X167944800Y-101955600D03*
%TO.N,Net-(D8-Pad2)*%
X182626000Y-72999600D03*
%TO.N,Net-(D9-Pad2)*%
X187960000Y-83921600D03*
%TO.N,Net-(D10-Pad2)*%
X181457600Y-113080800D03*
%TO.N,/D11MOSI*%
X178892200Y-101193600D03*
X171246800Y-100253800D03*
%TO.N,/D10*%
X173925400Y-118008400D03*
X176326800Y-118008400D03*
%TO.N,/D9*%
X178903800Y-99949000D03*
X172262800Y-99491800D03*
%TO.N,/D7*%
X187883800Y-98075000D03*
X187485447Y-95004047D03*
%TO.N,/D6*%
X184422800Y-99600000D03*
X189534800Y-99618800D03*
%TO.N,/D5*%
X175209200Y-98856800D03*
X181457600Y-99212400D03*
%TO.N,/D2*%
X179628800Y-111252000D03*
X179679600Y-98907600D03*
%TO.N,/D12MISO*%
X173888400Y-104648000D03*
X178903800Y-104449998D03*
%TO.N,/D14*%
X174117000Y-80238600D03*
X172212000Y-107696000D03*
X177419000Y-118237000D03*
X178562000Y-116433600D03*
X179273200Y-108393400D03*
%TO.N,/D15*%
X176352200Y-108254800D03*
%TO.N,/D16*%
X177088800Y-106832400D03*
%TD*%
D22*
%TO.N,Net-(BT1-Pad1)*%
X205700000Y-112820000D02*
X205700000Y-113832000D01*
X179933600Y-130911600D02*
X176022000Y-127000000D01*
X191871600Y-130911600D02*
X179933600Y-130911600D01*
X193090800Y-129692400D02*
X191871600Y-130911600D01*
X193090800Y-117906800D02*
X193090800Y-129692400D01*
X202488800Y-117195600D02*
X193802000Y-117195600D01*
X193802000Y-117195600D02*
X193090800Y-117906800D01*
X205700000Y-113984400D02*
X202488800Y-117195600D01*
X205700000Y-112820000D02*
X205700000Y-113984400D01*
%TO.N,GND*%
X197880400Y-106019600D02*
X197880000Y-106020000D01*
X200667800Y-106019600D02*
X197880400Y-106019600D01*
X196494400Y-107405600D02*
X197880000Y-106020000D01*
X196494400Y-108559600D02*
X196494400Y-107405600D01*
X180410000Y-95109000D02*
X179331800Y-94030800D01*
X180410000Y-97350000D02*
X180410000Y-95109000D01*
X185873300Y-94005400D02*
X185873300Y-93315700D01*
X185512990Y-92955390D02*
X179510410Y-92955390D01*
X185873300Y-93315700D02*
X185512990Y-92955390D01*
X179331800Y-93134000D02*
X179331800Y-94030800D01*
X179510410Y-92955390D02*
X179331800Y-93134000D01*
X181210000Y-106889600D02*
X181965600Y-107645200D01*
X181210000Y-105850000D02*
X181210000Y-106889600D01*
X180410000Y-97350000D02*
X180410000Y-98469600D01*
X180427799Y-98487399D02*
X181799399Y-98487399D01*
X180410000Y-98469600D02*
X180427799Y-98487399D01*
X182010000Y-98276798D02*
X182010000Y-97350000D01*
X181799399Y-98487399D02*
X182010000Y-98276798D01*
X182010000Y-97350000D02*
X182010000Y-96970900D01*
%TO.N,Net-(BZ1-Pad1)*%
X169418000Y-116535200D02*
X162255200Y-109372400D01*
X171126400Y-116535200D02*
X169418000Y-116535200D01*
%TO.N,VCC*%
X202742800Y-112362800D02*
X203200000Y-112820000D01*
X202742800Y-106019600D02*
X202742800Y-112362800D01*
X201624999Y-114395001D02*
X193490601Y-114395001D01*
X203200000Y-112820000D02*
X201624999Y-114395001D01*
X193232590Y-106067410D02*
X193280000Y-106020000D01*
X193232590Y-114136990D02*
X193232590Y-106067410D01*
X193490601Y-114395001D02*
X193232590Y-114136990D01*
X201225001Y-114794999D02*
X193815001Y-114794999D01*
X203200000Y-112820000D02*
X201225001Y-114794999D01*
X193815001Y-114794999D02*
X192623790Y-115986210D01*
X192623790Y-129123790D02*
X192640790Y-129140790D01*
X192623790Y-115986210D02*
X192623790Y-129123790D01*
X192640790Y-129140790D02*
X192640790Y-129506000D01*
X192640790Y-129506000D02*
X191685200Y-130461590D01*
X181884990Y-130461590D02*
X181610000Y-130186600D01*
X191685200Y-130461590D02*
X181884990Y-130461590D01*
X181997600Y-127672590D02*
X181997600Y-126898400D01*
X181610000Y-128060190D02*
X181997600Y-127672590D01*
%TO.N,+5V*%
X195580000Y-107399000D02*
X194419400Y-108559600D01*
X195580000Y-106020000D02*
X195580000Y-107399000D01*
X183591200Y-105868800D02*
X183610000Y-105850000D01*
X183591200Y-108008600D02*
X183591200Y-105868800D01*
X181406800Y-97153200D02*
X181210000Y-97350000D01*
X181406800Y-94030800D02*
X181406800Y-97153200D01*
X195580000Y-99720000D02*
X195580000Y-106020000D01*
X181432200Y-94005400D02*
X181406800Y-94030800D01*
X183798300Y-94005400D02*
X181432200Y-94005400D01*
X182810000Y-94993700D02*
X182810000Y-97350000D01*
X183798300Y-94005400D02*
X182810000Y-94993700D01*
X195580000Y-106020000D02*
X195580000Y-105384600D01*
X195580000Y-105384600D02*
X194792600Y-104597200D01*
X194792600Y-104597200D02*
X191897000Y-104597200D01*
X185082000Y-108008600D02*
X185166000Y-107924600D01*
X183591200Y-108008600D02*
X185082000Y-108008600D01*
X195580000Y-99720000D02*
X192010900Y-99720000D01*
X190703200Y-98412300D02*
X190703200Y-98361500D01*
X192010900Y-99720000D02*
X190703200Y-98412300D01*
X184069740Y-94276840D02*
X183798300Y-94005400D01*
X184069740Y-95363200D02*
X184069740Y-94276840D01*
%TO.N,Net-(C6-Pad2)*%
X190558400Y-87581898D02*
X190558400Y-88115214D01*
X193272500Y-84867798D02*
X190558400Y-87581898D01*
X183610000Y-97350000D02*
X183610000Y-96475800D01*
X183610000Y-96475800D02*
X183997600Y-96088200D01*
X183997600Y-96088200D02*
X187426600Y-96088200D01*
X190558400Y-92956400D02*
X190558400Y-88115214D01*
X187426600Y-96088200D02*
X190558400Y-92956400D01*
%TO.N,Net-(C7-Pad2)*%
X191295600Y-97350000D02*
X194208400Y-94437200D01*
X184410000Y-97350000D02*
X191295600Y-97350000D01*
X194739398Y-94437200D02*
X194208400Y-94437200D01*
X197377098Y-97074900D02*
X194739398Y-94437200D01*
%TO.N,Net-(D1-Pad2)*%
X182016400Y-62871600D02*
X182118000Y-62973200D01*
X182016400Y-58166000D02*
X182016400Y-62871600D01*
%TO.N,Net-(D2-Pad2)*%
X161407600Y-115147600D02*
X161407600Y-116586000D01*
X162509200Y-114046000D02*
X161407600Y-115147600D01*
%TO.N,Net-(D3-Pad2)*%
X177968400Y-84988400D02*
X178070000Y-85090000D01*
X174498000Y-84988400D02*
X177968400Y-84988400D01*
%TO.N,Net-(D4-Pad2)*%
X191008000Y-102870000D02*
X191008000Y-101663500D01*
X191211200Y-101460300D02*
X191744600Y-101460300D01*
X191008000Y-101663500D02*
X191211200Y-101460300D01*
%TO.N,Net-(D5-Pad2)*%
X184422800Y-89998800D02*
X182829200Y-91592400D01*
X186842400Y-89998800D02*
X184422800Y-89998800D01*
%TO.N,Net-(D6-Pad2)*%
X198628000Y-110540800D02*
X195259200Y-110540800D01*
X199898000Y-109270800D02*
X198628000Y-110540800D01*
X195259200Y-110540800D02*
X194157600Y-110540800D01*
%TO.N,Net-(D7-Pad2)*%
X171196000Y-101955600D02*
X171246800Y-101904800D01*
X167944800Y-101955600D02*
X171196000Y-101955600D01*
%TO.N,Net-(D8-Pad2)*%
X178917600Y-72999600D02*
X178816000Y-72898000D01*
X182626000Y-72999600D02*
X178917600Y-72999600D01*
%TO.N,Net-(D9-Pad2)*%
X187960000Y-83921600D02*
X184473600Y-83921600D01*
%TO.N,Net-(D10-Pad2)*%
X185131200Y-113080800D02*
X185182000Y-113030000D01*
X181457600Y-113080800D02*
X185131200Y-113080800D01*
%TO.N,/328_RX*%
X182997600Y-128639989D02*
X182997600Y-126898400D01*
X182626000Y-129011589D02*
X182997600Y-128639989D01*
X179533599Y-129011589D02*
X182626000Y-129011589D01*
X178681810Y-128159800D02*
X179533599Y-129011589D01*
X175151210Y-100641990D02*
X175151210Y-122343200D01*
X178681810Y-125873800D02*
X178681810Y-128159800D01*
X175393200Y-100400000D02*
X175151210Y-100641990D01*
X175151210Y-122343200D02*
X178681810Y-125873800D01*
X177360000Y-100400000D02*
X175393200Y-100400000D01*
%TO.N,/328_TX*%
X177360000Y-99600000D02*
X175177200Y-99600000D01*
X175177200Y-99600000D02*
X174701200Y-100076000D01*
X174701200Y-100076000D02*
X174701200Y-122529600D01*
X174701200Y-122529600D02*
X178231800Y-126060200D01*
X178231800Y-126060200D02*
X178231800Y-128346200D01*
X179347199Y-129461599D02*
X183182599Y-129461599D01*
X178231800Y-128346200D02*
X179347199Y-129461599D01*
X183997600Y-128646598D02*
X183997600Y-126898400D01*
X183182599Y-129461599D02*
X183997600Y-128646598D01*
%TO.N,/RESET*%
X175651441Y-118733401D02*
X175651441Y-122207021D01*
X175601799Y-118682601D02*
X175601220Y-118683180D01*
X175651441Y-122207021D02*
X179247599Y-125803179D01*
X175601220Y-118683180D02*
X175651441Y-118733401D01*
X175601799Y-101512201D02*
X175601799Y-118682601D01*
X177360000Y-101200000D02*
X175914000Y-101200000D01*
X175914000Y-101200000D02*
X175601799Y-101512201D01*
X179247599Y-125803179D02*
X184781979Y-125803179D01*
X184997600Y-126018800D02*
X184997600Y-126898400D01*
X184781979Y-125803179D02*
X184997600Y-126018800D01*
%TO.N,/D11MOSI*%
X184999998Y-103600000D02*
X184353200Y-102953202D01*
X185860000Y-103600000D02*
X184999998Y-103600000D01*
X184353200Y-102463600D02*
X184339610Y-102450010D01*
X184353200Y-102953202D02*
X184353200Y-102463600D01*
X184339610Y-102450010D02*
X180148610Y-102450010D01*
X180148610Y-102450010D02*
X178892200Y-101193600D01*
X171246800Y-100253800D02*
X171246800Y-84277200D01*
X171246800Y-84277200D02*
X175564800Y-79959200D01*
X175564800Y-79959200D02*
X175564800Y-73279000D01*
X182118000Y-66725800D02*
X182118000Y-64973200D01*
X175564800Y-73279000D02*
X182118000Y-66725800D01*
%TO.N,/D10*%
X163407600Y-116586000D02*
X168503600Y-116586000D01*
X168503600Y-116586000D02*
X169367200Y-117449600D01*
X169477810Y-117560210D02*
X170646210Y-117560210D01*
X169367200Y-117449600D02*
X169477810Y-117560210D01*
X170646210Y-117560210D02*
X171094400Y-118008400D01*
X171094400Y-118008400D02*
X173888400Y-118008400D01*
X173888400Y-118008400D02*
X173925400Y-118008400D01*
X176326800Y-113480998D02*
X176377600Y-113430198D01*
X176326800Y-118008400D02*
X176326800Y-113480998D01*
X176377600Y-113430198D02*
X176377600Y-110083600D01*
X176377600Y-110083600D02*
X177342800Y-109118400D01*
X177342800Y-109118400D02*
X186283600Y-109118400D01*
X186283600Y-109118400D02*
X187502800Y-107899200D01*
X186910000Y-102800000D02*
X185860000Y-102800000D01*
X187502800Y-103392800D02*
X186910000Y-102800000D01*
X187502800Y-107899200D02*
X187502800Y-103392800D01*
%TO.N,/D9*%
X185860000Y-102000000D02*
X180892400Y-102000000D01*
X178903800Y-100011400D02*
X178903800Y-99949000D01*
X180892400Y-102000000D02*
X178903800Y-100011400D01*
X172262800Y-99491800D02*
X172262800Y-88798400D01*
X172262800Y-88798400D02*
X174294800Y-86766400D01*
X178393600Y-86766400D02*
X180070000Y-85090000D01*
X174294800Y-86766400D02*
X178393600Y-86766400D01*
%TO.N,/D8*%
X189008000Y-102870000D02*
X189008000Y-101606600D01*
X188601400Y-101200000D02*
X185860000Y-101200000D01*
X189008000Y-101606600D02*
X188601400Y-101200000D01*
%TO.N,/D7*%
X185860000Y-100400000D02*
X187839200Y-100400000D01*
X187883800Y-100355400D02*
X187883800Y-98075000D01*
X187839200Y-100400000D02*
X187883800Y-100355400D01*
X186842400Y-94361000D02*
X186842400Y-91998800D01*
X187485447Y-95004047D02*
X186842400Y-94361000D01*
%TO.N,/D6*%
X185860000Y-99600000D02*
X184422800Y-99600000D01*
X189934799Y-100018799D02*
X189934799Y-109721599D01*
X189534800Y-99618800D02*
X189934799Y-100018799D01*
X190754000Y-110540800D02*
X192157600Y-110540800D01*
X189934799Y-109721599D02*
X190754000Y-110540800D01*
%TO.N,/D5*%
X173246800Y-101904800D02*
X173246800Y-99549200D01*
X173246800Y-99549200D02*
X173939200Y-98856800D01*
X173939200Y-98856800D02*
X175209200Y-98856800D01*
X182435685Y-98800000D02*
X185860000Y-98800000D01*
X182023285Y-99212400D02*
X182435685Y-98800000D01*
X181457600Y-99212400D02*
X182023285Y-99212400D01*
%TO.N,/D4*%
X178816000Y-77098020D02*
X178816000Y-74898000D01*
X183548590Y-85539010D02*
X183548590Y-81830610D01*
X182219600Y-86766400D02*
X183548590Y-85539010D01*
X181559200Y-87376000D02*
X182219600Y-86766400D01*
X177596800Y-91338400D02*
X181559200Y-87376000D01*
X177596800Y-94640400D02*
X177596800Y-91338400D01*
X183548590Y-81830610D02*
X178816000Y-77098020D01*
X178714400Y-95758000D02*
X177596800Y-94640400D01*
X179374800Y-95758000D02*
X178714400Y-95758000D01*
X179610000Y-95993200D02*
X179374800Y-95758000D01*
X179610000Y-97350000D02*
X179610000Y-95993200D01*
%TO.N,/D3*%
X182473600Y-85648800D02*
X182473600Y-83921600D01*
X176936400Y-94616410D02*
X176936400Y-91186000D01*
X178527999Y-96208009D02*
X176936400Y-94616410D01*
X176936400Y-91186000D02*
X182473600Y-85648800D01*
X178718010Y-96208010D02*
X178527999Y-96208009D01*
X178810000Y-96300000D02*
X178718010Y-96208010D01*
X178810000Y-97350000D02*
X178810000Y-96300000D01*
%TO.N,/D2*%
X187182000Y-113030000D02*
X187182000Y-111693200D01*
X187182000Y-111693200D02*
X187045600Y-111556800D01*
X179933600Y-111556800D02*
X179628800Y-111252000D01*
X187045600Y-111556800D02*
X179933600Y-111556800D01*
X177467600Y-98907600D02*
X177360000Y-98800000D01*
X179679600Y-98907600D02*
X177467600Y-98907600D01*
%TO.N,/D12MISO*%
X173126400Y-116535200D02*
X173126400Y-115874800D01*
X173126400Y-115874800D02*
X173888400Y-115112800D01*
X173888400Y-115112800D02*
X173888400Y-104648000D01*
X185810002Y-104449998D02*
X185860000Y-104400000D01*
X178903800Y-104449998D02*
X185810002Y-104449998D01*
%TO.N,/D14*%
X174117000Y-80238600D02*
X170611800Y-83743800D01*
X170611800Y-83743800D02*
X170611800Y-94996000D01*
X170611800Y-94996000D02*
X164922200Y-100685600D01*
X164922200Y-100685600D02*
X164922200Y-104698800D01*
X164922200Y-104698800D02*
X167513000Y-107289600D01*
X167513000Y-107289600D02*
X167792400Y-107569000D01*
X167792400Y-107569000D02*
X172085000Y-107569000D01*
X172085000Y-107569000D02*
X172212000Y-107696000D01*
X172212000Y-107696000D02*
X172339000Y-107696000D01*
X177419000Y-118237000D02*
X178612800Y-117043200D01*
X178612800Y-116484400D02*
X178562000Y-116433600D01*
X178612800Y-117043200D02*
X178612800Y-116484400D01*
X179610000Y-108056600D02*
X179610000Y-105850000D01*
X179273200Y-108393400D02*
X179610000Y-108056600D01*
%TO.N,/D15*%
X176352200Y-108254800D02*
X178308000Y-108254800D01*
X178810000Y-107752800D02*
X178810000Y-105850000D01*
X178308000Y-108254800D02*
X178810000Y-107752800D01*
%TO.N,/D16*%
X177088800Y-104671200D02*
X177360000Y-104400000D01*
X177088800Y-106832400D02*
X177088800Y-104671200D01*
%TD*%
D23*
%TO.N,GND*%
X188318149Y-104140472D02*
X188484745Y-104191008D01*
X188657999Y-104208072D01*
X189174799Y-104208072D01*
X189174800Y-109684267D01*
X189171123Y-109721599D01*
X189174800Y-109758932D01*
X189185484Y-109867402D01*
X189185797Y-109870584D01*
X189229253Y-110013845D01*
X189299825Y-110145875D01*
X189370871Y-110232444D01*
X189394799Y-110261600D01*
X189423797Y-110285398D01*
X190190201Y-111051802D01*
X190213999Y-111080801D01*
X190329724Y-111175774D01*
X190461753Y-111246346D01*
X190605014Y-111289803D01*
X190716667Y-111300800D01*
X190716676Y-111300800D01*
X190753999Y-111304476D01*
X190791322Y-111300800D01*
X190978073Y-111300800D01*
X190987128Y-111330651D01*
X191069195Y-111484187D01*
X191179638Y-111618762D01*
X191314213Y-111729205D01*
X191467749Y-111811272D01*
X191634345Y-111861808D01*
X191807599Y-111878872D01*
X192472590Y-111878872D01*
X192472590Y-114099668D01*
X192468914Y-114136990D01*
X192472590Y-114174312D01*
X192472590Y-114174322D01*
X192483587Y-114285975D01*
X192513299Y-114383923D01*
X192527044Y-114429236D01*
X192597616Y-114561266D01*
X192613814Y-114581003D01*
X192692589Y-114676991D01*
X192721593Y-114700794D01*
X192777999Y-114757200D01*
X192112793Y-115422406D01*
X192083789Y-115446209D01*
X192039197Y-115500545D01*
X191988816Y-115561934D01*
X191955746Y-115623803D01*
X191918244Y-115693964D01*
X191874787Y-115837225D01*
X191863790Y-115948878D01*
X191863790Y-115948888D01*
X191860114Y-115986210D01*
X191863790Y-116023532D01*
X191863791Y-129086458D01*
X191860114Y-129123790D01*
X191863791Y-129161123D01*
X191868012Y-129203977D01*
X191370399Y-129701590D01*
X184017410Y-129701590D01*
X184508609Y-129210392D01*
X184537601Y-129186599D01*
X184561395Y-129157606D01*
X184561399Y-129157602D01*
X184632573Y-129070875D01*
X184632574Y-129070874D01*
X184703146Y-128938845D01*
X184746603Y-128795584D01*
X184757600Y-128683931D01*
X184757600Y-128683922D01*
X184761276Y-128646599D01*
X184757600Y-128609276D01*
X184757600Y-128598435D01*
X187303170Y-128598435D01*
X187477223Y-128929354D01*
X187877540Y-129135125D01*
X188310308Y-129258846D01*
X188758898Y-129295759D01*
X189206070Y-129244449D01*
X189634639Y-129106885D01*
X189966777Y-128929354D01*
X190140830Y-128598435D01*
X188722000Y-127179605D01*
X187303170Y-128598435D01*
X184757600Y-128598435D01*
X184757600Y-127931428D01*
X184893199Y-127958400D01*
X185102001Y-127958400D01*
X185306791Y-127917665D01*
X185499698Y-127837760D01*
X185673311Y-127721756D01*
X185820956Y-127574111D01*
X185936960Y-127400498D01*
X186016865Y-127207591D01*
X186050817Y-127036898D01*
X186426241Y-127036898D01*
X186477551Y-127484070D01*
X186615115Y-127912639D01*
X186792646Y-128244777D01*
X187123565Y-128418830D01*
X188542395Y-127000000D01*
X188901605Y-127000000D01*
X190320435Y-128418830D01*
X190651354Y-128244777D01*
X190857125Y-127844460D01*
X190980846Y-127411692D01*
X191017759Y-126963102D01*
X190966449Y-126515930D01*
X190828885Y-126087361D01*
X190651354Y-125755223D01*
X190320435Y-125581170D01*
X188901605Y-127000000D01*
X188542395Y-127000000D01*
X187123565Y-125581170D01*
X186792646Y-125755223D01*
X186586875Y-126155540D01*
X186463154Y-126588308D01*
X186426241Y-127036898D01*
X186050817Y-127036898D01*
X186057600Y-127002801D01*
X186057600Y-126793999D01*
X186016865Y-126589209D01*
X185936960Y-126396302D01*
X185820956Y-126222689D01*
X185757600Y-126159333D01*
X185757600Y-126056122D01*
X185761276Y-126018799D01*
X185757600Y-125981476D01*
X185757600Y-125981467D01*
X185746603Y-125869814D01*
X185703146Y-125726553D01*
X185632574Y-125594524D01*
X185537601Y-125478799D01*
X185508598Y-125454997D01*
X185455166Y-125401565D01*
X187303170Y-125401565D01*
X188722000Y-126820395D01*
X190140830Y-125401565D01*
X189966777Y-125070646D01*
X189566460Y-124864875D01*
X189133692Y-124741154D01*
X188685102Y-124704241D01*
X188237930Y-124755551D01*
X187809361Y-124893115D01*
X187477223Y-125070646D01*
X187303170Y-125401565D01*
X185455166Y-125401565D01*
X185345783Y-125292182D01*
X185321980Y-125263178D01*
X185206255Y-125168205D01*
X185074226Y-125097633D01*
X184930965Y-125054176D01*
X184819312Y-125043179D01*
X184819301Y-125043179D01*
X184781979Y-125039503D01*
X184744657Y-125043179D01*
X179562402Y-125043179D01*
X176411441Y-121892220D01*
X176411441Y-119043400D01*
X176428739Y-119043400D01*
X176628698Y-119003626D01*
X176694612Y-118976323D01*
X176759226Y-119040937D01*
X176928744Y-119154205D01*
X177117102Y-119232226D01*
X177317061Y-119272000D01*
X177520939Y-119272000D01*
X177720898Y-119232226D01*
X177909256Y-119154205D01*
X178078774Y-119040937D01*
X178222937Y-118896774D01*
X178336205Y-118727256D01*
X178414226Y-118538898D01*
X178454000Y-118338939D01*
X178454000Y-118276801D01*
X179123804Y-117606998D01*
X179152801Y-117583201D01*
X179206192Y-117518144D01*
X179247774Y-117467477D01*
X179318346Y-117335447D01*
X179318481Y-117335003D01*
X179361803Y-117192186D01*
X179372503Y-117083547D01*
X179479205Y-116923856D01*
X179557226Y-116735498D01*
X179597000Y-116535539D01*
X179597000Y-116331661D01*
X179557226Y-116131702D01*
X179479205Y-115943344D01*
X179365937Y-115773826D01*
X179221774Y-115629663D01*
X179052256Y-115516395D01*
X178863898Y-115438374D01*
X178663939Y-115398600D01*
X178460061Y-115398600D01*
X178260102Y-115438374D01*
X178071744Y-115516395D01*
X177902226Y-115629663D01*
X177758063Y-115773826D01*
X177644795Y-115943344D01*
X177566774Y-116131702D01*
X177527000Y-116331661D01*
X177527000Y-116535539D01*
X177566774Y-116735498D01*
X177644795Y-116923856D01*
X177649821Y-116931378D01*
X177379199Y-117202000D01*
X177317061Y-117202000D01*
X177117102Y-117241774D01*
X177086800Y-117254326D01*
X177086800Y-113710399D01*
X177126603Y-113579184D01*
X177137600Y-113467531D01*
X177137600Y-113467521D01*
X177141276Y-113430199D01*
X177137600Y-113392876D01*
X177137600Y-111150061D01*
X178593800Y-111150061D01*
X178593800Y-111353939D01*
X178633574Y-111553898D01*
X178711595Y-111742256D01*
X178824863Y-111911774D01*
X178969026Y-112055937D01*
X179138544Y-112169205D01*
X179326902Y-112247226D01*
X179526861Y-112287000D01*
X179722628Y-112287000D01*
X179784614Y-112305803D01*
X179896267Y-112316800D01*
X179896276Y-112316800D01*
X179933599Y-112320476D01*
X179970922Y-112316800D01*
X180757889Y-112316800D01*
X180653663Y-112421026D01*
X180540395Y-112590544D01*
X180462374Y-112778902D01*
X180422600Y-112978861D01*
X180422600Y-113182739D01*
X180462374Y-113382698D01*
X180540395Y-113571056D01*
X180653663Y-113740574D01*
X180797826Y-113884737D01*
X180967344Y-113998005D01*
X181155702Y-114076026D01*
X181355661Y-114115800D01*
X181559539Y-114115800D01*
X181759498Y-114076026D01*
X181947856Y-113998005D01*
X182117374Y-113884737D01*
X182161311Y-113840800D01*
X184022726Y-113840800D01*
X184093595Y-113973387D01*
X184204038Y-114107962D01*
X184338613Y-114218405D01*
X184492149Y-114300472D01*
X184658745Y-114351008D01*
X184831999Y-114368072D01*
X185532001Y-114368072D01*
X185705255Y-114351008D01*
X185871851Y-114300472D01*
X186025387Y-114218405D01*
X186159962Y-114107962D01*
X186182000Y-114081109D01*
X186204038Y-114107962D01*
X186338613Y-114218405D01*
X186492149Y-114300472D01*
X186658745Y-114351008D01*
X186831999Y-114368072D01*
X187532001Y-114368072D01*
X187705255Y-114351008D01*
X187871851Y-114300472D01*
X188025387Y-114218405D01*
X188159962Y-114107962D01*
X188270405Y-113973387D01*
X188352472Y-113819851D01*
X188403008Y-113653255D01*
X188420072Y-113480001D01*
X188420072Y-112579999D01*
X188403008Y-112406745D01*
X188352472Y-112240149D01*
X188270405Y-112086613D01*
X188159962Y-111952038D01*
X188025387Y-111841595D01*
X187942000Y-111797024D01*
X187942000Y-111730525D01*
X187945676Y-111693200D01*
X187942000Y-111655875D01*
X187942000Y-111655867D01*
X187931003Y-111544214D01*
X187887546Y-111400953D01*
X187816974Y-111268924D01*
X187722001Y-111153199D01*
X187692997Y-111129396D01*
X187609404Y-111045803D01*
X187585601Y-111016799D01*
X187469876Y-110921826D01*
X187337847Y-110851254D01*
X187194586Y-110807797D01*
X187082933Y-110796800D01*
X187082922Y-110796800D01*
X187045600Y-110793124D01*
X187008278Y-110796800D01*
X184941643Y-110796800D01*
X184942012Y-110795582D01*
X184954272Y-110671100D01*
X184951200Y-110369350D01*
X184792450Y-110210600D01*
X183718200Y-110210600D01*
X183718200Y-110230600D01*
X183464200Y-110230600D01*
X183464200Y-110210600D01*
X182389950Y-110210600D01*
X182231200Y-110369350D01*
X182228128Y-110671100D01*
X182240388Y-110795582D01*
X182240757Y-110796800D01*
X180560526Y-110796800D01*
X180546005Y-110761744D01*
X180432737Y-110592226D01*
X180288574Y-110448063D01*
X180119056Y-110334795D01*
X179930698Y-110256774D01*
X179730739Y-110217000D01*
X179526861Y-110217000D01*
X179326902Y-110256774D01*
X179138544Y-110334795D01*
X178969026Y-110448063D01*
X178824863Y-110592226D01*
X178711595Y-110761744D01*
X178633574Y-110950102D01*
X178593800Y-111150061D01*
X177137600Y-111150061D01*
X177137600Y-110398401D01*
X177657602Y-109878400D01*
X182311750Y-109878400D01*
X182389950Y-109956600D01*
X183464200Y-109956600D01*
X183464200Y-109936600D01*
X183718200Y-109936600D01*
X183718200Y-109956600D01*
X184792450Y-109956600D01*
X184870650Y-109878400D01*
X186246278Y-109878400D01*
X186283600Y-109882076D01*
X186320922Y-109878400D01*
X186320933Y-109878400D01*
X186432586Y-109867403D01*
X186575847Y-109823946D01*
X186707876Y-109753374D01*
X186823601Y-109658401D01*
X186847404Y-109629397D01*
X188013804Y-108462998D01*
X188042801Y-108439201D01*
X188137774Y-108323476D01*
X188208346Y-108191447D01*
X188251803Y-108048186D01*
X188262800Y-107936533D01*
X188262800Y-107936524D01*
X188266476Y-107899201D01*
X188262800Y-107861878D01*
X188262800Y-104110887D01*
X188318149Y-104140472D01*
%TA.AperFunction,Conductor*%
D24*
G36*
X188318149Y-104140472D02*
G01*
X188484745Y-104191008D01*
X188657999Y-104208072D01*
X189174799Y-104208072D01*
X189174800Y-109684267D01*
X189171123Y-109721599D01*
X189174800Y-109758932D01*
X189185484Y-109867402D01*
X189185797Y-109870584D01*
X189229253Y-110013845D01*
X189299825Y-110145875D01*
X189370871Y-110232444D01*
X189394799Y-110261600D01*
X189423797Y-110285398D01*
X190190201Y-111051802D01*
X190213999Y-111080801D01*
X190329724Y-111175774D01*
X190461753Y-111246346D01*
X190605014Y-111289803D01*
X190716667Y-111300800D01*
X190716676Y-111300800D01*
X190753999Y-111304476D01*
X190791322Y-111300800D01*
X190978073Y-111300800D01*
X190987128Y-111330651D01*
X191069195Y-111484187D01*
X191179638Y-111618762D01*
X191314213Y-111729205D01*
X191467749Y-111811272D01*
X191634345Y-111861808D01*
X191807599Y-111878872D01*
X192472590Y-111878872D01*
X192472590Y-114099668D01*
X192468914Y-114136990D01*
X192472590Y-114174312D01*
X192472590Y-114174322D01*
X192483587Y-114285975D01*
X192513299Y-114383923D01*
X192527044Y-114429236D01*
X192597616Y-114561266D01*
X192613814Y-114581003D01*
X192692589Y-114676991D01*
X192721593Y-114700794D01*
X192777999Y-114757200D01*
X192112793Y-115422406D01*
X192083789Y-115446209D01*
X192039197Y-115500545D01*
X191988816Y-115561934D01*
X191955746Y-115623803D01*
X191918244Y-115693964D01*
X191874787Y-115837225D01*
X191863790Y-115948878D01*
X191863790Y-115948888D01*
X191860114Y-115986210D01*
X191863790Y-116023532D01*
X191863791Y-129086458D01*
X191860114Y-129123790D01*
X191863791Y-129161123D01*
X191868012Y-129203977D01*
X191370399Y-129701590D01*
X184017410Y-129701590D01*
X184508609Y-129210392D01*
X184537601Y-129186599D01*
X184561395Y-129157606D01*
X184561399Y-129157602D01*
X184632573Y-129070875D01*
X184632574Y-129070874D01*
X184703146Y-128938845D01*
X184746603Y-128795584D01*
X184757600Y-128683931D01*
X184757600Y-128683922D01*
X184761276Y-128646599D01*
X184757600Y-128609276D01*
X184757600Y-128598435D01*
X187303170Y-128598435D01*
X187477223Y-128929354D01*
X187877540Y-129135125D01*
X188310308Y-129258846D01*
X188758898Y-129295759D01*
X189206070Y-129244449D01*
X189634639Y-129106885D01*
X189966777Y-128929354D01*
X190140830Y-128598435D01*
X188722000Y-127179605D01*
X187303170Y-128598435D01*
X184757600Y-128598435D01*
X184757600Y-127931428D01*
X184893199Y-127958400D01*
X185102001Y-127958400D01*
X185306791Y-127917665D01*
X185499698Y-127837760D01*
X185673311Y-127721756D01*
X185820956Y-127574111D01*
X185936960Y-127400498D01*
X186016865Y-127207591D01*
X186050817Y-127036898D01*
X186426241Y-127036898D01*
X186477551Y-127484070D01*
X186615115Y-127912639D01*
X186792646Y-128244777D01*
X187123565Y-128418830D01*
X188542395Y-127000000D01*
X188901605Y-127000000D01*
X190320435Y-128418830D01*
X190651354Y-128244777D01*
X190857125Y-127844460D01*
X190980846Y-127411692D01*
X191017759Y-126963102D01*
X190966449Y-126515930D01*
X190828885Y-126087361D01*
X190651354Y-125755223D01*
X190320435Y-125581170D01*
X188901605Y-127000000D01*
X188542395Y-127000000D01*
X187123565Y-125581170D01*
X186792646Y-125755223D01*
X186586875Y-126155540D01*
X186463154Y-126588308D01*
X186426241Y-127036898D01*
X186050817Y-127036898D01*
X186057600Y-127002801D01*
X186057600Y-126793999D01*
X186016865Y-126589209D01*
X185936960Y-126396302D01*
X185820956Y-126222689D01*
X185757600Y-126159333D01*
X185757600Y-126056122D01*
X185761276Y-126018799D01*
X185757600Y-125981476D01*
X185757600Y-125981467D01*
X185746603Y-125869814D01*
X185703146Y-125726553D01*
X185632574Y-125594524D01*
X185537601Y-125478799D01*
X185508598Y-125454997D01*
X185455166Y-125401565D01*
X187303170Y-125401565D01*
X188722000Y-126820395D01*
X190140830Y-125401565D01*
X189966777Y-125070646D01*
X189566460Y-124864875D01*
X189133692Y-124741154D01*
X188685102Y-124704241D01*
X188237930Y-124755551D01*
X187809361Y-124893115D01*
X187477223Y-125070646D01*
X187303170Y-125401565D01*
X185455166Y-125401565D01*
X185345783Y-125292182D01*
X185321980Y-125263178D01*
X185206255Y-125168205D01*
X185074226Y-125097633D01*
X184930965Y-125054176D01*
X184819312Y-125043179D01*
X184819301Y-125043179D01*
X184781979Y-125039503D01*
X184744657Y-125043179D01*
X179562402Y-125043179D01*
X176411441Y-121892220D01*
X176411441Y-119043400D01*
X176428739Y-119043400D01*
X176628698Y-119003626D01*
X176694612Y-118976323D01*
X176759226Y-119040937D01*
X176928744Y-119154205D01*
X177117102Y-119232226D01*
X177317061Y-119272000D01*
X177520939Y-119272000D01*
X177720898Y-119232226D01*
X177909256Y-119154205D01*
X178078774Y-119040937D01*
X178222937Y-118896774D01*
X178336205Y-118727256D01*
X178414226Y-118538898D01*
X178454000Y-118338939D01*
X178454000Y-118276801D01*
X179123804Y-117606998D01*
X179152801Y-117583201D01*
X179206192Y-117518144D01*
X179247774Y-117467477D01*
X179318346Y-117335447D01*
X179318481Y-117335003D01*
X179361803Y-117192186D01*
X179372503Y-117083547D01*
X179479205Y-116923856D01*
X179557226Y-116735498D01*
X179597000Y-116535539D01*
X179597000Y-116331661D01*
X179557226Y-116131702D01*
X179479205Y-115943344D01*
X179365937Y-115773826D01*
X179221774Y-115629663D01*
X179052256Y-115516395D01*
X178863898Y-115438374D01*
X178663939Y-115398600D01*
X178460061Y-115398600D01*
X178260102Y-115438374D01*
X178071744Y-115516395D01*
X177902226Y-115629663D01*
X177758063Y-115773826D01*
X177644795Y-115943344D01*
X177566774Y-116131702D01*
X177527000Y-116331661D01*
X177527000Y-116535539D01*
X177566774Y-116735498D01*
X177644795Y-116923856D01*
X177649821Y-116931378D01*
X177379199Y-117202000D01*
X177317061Y-117202000D01*
X177117102Y-117241774D01*
X177086800Y-117254326D01*
X177086800Y-113710399D01*
X177126603Y-113579184D01*
X177137600Y-113467531D01*
X177137600Y-113467521D01*
X177141276Y-113430199D01*
X177137600Y-113392876D01*
X177137600Y-111150061D01*
X178593800Y-111150061D01*
X178593800Y-111353939D01*
X178633574Y-111553898D01*
X178711595Y-111742256D01*
X178824863Y-111911774D01*
X178969026Y-112055937D01*
X179138544Y-112169205D01*
X179326902Y-112247226D01*
X179526861Y-112287000D01*
X179722628Y-112287000D01*
X179784614Y-112305803D01*
X179896267Y-112316800D01*
X179896276Y-112316800D01*
X179933599Y-112320476D01*
X179970922Y-112316800D01*
X180757889Y-112316800D01*
X180653663Y-112421026D01*
X180540395Y-112590544D01*
X180462374Y-112778902D01*
X180422600Y-112978861D01*
X180422600Y-113182739D01*
X180462374Y-113382698D01*
X180540395Y-113571056D01*
X180653663Y-113740574D01*
X180797826Y-113884737D01*
X180967344Y-113998005D01*
X181155702Y-114076026D01*
X181355661Y-114115800D01*
X181559539Y-114115800D01*
X181759498Y-114076026D01*
X181947856Y-113998005D01*
X182117374Y-113884737D01*
X182161311Y-113840800D01*
X184022726Y-113840800D01*
X184093595Y-113973387D01*
X184204038Y-114107962D01*
X184338613Y-114218405D01*
X184492149Y-114300472D01*
X184658745Y-114351008D01*
X184831999Y-114368072D01*
X185532001Y-114368072D01*
X185705255Y-114351008D01*
X185871851Y-114300472D01*
X186025387Y-114218405D01*
X186159962Y-114107962D01*
X186182000Y-114081109D01*
X186204038Y-114107962D01*
X186338613Y-114218405D01*
X186492149Y-114300472D01*
X186658745Y-114351008D01*
X186831999Y-114368072D01*
X187532001Y-114368072D01*
X187705255Y-114351008D01*
X187871851Y-114300472D01*
X188025387Y-114218405D01*
X188159962Y-114107962D01*
X188270405Y-113973387D01*
X188352472Y-113819851D01*
X188403008Y-113653255D01*
X188420072Y-113480001D01*
X188420072Y-112579999D01*
X188403008Y-112406745D01*
X188352472Y-112240149D01*
X188270405Y-112086613D01*
X188159962Y-111952038D01*
X188025387Y-111841595D01*
X187942000Y-111797024D01*
X187942000Y-111730525D01*
X187945676Y-111693200D01*
X187942000Y-111655875D01*
X187942000Y-111655867D01*
X187931003Y-111544214D01*
X187887546Y-111400953D01*
X187816974Y-111268924D01*
X187722001Y-111153199D01*
X187692997Y-111129396D01*
X187609404Y-111045803D01*
X187585601Y-111016799D01*
X187469876Y-110921826D01*
X187337847Y-110851254D01*
X187194586Y-110807797D01*
X187082933Y-110796800D01*
X187082922Y-110796800D01*
X187045600Y-110793124D01*
X187008278Y-110796800D01*
X184941643Y-110796800D01*
X184942012Y-110795582D01*
X184954272Y-110671100D01*
X184951200Y-110369350D01*
X184792450Y-110210600D01*
X183718200Y-110210600D01*
X183718200Y-110230600D01*
X183464200Y-110230600D01*
X183464200Y-110210600D01*
X182389950Y-110210600D01*
X182231200Y-110369350D01*
X182228128Y-110671100D01*
X182240388Y-110795582D01*
X182240757Y-110796800D01*
X180560526Y-110796800D01*
X180546005Y-110761744D01*
X180432737Y-110592226D01*
X180288574Y-110448063D01*
X180119056Y-110334795D01*
X179930698Y-110256774D01*
X179730739Y-110217000D01*
X179526861Y-110217000D01*
X179326902Y-110256774D01*
X179138544Y-110334795D01*
X178969026Y-110448063D01*
X178824863Y-110592226D01*
X178711595Y-110761744D01*
X178633574Y-110950102D01*
X178593800Y-111150061D01*
X177137600Y-111150061D01*
X177137600Y-110398401D01*
X177657602Y-109878400D01*
X182311750Y-109878400D01*
X182389950Y-109956600D01*
X183464200Y-109956600D01*
X183464200Y-109936600D01*
X183718200Y-109936600D01*
X183718200Y-109956600D01*
X184792450Y-109956600D01*
X184870650Y-109878400D01*
X186246278Y-109878400D01*
X186283600Y-109882076D01*
X186320922Y-109878400D01*
X186320933Y-109878400D01*
X186432586Y-109867403D01*
X186575847Y-109823946D01*
X186707876Y-109753374D01*
X186823601Y-109658401D01*
X186847404Y-109629397D01*
X188013804Y-108462998D01*
X188042801Y-108439201D01*
X188137774Y-108323476D01*
X188208346Y-108191447D01*
X188251803Y-108048186D01*
X188262800Y-107936533D01*
X188262800Y-107936524D01*
X188266476Y-107899201D01*
X188262800Y-107861878D01*
X188262800Y-104110887D01*
X188318149Y-104140472D01*
G37*
%TD.AperFunction*%
D23*
X179937600Y-126793999D02*
X179937600Y-127002801D01*
X179978335Y-127207591D01*
X180058240Y-127400498D01*
X180124600Y-127499813D01*
X180124600Y-127799650D01*
X180283350Y-127958400D01*
X180422600Y-127961472D01*
X180547082Y-127949212D01*
X180578706Y-127939619D01*
X180575000Y-127958251D01*
X180575000Y-128162129D01*
X180592795Y-128251589D01*
X179848401Y-128251589D01*
X179556719Y-127959908D01*
X179572600Y-127961472D01*
X179711850Y-127958400D01*
X179870600Y-127799650D01*
X179870600Y-127025400D01*
X179850600Y-127025400D01*
X179850600Y-126771400D01*
X179870600Y-126771400D01*
X179870600Y-126751400D01*
X179946073Y-126751400D01*
X179937600Y-126793999D01*
%TA.AperFunction,Conductor*%
D24*
G36*
X179937600Y-126793999D02*
G01*
X179937600Y-127002801D01*
X179978335Y-127207591D01*
X180058240Y-127400498D01*
X180124600Y-127499813D01*
X180124600Y-127799650D01*
X180283350Y-127958400D01*
X180422600Y-127961472D01*
X180547082Y-127949212D01*
X180578706Y-127939619D01*
X180575000Y-127958251D01*
X180575000Y-128162129D01*
X180592795Y-128251589D01*
X179848401Y-128251589D01*
X179556719Y-127959908D01*
X179572600Y-127961472D01*
X179711850Y-127958400D01*
X179870600Y-127799650D01*
X179870600Y-127025400D01*
X179850600Y-127025400D01*
X179850600Y-126771400D01*
X179870600Y-126771400D01*
X179870600Y-126751400D01*
X179946073Y-126751400D01*
X179937600Y-126793999D01*
G37*
%TD.AperFunction*%
D23*
X169851801Y-94681196D02*
X164411203Y-100121796D01*
X164382199Y-100145599D01*
X164350542Y-100184174D01*
X164287226Y-100261324D01*
X164259671Y-100312876D01*
X164216654Y-100393354D01*
X164173197Y-100536615D01*
X164162200Y-100648268D01*
X164162200Y-100648278D01*
X164158524Y-100685600D01*
X164162200Y-100722923D01*
X164162201Y-104661468D01*
X164158524Y-104698800D01*
X164162201Y-104736133D01*
X164172768Y-104843415D01*
X164173198Y-104847785D01*
X164216654Y-104991046D01*
X164287226Y-105123076D01*
X164320200Y-105163254D01*
X164382200Y-105238801D01*
X164411198Y-105262599D01*
X167001996Y-107853399D01*
X167002007Y-107853408D01*
X167228596Y-108079997D01*
X167252399Y-108109001D01*
X167368124Y-108203974D01*
X167500153Y-108274546D01*
X167643414Y-108318003D01*
X167755067Y-108329000D01*
X167755076Y-108329000D01*
X167792399Y-108332676D01*
X167829722Y-108329000D01*
X168632192Y-108329000D01*
X168719785Y-108416593D01*
X168455386Y-108512356D01*
X168314496Y-108801971D01*
X168232816Y-109113508D01*
X168213482Y-109434995D01*
X168257239Y-109754075D01*
X168362405Y-110058488D01*
X168455386Y-110232444D01*
X168719787Y-110328208D01*
X169675595Y-109372400D01*
X169661453Y-109358258D01*
X169841058Y-109178653D01*
X169855200Y-109192795D01*
X169869343Y-109178653D01*
X170048948Y-109358258D01*
X170034805Y-109372400D01*
X170990613Y-110328208D01*
X171255014Y-110232444D01*
X171395904Y-109942829D01*
X171477584Y-109631292D01*
X171496918Y-109309805D01*
X171453161Y-108990725D01*
X171347995Y-108686312D01*
X171255014Y-108512356D01*
X170990615Y-108416593D01*
X171078208Y-108329000D01*
X171390173Y-108329000D01*
X171408063Y-108355774D01*
X171552226Y-108499937D01*
X171721744Y-108613205D01*
X171910102Y-108691226D01*
X172110061Y-108731000D01*
X172313939Y-108731000D01*
X172513898Y-108691226D01*
X172702256Y-108613205D01*
X172871774Y-108499937D01*
X173015937Y-108355774D01*
X173128401Y-108187460D01*
X173128400Y-114797998D01*
X172724122Y-115202277D01*
X172603145Y-115214192D01*
X172436549Y-115264728D01*
X172283013Y-115346795D01*
X172148438Y-115457238D01*
X172126400Y-115484091D01*
X172104362Y-115457238D01*
X171969787Y-115346795D01*
X171816251Y-115264728D01*
X171649655Y-115214192D01*
X171476401Y-115197128D01*
X170776399Y-115197128D01*
X170603145Y-115214192D01*
X170436549Y-115264728D01*
X170283013Y-115346795D01*
X170148438Y-115457238D01*
X170037995Y-115591813D01*
X169955928Y-115745349D01*
X169946873Y-115775200D01*
X169732802Y-115775200D01*
X164465415Y-110507813D01*
X168899392Y-110507813D01*
X168995156Y-110772214D01*
X169284771Y-110913104D01*
X169596308Y-110994784D01*
X169917795Y-111014118D01*
X170236875Y-110970361D01*
X170541288Y-110865195D01*
X170715244Y-110772214D01*
X170811008Y-110507813D01*
X169855200Y-109552005D01*
X168899392Y-110507813D01*
X164465415Y-110507813D01*
X163893272Y-109935671D01*
X163893272Y-108372400D01*
X163881012Y-108247918D01*
X163844702Y-108128220D01*
X163785737Y-108017906D01*
X163706385Y-107921215D01*
X163609694Y-107841863D01*
X163499380Y-107782898D01*
X163379682Y-107746588D01*
X163255200Y-107734328D01*
X161255200Y-107734328D01*
X161130718Y-107746588D01*
X161011020Y-107782898D01*
X160900706Y-107841863D01*
X160804015Y-107921215D01*
X160724663Y-108017906D01*
X160665698Y-108128220D01*
X160629388Y-108247918D01*
X160617128Y-108372400D01*
X160617128Y-110372400D01*
X160629388Y-110496882D01*
X160665698Y-110616580D01*
X160724663Y-110726894D01*
X160804015Y-110823585D01*
X160900706Y-110902937D01*
X161011020Y-110961902D01*
X161130718Y-110998212D01*
X161255200Y-111010472D01*
X162818471Y-111010472D01*
X167633998Y-115826000D01*
X164587127Y-115826000D01*
X164578072Y-115796149D01*
X164496005Y-115642613D01*
X164385562Y-115508038D01*
X164250987Y-115397595D01*
X164097451Y-115315528D01*
X163930855Y-115264992D01*
X163757601Y-115247928D01*
X163057599Y-115247928D01*
X162884345Y-115264992D01*
X162717749Y-115315528D01*
X162564213Y-115397595D01*
X162429638Y-115508038D01*
X162407600Y-115534891D01*
X162385562Y-115508038D01*
X162250987Y-115397595D01*
X162238878Y-115391123D01*
X162549002Y-115081000D01*
X162611139Y-115081000D01*
X162811098Y-115041226D01*
X162999456Y-114963205D01*
X163168974Y-114849937D01*
X163313137Y-114705774D01*
X163426405Y-114536256D01*
X163504426Y-114347898D01*
X163544200Y-114147939D01*
X163544200Y-113944061D01*
X163504426Y-113744102D01*
X163426405Y-113555744D01*
X163313137Y-113386226D01*
X163168974Y-113242063D01*
X162999456Y-113128795D01*
X162811098Y-113050774D01*
X162611139Y-113011000D01*
X162407261Y-113011000D01*
X162207302Y-113050774D01*
X162018944Y-113128795D01*
X161849426Y-113242063D01*
X161705263Y-113386226D01*
X161591995Y-113555744D01*
X161513974Y-113744102D01*
X161474200Y-113944061D01*
X161474200Y-114006198D01*
X160896602Y-114583796D01*
X160867599Y-114607599D01*
X160836074Y-114646013D01*
X160772626Y-114723324D01*
X160734315Y-114794999D01*
X160702054Y-114855354D01*
X160658597Y-114998615D01*
X160647600Y-115110268D01*
X160647600Y-115110278D01*
X160643924Y-115147600D01*
X160647600Y-115184923D01*
X160647600Y-115353023D01*
X160564213Y-115397595D01*
X160429638Y-115508038D01*
X160319195Y-115642613D01*
X160237128Y-115796149D01*
X160186592Y-115962745D01*
X160169528Y-116135999D01*
X160169528Y-117036001D01*
X160186592Y-117209255D01*
X160237128Y-117375851D01*
X160276762Y-117450000D01*
X153063836Y-117450000D01*
X159377027Y-108502528D01*
X159403025Y-108470850D01*
X159429714Y-108420918D01*
X159457663Y-108371682D01*
X159460324Y-108363650D01*
X159464310Y-108356193D01*
X159480747Y-108302007D01*
X159498551Y-108248271D01*
X159499593Y-108239882D01*
X159502050Y-108231783D01*
X159507603Y-108175405D01*
X159514578Y-108119254D01*
X159513963Y-108110823D01*
X159514793Y-108102400D01*
X159509240Y-108046021D01*
X159505127Y-107989589D01*
X159502880Y-107981441D01*
X159502050Y-107973017D01*
X159485604Y-107918803D01*
X159470561Y-107864260D01*
X159466767Y-107856706D01*
X159464310Y-107848607D01*
X159437600Y-107798637D01*
X159412209Y-107748083D01*
X159407016Y-107741417D01*
X159403025Y-107733950D01*
X159367090Y-107690163D01*
X159332314Y-107645521D01*
X159325914Y-107639991D01*
X159320548Y-107633452D01*
X159276773Y-107597526D01*
X159233944Y-107560517D01*
X159226591Y-107556343D01*
X159220050Y-107550975D01*
X159170099Y-107524276D01*
X159120880Y-107496337D01*
X159112854Y-107493678D01*
X159105393Y-107489690D01*
X159051183Y-107473245D01*
X158997469Y-107455449D01*
X158989084Y-107454407D01*
X158980983Y-107451950D01*
X158924599Y-107446397D01*
X158868453Y-107439422D01*
X158827596Y-107442400D01*
X158087759Y-107442400D01*
X164356139Y-98494061D01*
X164381425Y-98463250D01*
X164408645Y-98412325D01*
X164436974Y-98362022D01*
X164439256Y-98355055D01*
X164442710Y-98348593D01*
X164459474Y-98293332D01*
X164477443Y-98238472D01*
X164478321Y-98231201D01*
X164480450Y-98224183D01*
X164486114Y-98166677D01*
X164493031Y-98109402D01*
X164492474Y-98102101D01*
X164493193Y-98094800D01*
X164487529Y-98037290D01*
X164483140Y-97979770D01*
X164481169Y-97972717D01*
X164480450Y-97965417D01*
X164463680Y-97910133D01*
X164448149Y-97854559D01*
X164444838Y-97848023D01*
X164442710Y-97841007D01*
X164415469Y-97790042D01*
X164389402Y-97738581D01*
X164384884Y-97732822D01*
X164381425Y-97726350D01*
X164344766Y-97681681D01*
X164309159Y-97636291D01*
X164303600Y-97631520D01*
X164298948Y-97625852D01*
X164254275Y-97589189D01*
X164210500Y-97551622D01*
X164204123Y-97548030D01*
X164198450Y-97543375D01*
X164147487Y-97516135D01*
X164097220Y-97487826D01*
X164090258Y-97485546D01*
X164083793Y-97482090D01*
X164028512Y-97465320D01*
X163973671Y-97447357D01*
X163966401Y-97446479D01*
X163959383Y-97444350D01*
X163901873Y-97438686D01*
X163844601Y-97431769D01*
X163804877Y-97434800D01*
X163116959Y-97434800D01*
X169390084Y-88479688D01*
X169419661Y-88441753D01*
X169441886Y-88397549D01*
X169466174Y-88354422D01*
X169471042Y-88339560D01*
X169478061Y-88325600D01*
X169491236Y-88277908D01*
X169506643Y-88230872D01*
X169508517Y-88215355D01*
X169512680Y-88200286D01*
X169516299Y-88150921D01*
X169522231Y-88101802D01*
X169521042Y-88086218D01*
X169522185Y-88070626D01*
X169516104Y-88021506D01*
X169512340Y-87972170D01*
X169508134Y-87957119D01*
X169506213Y-87941602D01*
X169490667Y-87894617D01*
X169477349Y-87846959D01*
X169470284Y-87833012D01*
X169465375Y-87818174D01*
X169440960Y-87775120D01*
X169418602Y-87730981D01*
X169408959Y-87718688D01*
X169401244Y-87705084D01*
X169368897Y-87667619D01*
X169338359Y-87628691D01*
X169326496Y-87618510D01*
X169316281Y-87606679D01*
X169277245Y-87576243D01*
X169239700Y-87544022D01*
X169226086Y-87536355D01*
X169213753Y-87526739D01*
X169169531Y-87504505D01*
X169126420Y-87480226D01*
X169111564Y-87475360D01*
X169097600Y-87468339D01*
X169049899Y-87455161D01*
X169002871Y-87439757D01*
X168987356Y-87437883D01*
X168972286Y-87433720D01*
X168922912Y-87430100D01*
X168873801Y-87424169D01*
X168825851Y-87427828D01*
X168114256Y-87445618D01*
X169851800Y-84952619D01*
X169851801Y-94681196D01*
%TA.AperFunction,Conductor*%
D24*
G36*
X169851801Y-94681196D02*
G01*
X164411203Y-100121796D01*
X164382199Y-100145599D01*
X164350542Y-100184174D01*
X164287226Y-100261324D01*
X164259671Y-100312876D01*
X164216654Y-100393354D01*
X164173197Y-100536615D01*
X164162200Y-100648268D01*
X164162200Y-100648278D01*
X164158524Y-100685600D01*
X164162200Y-100722923D01*
X164162201Y-104661468D01*
X164158524Y-104698800D01*
X164162201Y-104736133D01*
X164172768Y-104843415D01*
X164173198Y-104847785D01*
X164216654Y-104991046D01*
X164287226Y-105123076D01*
X164320200Y-105163254D01*
X164382200Y-105238801D01*
X164411198Y-105262599D01*
X167001996Y-107853399D01*
X167002007Y-107853408D01*
X167228596Y-108079997D01*
X167252399Y-108109001D01*
X167368124Y-108203974D01*
X167500153Y-108274546D01*
X167643414Y-108318003D01*
X167755067Y-108329000D01*
X167755076Y-108329000D01*
X167792399Y-108332676D01*
X167829722Y-108329000D01*
X168632192Y-108329000D01*
X168719785Y-108416593D01*
X168455386Y-108512356D01*
X168314496Y-108801971D01*
X168232816Y-109113508D01*
X168213482Y-109434995D01*
X168257239Y-109754075D01*
X168362405Y-110058488D01*
X168455386Y-110232444D01*
X168719787Y-110328208D01*
X169675595Y-109372400D01*
X169661453Y-109358258D01*
X169841058Y-109178653D01*
X169855200Y-109192795D01*
X169869343Y-109178653D01*
X170048948Y-109358258D01*
X170034805Y-109372400D01*
X170990613Y-110328208D01*
X171255014Y-110232444D01*
X171395904Y-109942829D01*
X171477584Y-109631292D01*
X171496918Y-109309805D01*
X171453161Y-108990725D01*
X171347995Y-108686312D01*
X171255014Y-108512356D01*
X170990615Y-108416593D01*
X171078208Y-108329000D01*
X171390173Y-108329000D01*
X171408063Y-108355774D01*
X171552226Y-108499937D01*
X171721744Y-108613205D01*
X171910102Y-108691226D01*
X172110061Y-108731000D01*
X172313939Y-108731000D01*
X172513898Y-108691226D01*
X172702256Y-108613205D01*
X172871774Y-108499937D01*
X173015937Y-108355774D01*
X173128401Y-108187460D01*
X173128400Y-114797998D01*
X172724122Y-115202277D01*
X172603145Y-115214192D01*
X172436549Y-115264728D01*
X172283013Y-115346795D01*
X172148438Y-115457238D01*
X172126400Y-115484091D01*
X172104362Y-115457238D01*
X171969787Y-115346795D01*
X171816251Y-115264728D01*
X171649655Y-115214192D01*
X171476401Y-115197128D01*
X170776399Y-115197128D01*
X170603145Y-115214192D01*
X170436549Y-115264728D01*
X170283013Y-115346795D01*
X170148438Y-115457238D01*
X170037995Y-115591813D01*
X169955928Y-115745349D01*
X169946873Y-115775200D01*
X169732802Y-115775200D01*
X164465415Y-110507813D01*
X168899392Y-110507813D01*
X168995156Y-110772214D01*
X169284771Y-110913104D01*
X169596308Y-110994784D01*
X169917795Y-111014118D01*
X170236875Y-110970361D01*
X170541288Y-110865195D01*
X170715244Y-110772214D01*
X170811008Y-110507813D01*
X169855200Y-109552005D01*
X168899392Y-110507813D01*
X164465415Y-110507813D01*
X163893272Y-109935671D01*
X163893272Y-108372400D01*
X163881012Y-108247918D01*
X163844702Y-108128220D01*
X163785737Y-108017906D01*
X163706385Y-107921215D01*
X163609694Y-107841863D01*
X163499380Y-107782898D01*
X163379682Y-107746588D01*
X163255200Y-107734328D01*
X161255200Y-107734328D01*
X161130718Y-107746588D01*
X161011020Y-107782898D01*
X160900706Y-107841863D01*
X160804015Y-107921215D01*
X160724663Y-108017906D01*
X160665698Y-108128220D01*
X160629388Y-108247918D01*
X160617128Y-108372400D01*
X160617128Y-110372400D01*
X160629388Y-110496882D01*
X160665698Y-110616580D01*
X160724663Y-110726894D01*
X160804015Y-110823585D01*
X160900706Y-110902937D01*
X161011020Y-110961902D01*
X161130718Y-110998212D01*
X161255200Y-111010472D01*
X162818471Y-111010472D01*
X167633998Y-115826000D01*
X164587127Y-115826000D01*
X164578072Y-115796149D01*
X164496005Y-115642613D01*
X164385562Y-115508038D01*
X164250987Y-115397595D01*
X164097451Y-115315528D01*
X163930855Y-115264992D01*
X163757601Y-115247928D01*
X163057599Y-115247928D01*
X162884345Y-115264992D01*
X162717749Y-115315528D01*
X162564213Y-115397595D01*
X162429638Y-115508038D01*
X162407600Y-115534891D01*
X162385562Y-115508038D01*
X162250987Y-115397595D01*
X162238878Y-115391123D01*
X162549002Y-115081000D01*
X162611139Y-115081000D01*
X162811098Y-115041226D01*
X162999456Y-114963205D01*
X163168974Y-114849937D01*
X163313137Y-114705774D01*
X163426405Y-114536256D01*
X163504426Y-114347898D01*
X163544200Y-114147939D01*
X163544200Y-113944061D01*
X163504426Y-113744102D01*
X163426405Y-113555744D01*
X163313137Y-113386226D01*
X163168974Y-113242063D01*
X162999456Y-113128795D01*
X162811098Y-113050774D01*
X162611139Y-113011000D01*
X162407261Y-113011000D01*
X162207302Y-113050774D01*
X162018944Y-113128795D01*
X161849426Y-113242063D01*
X161705263Y-113386226D01*
X161591995Y-113555744D01*
X161513974Y-113744102D01*
X161474200Y-113944061D01*
X161474200Y-114006198D01*
X160896602Y-114583796D01*
X160867599Y-114607599D01*
X160836074Y-114646013D01*
X160772626Y-114723324D01*
X160734315Y-114794999D01*
X160702054Y-114855354D01*
X160658597Y-114998615D01*
X160647600Y-115110268D01*
X160647600Y-115110278D01*
X160643924Y-115147600D01*
X160647600Y-115184923D01*
X160647600Y-115353023D01*
X160564213Y-115397595D01*
X160429638Y-115508038D01*
X160319195Y-115642613D01*
X160237128Y-115796149D01*
X160186592Y-115962745D01*
X160169528Y-116135999D01*
X160169528Y-117036001D01*
X160186592Y-117209255D01*
X160237128Y-117375851D01*
X160276762Y-117450000D01*
X153063836Y-117450000D01*
X159377027Y-108502528D01*
X159403025Y-108470850D01*
X159429714Y-108420918D01*
X159457663Y-108371682D01*
X159460324Y-108363650D01*
X159464310Y-108356193D01*
X159480747Y-108302007D01*
X159498551Y-108248271D01*
X159499593Y-108239882D01*
X159502050Y-108231783D01*
X159507603Y-108175405D01*
X159514578Y-108119254D01*
X159513963Y-108110823D01*
X159514793Y-108102400D01*
X159509240Y-108046021D01*
X159505127Y-107989589D01*
X159502880Y-107981441D01*
X159502050Y-107973017D01*
X159485604Y-107918803D01*
X159470561Y-107864260D01*
X159466767Y-107856706D01*
X159464310Y-107848607D01*
X159437600Y-107798637D01*
X159412209Y-107748083D01*
X159407016Y-107741417D01*
X159403025Y-107733950D01*
X159367090Y-107690163D01*
X159332314Y-107645521D01*
X159325914Y-107639991D01*
X159320548Y-107633452D01*
X159276773Y-107597526D01*
X159233944Y-107560517D01*
X159226591Y-107556343D01*
X159220050Y-107550975D01*
X159170099Y-107524276D01*
X159120880Y-107496337D01*
X159112854Y-107493678D01*
X159105393Y-107489690D01*
X159051183Y-107473245D01*
X158997469Y-107455449D01*
X158989084Y-107454407D01*
X158980983Y-107451950D01*
X158924599Y-107446397D01*
X158868453Y-107439422D01*
X158827596Y-107442400D01*
X158087759Y-107442400D01*
X164356139Y-98494061D01*
X164381425Y-98463250D01*
X164408645Y-98412325D01*
X164436974Y-98362022D01*
X164439256Y-98355055D01*
X164442710Y-98348593D01*
X164459474Y-98293332D01*
X164477443Y-98238472D01*
X164478321Y-98231201D01*
X164480450Y-98224183D01*
X164486114Y-98166677D01*
X164493031Y-98109402D01*
X164492474Y-98102101D01*
X164493193Y-98094800D01*
X164487529Y-98037290D01*
X164483140Y-97979770D01*
X164481169Y-97972717D01*
X164480450Y-97965417D01*
X164463680Y-97910133D01*
X164448149Y-97854559D01*
X164444838Y-97848023D01*
X164442710Y-97841007D01*
X164415469Y-97790042D01*
X164389402Y-97738581D01*
X164384884Y-97732822D01*
X164381425Y-97726350D01*
X164344766Y-97681681D01*
X164309159Y-97636291D01*
X164303600Y-97631520D01*
X164298948Y-97625852D01*
X164254275Y-97589189D01*
X164210500Y-97551622D01*
X164204123Y-97548030D01*
X164198450Y-97543375D01*
X164147487Y-97516135D01*
X164097220Y-97487826D01*
X164090258Y-97485546D01*
X164083793Y-97482090D01*
X164028512Y-97465320D01*
X163973671Y-97447357D01*
X163966401Y-97446479D01*
X163959383Y-97444350D01*
X163901873Y-97438686D01*
X163844601Y-97431769D01*
X163804877Y-97434800D01*
X163116959Y-97434800D01*
X169390084Y-88479688D01*
X169419661Y-88441753D01*
X169441886Y-88397549D01*
X169466174Y-88354422D01*
X169471042Y-88339560D01*
X169478061Y-88325600D01*
X169491236Y-88277908D01*
X169506643Y-88230872D01*
X169508517Y-88215355D01*
X169512680Y-88200286D01*
X169516299Y-88150921D01*
X169522231Y-88101802D01*
X169521042Y-88086218D01*
X169522185Y-88070626D01*
X169516104Y-88021506D01*
X169512340Y-87972170D01*
X169508134Y-87957119D01*
X169506213Y-87941602D01*
X169490667Y-87894617D01*
X169477349Y-87846959D01*
X169470284Y-87833012D01*
X169465375Y-87818174D01*
X169440960Y-87775120D01*
X169418602Y-87730981D01*
X169408959Y-87718688D01*
X169401244Y-87705084D01*
X169368897Y-87667619D01*
X169338359Y-87628691D01*
X169326496Y-87618510D01*
X169316281Y-87606679D01*
X169277245Y-87576243D01*
X169239700Y-87544022D01*
X169226086Y-87536355D01*
X169213753Y-87526739D01*
X169169531Y-87504505D01*
X169126420Y-87480226D01*
X169111564Y-87475360D01*
X169097600Y-87468339D01*
X169049899Y-87455161D01*
X169002871Y-87439757D01*
X168987356Y-87437883D01*
X168972286Y-87433720D01*
X168922912Y-87430100D01*
X168873801Y-87424169D01*
X168825851Y-87427828D01*
X168114256Y-87445618D01*
X169851800Y-84952619D01*
X169851801Y-94681196D01*
G37*
%TD.AperFunction*%
D23*
X210827108Y-117450000D02*
X203309201Y-117450000D01*
X205592766Y-115166436D01*
X205556696Y-115253517D01*
X205515000Y-115463137D01*
X205515000Y-115676863D01*
X205556696Y-115886483D01*
X205638485Y-116083940D01*
X205757225Y-116261647D01*
X205908353Y-116412775D01*
X206086060Y-116531515D01*
X206283517Y-116613304D01*
X206493137Y-116655000D01*
X206706863Y-116655000D01*
X206916483Y-116613304D01*
X207113940Y-116531515D01*
X207291647Y-116412775D01*
X207442775Y-116261647D01*
X207561515Y-116083940D01*
X207643304Y-115886483D01*
X207685000Y-115676863D01*
X207685000Y-115463137D01*
X207643304Y-115253517D01*
X207561515Y-115056060D01*
X207442775Y-114878353D01*
X207291647Y-114727225D01*
X207113940Y-114608485D01*
X206916483Y-114526696D01*
X206791986Y-114501932D01*
X206855537Y-114424494D01*
X206914502Y-114314180D01*
X206950812Y-114194482D01*
X206963072Y-114070000D01*
X206963072Y-111893685D01*
X210827108Y-117450000D01*
%TA.AperFunction,Conductor*%
D24*
G36*
X210827108Y-117450000D02*
G01*
X203309201Y-117450000D01*
X205592766Y-115166436D01*
X205556696Y-115253517D01*
X205515000Y-115463137D01*
X205515000Y-115676863D01*
X205556696Y-115886483D01*
X205638485Y-116083940D01*
X205757225Y-116261647D01*
X205908353Y-116412775D01*
X206086060Y-116531515D01*
X206283517Y-116613304D01*
X206493137Y-116655000D01*
X206706863Y-116655000D01*
X206916483Y-116613304D01*
X207113940Y-116531515D01*
X207291647Y-116412775D01*
X207442775Y-116261647D01*
X207561515Y-116083940D01*
X207643304Y-115886483D01*
X207685000Y-115676863D01*
X207685000Y-115463137D01*
X207643304Y-115253517D01*
X207561515Y-115056060D01*
X207442775Y-114878353D01*
X207291647Y-114727225D01*
X207113940Y-114608485D01*
X206916483Y-114526696D01*
X206791986Y-114501932D01*
X206855537Y-114424494D01*
X206914502Y-114314180D01*
X206950812Y-114194482D01*
X206963072Y-114070000D01*
X206963072Y-111893685D01*
X210827108Y-117450000D01*
G37*
%TD.AperFunction*%
D23*
X192751676Y-86476778D02*
X192755768Y-86601795D01*
X192784171Y-86723612D01*
X192835795Y-86837546D01*
X192989330Y-87097333D01*
X193206187Y-87155440D01*
X194136515Y-86618315D01*
X194126515Y-86600994D01*
X194346485Y-86473994D01*
X194356485Y-86491315D01*
X194373806Y-86481315D01*
X194500806Y-86701285D01*
X194483485Y-86711285D01*
X194493485Y-86728606D01*
X194273515Y-86855606D01*
X194263515Y-86838285D01*
X193333187Y-87375410D01*
X193275080Y-87592267D01*
X193423295Y-87855126D01*
X193496153Y-87956800D01*
X193587448Y-88042307D01*
X193693670Y-88108359D01*
X193810736Y-88152420D01*
X193934149Y-88172795D01*
X194059166Y-88168704D01*
X194180983Y-88140300D01*
X194294918Y-88088676D01*
X194524275Y-87954109D01*
X194523150Y-87957817D01*
X194522431Y-87965117D01*
X194520460Y-87972170D01*
X194516069Y-88029712D01*
X194510407Y-88087200D01*
X194511126Y-88094495D01*
X194510568Y-88101801D01*
X194517488Y-88159097D01*
X194523150Y-88216583D01*
X194525279Y-88223601D01*
X194526157Y-88230871D01*
X194544120Y-88285712D01*
X194560890Y-88340993D01*
X194564346Y-88347458D01*
X194566626Y-88354420D01*
X194594945Y-88404707D01*
X194622175Y-88455650D01*
X194647464Y-88486464D01*
X198932687Y-94603777D01*
X198741567Y-94716730D01*
X198683460Y-94933587D01*
X199220585Y-95863915D01*
X199237906Y-95853915D01*
X199364906Y-96073885D01*
X199347585Y-96083885D01*
X199884710Y-97014213D01*
X200101567Y-97072320D01*
X200364426Y-96924105D01*
X200466100Y-96851247D01*
X200489531Y-96826229D01*
X200915840Y-97434800D01*
X200178259Y-97434800D01*
X200139662Y-97431722D01*
X200081218Y-97438578D01*
X200022617Y-97444350D01*
X200016687Y-97446149D01*
X200010540Y-97446870D01*
X199954551Y-97464998D01*
X199898207Y-97482090D01*
X199892746Y-97485009D01*
X199886853Y-97486917D01*
X199835491Y-97515612D01*
X199783550Y-97543375D01*
X199778757Y-97547309D01*
X199773356Y-97550326D01*
X199728593Y-97588478D01*
X199683052Y-97625852D01*
X199679121Y-97630642D01*
X199674409Y-97634658D01*
X199637948Y-97680812D01*
X199600575Y-97726350D01*
X199597652Y-97731819D01*
X199593817Y-97736673D01*
X199567062Y-97789049D01*
X199539290Y-97841007D01*
X199537491Y-97846937D01*
X199534675Y-97852450D01*
X199518654Y-97909032D01*
X199501550Y-97965417D01*
X199500942Y-97971590D01*
X199499257Y-97977541D01*
X199494582Y-98036170D01*
X199488807Y-98094800D01*
X199489414Y-98100965D01*
X199488922Y-98107138D01*
X199495778Y-98165581D01*
X199501550Y-98224183D01*
X199503349Y-98230113D01*
X199504070Y-98236260D01*
X199522198Y-98292249D01*
X199539290Y-98348593D01*
X199542209Y-98354054D01*
X199544117Y-98359947D01*
X199572814Y-98411313D01*
X199600575Y-98463250D01*
X199625149Y-98493193D01*
X205848708Y-107442400D01*
X205156659Y-107442400D01*
X205118062Y-107439322D01*
X205059618Y-107446178D01*
X205001017Y-107451950D01*
X204995087Y-107453749D01*
X204988940Y-107454470D01*
X204932951Y-107472598D01*
X204876607Y-107489690D01*
X204871146Y-107492609D01*
X204865253Y-107494517D01*
X204813891Y-107523212D01*
X204761950Y-107550975D01*
X204757157Y-107554909D01*
X204751756Y-107557926D01*
X204706993Y-107596077D01*
X204661452Y-107633452D01*
X204657521Y-107638242D01*
X204652809Y-107642258D01*
X204616348Y-107688412D01*
X204578975Y-107733950D01*
X204576052Y-107739419D01*
X204572217Y-107744273D01*
X204545462Y-107796649D01*
X204517690Y-107848607D01*
X204515891Y-107854537D01*
X204513075Y-107860050D01*
X204497054Y-107916632D01*
X204479950Y-107973017D01*
X204479342Y-107979190D01*
X204477657Y-107985141D01*
X204472982Y-108043770D01*
X204467207Y-108102400D01*
X204467814Y-108108565D01*
X204467322Y-108114738D01*
X204474178Y-108173181D01*
X204479950Y-108231783D01*
X204481749Y-108237713D01*
X204482470Y-108243860D01*
X204500598Y-108299849D01*
X204517690Y-108356193D01*
X204520609Y-108361654D01*
X204522517Y-108367547D01*
X204551214Y-108418913D01*
X204578975Y-108470850D01*
X204603549Y-108500793D01*
X206294236Y-110931928D01*
X205075000Y-110931928D01*
X204950518Y-110944188D01*
X204830820Y-110980498D01*
X204720506Y-111039463D01*
X204623815Y-111118815D01*
X204544463Y-111215506D01*
X204485498Y-111325820D01*
X204450000Y-111442841D01*
X204414502Y-111325820D01*
X204355537Y-111215506D01*
X204276185Y-111118815D01*
X204179494Y-111039463D01*
X204069180Y-110980498D01*
X203949482Y-110944188D01*
X203825000Y-110931928D01*
X203502800Y-110931928D01*
X203502800Y-107270894D01*
X203573686Y-107233005D01*
X203708262Y-107122562D01*
X203818705Y-106987986D01*
X203900772Y-106834450D01*
X203951308Y-106667854D01*
X203968372Y-106494600D01*
X203968372Y-105544600D01*
X203951308Y-105371346D01*
X203900772Y-105204750D01*
X203818705Y-105051214D01*
X203708262Y-104916638D01*
X203573686Y-104806195D01*
X203420150Y-104724128D01*
X203253554Y-104673592D01*
X203080300Y-104656528D01*
X202405300Y-104656528D01*
X202232046Y-104673592D01*
X202065450Y-104724128D01*
X201911914Y-104806195D01*
X201777338Y-104916638D01*
X201771958Y-104923194D01*
X201706485Y-104843415D01*
X201609794Y-104764063D01*
X201499480Y-104705098D01*
X201379782Y-104668788D01*
X201255300Y-104656528D01*
X200953550Y-104659600D01*
X200794800Y-104818350D01*
X200794800Y-105892600D01*
X200814800Y-105892600D01*
X200814800Y-106146600D01*
X200794800Y-106146600D01*
X200794800Y-107220850D01*
X200953550Y-107379600D01*
X201255300Y-107382672D01*
X201379782Y-107370412D01*
X201499480Y-107334102D01*
X201609794Y-107275137D01*
X201706485Y-107195785D01*
X201771958Y-107116006D01*
X201777338Y-107122562D01*
X201911914Y-107233005D01*
X201982800Y-107270895D01*
X201982801Y-111334711D01*
X201950000Y-111442841D01*
X201914502Y-111325820D01*
X201855537Y-111215506D01*
X201776185Y-111118815D01*
X201679494Y-111039463D01*
X201569180Y-110980498D01*
X201449482Y-110944188D01*
X201325000Y-110931928D01*
X200075000Y-110931928D01*
X199950518Y-110944188D01*
X199830820Y-110980498D01*
X199720506Y-111039463D01*
X199623815Y-111118815D01*
X199544463Y-111215506D01*
X199485498Y-111325820D01*
X199449188Y-111445518D01*
X199436928Y-111570000D01*
X199436928Y-113635001D01*
X193992590Y-113635001D01*
X193992590Y-111878872D01*
X194507601Y-111878872D01*
X194680855Y-111861808D01*
X194847451Y-111811272D01*
X195000987Y-111729205D01*
X195135562Y-111618762D01*
X195246005Y-111484187D01*
X195328072Y-111330651D01*
X195337127Y-111300800D01*
X198590678Y-111300800D01*
X198628000Y-111304476D01*
X198665322Y-111300800D01*
X198665333Y-111300800D01*
X198776986Y-111289803D01*
X198920247Y-111246346D01*
X199052276Y-111175774D01*
X199168001Y-111080801D01*
X199191804Y-111051797D01*
X199937802Y-110305800D01*
X199999939Y-110305800D01*
X200199898Y-110266026D01*
X200388256Y-110188005D01*
X200557774Y-110074737D01*
X200701937Y-109930574D01*
X200815205Y-109761056D01*
X200893226Y-109572698D01*
X200933000Y-109372739D01*
X200933000Y-109168861D01*
X200893226Y-108968902D01*
X200815205Y-108780544D01*
X200701937Y-108611026D01*
X200557774Y-108466863D01*
X200388256Y-108353595D01*
X200199898Y-108275574D01*
X199999939Y-108235800D01*
X199796061Y-108235800D01*
X199596102Y-108275574D01*
X199407744Y-108353595D01*
X199238226Y-108466863D01*
X199094063Y-108611026D01*
X198980795Y-108780544D01*
X198902774Y-108968902D01*
X198863000Y-109168861D01*
X198863000Y-109230998D01*
X198313199Y-109780800D01*
X197478234Y-109780800D01*
X197533085Y-109735785D01*
X197612437Y-109639094D01*
X197671402Y-109528780D01*
X197707712Y-109409082D01*
X197719972Y-109284600D01*
X197716900Y-108845350D01*
X197558150Y-108686600D01*
X196621400Y-108686600D01*
X196621400Y-108706600D01*
X196367400Y-108706600D01*
X196367400Y-108686600D01*
X196347400Y-108686600D01*
X196347400Y-108432600D01*
X196367400Y-108432600D01*
X196367400Y-108412600D01*
X196621400Y-108412600D01*
X196621400Y-108432600D01*
X197558150Y-108432600D01*
X197716900Y-108273850D01*
X197719972Y-107834600D01*
X197707712Y-107710118D01*
X197671402Y-107590420D01*
X197667023Y-107582227D01*
X197753000Y-107496250D01*
X197753000Y-106147000D01*
X198007000Y-106147000D01*
X198007000Y-107496250D01*
X198165750Y-107655000D01*
X198630000Y-107658072D01*
X198754482Y-107645812D01*
X198874180Y-107609502D01*
X198984494Y-107550537D01*
X199081185Y-107471185D01*
X199160537Y-107374494D01*
X199219502Y-107264180D01*
X199255812Y-107144482D01*
X199268072Y-107020000D01*
X199266888Y-106744600D01*
X199442228Y-106744600D01*
X199454488Y-106869082D01*
X199490798Y-106988780D01*
X199549763Y-107099094D01*
X199629115Y-107195785D01*
X199725806Y-107275137D01*
X199836120Y-107334102D01*
X199955818Y-107370412D01*
X200080300Y-107382672D01*
X200382050Y-107379600D01*
X200540800Y-107220850D01*
X200540800Y-106146600D01*
X199604050Y-106146600D01*
X199445300Y-106305350D01*
X199442228Y-106744600D01*
X199266888Y-106744600D01*
X199265000Y-106305750D01*
X199106250Y-106147000D01*
X198007000Y-106147000D01*
X197753000Y-106147000D01*
X197733000Y-106147000D01*
X197733000Y-105893000D01*
X197753000Y-105893000D01*
X197753000Y-104543750D01*
X198007000Y-104543750D01*
X198007000Y-105893000D01*
X199106250Y-105893000D01*
X199265000Y-105734250D01*
X199266890Y-105294600D01*
X199442228Y-105294600D01*
X199445300Y-105733850D01*
X199604050Y-105892600D01*
X200540800Y-105892600D01*
X200540800Y-104818350D01*
X200382050Y-104659600D01*
X200080300Y-104656528D01*
X199955818Y-104668788D01*
X199836120Y-104705098D01*
X199725806Y-104764063D01*
X199629115Y-104843415D01*
X199549763Y-104940106D01*
X199490798Y-105050420D01*
X199454488Y-105170118D01*
X199442228Y-105294600D01*
X199266890Y-105294600D01*
X199268072Y-105020000D01*
X199255812Y-104895518D01*
X199219502Y-104775820D01*
X199160537Y-104665506D01*
X199081185Y-104568815D01*
X198984494Y-104489463D01*
X198874180Y-104430498D01*
X198754482Y-104394188D01*
X198630000Y-104381928D01*
X198165750Y-104385000D01*
X198007000Y-104543750D01*
X197753000Y-104543750D01*
X197594250Y-104385000D01*
X197130000Y-104381928D01*
X197005518Y-104394188D01*
X196885820Y-104430498D01*
X196775506Y-104489463D01*
X196730000Y-104526809D01*
X196684494Y-104489463D01*
X196574180Y-104430498D01*
X196454482Y-104394188D01*
X196340000Y-104382913D01*
X196340000Y-101358072D01*
X197480000Y-101358072D01*
X197604482Y-101345812D01*
X197724180Y-101309502D01*
X197834494Y-101250537D01*
X197931185Y-101171185D01*
X198010537Y-101074494D01*
X198069502Y-100964180D01*
X198105812Y-100844482D01*
X198118072Y-100720000D01*
X198118072Y-98720000D01*
X198105812Y-98595518D01*
X198069502Y-98475820D01*
X198010537Y-98365506D01*
X197964664Y-98309609D01*
X198350918Y-98086605D01*
X198492429Y-97985200D01*
X198611437Y-97858136D01*
X198703370Y-97710296D01*
X198764694Y-97547362D01*
X198766075Y-97538995D01*
X198862665Y-97575349D01*
X198986078Y-97595724D01*
X199111095Y-97591632D01*
X199232912Y-97563229D01*
X199346846Y-97511605D01*
X199606633Y-97358070D01*
X199664740Y-97141213D01*
X199127615Y-96210885D01*
X199110294Y-96220885D01*
X198983294Y-96000915D01*
X199000615Y-95990915D01*
X198463490Y-95060587D01*
X198246633Y-95002480D01*
X197983774Y-95150695D01*
X197882100Y-95223553D01*
X197796593Y-95314848D01*
X197730541Y-95421070D01*
X197686480Y-95538136D01*
X197669669Y-95639963D01*
X197661732Y-95636976D01*
X197489965Y-95608617D01*
X197338910Y-95613563D01*
X197336648Y-95603860D01*
X197285025Y-95489926D01*
X194835025Y-91246402D01*
X194762166Y-91144728D01*
X194670872Y-91059221D01*
X194564650Y-90993169D01*
X194447583Y-90949108D01*
X194324170Y-90928732D01*
X194199153Y-90932825D01*
X194077336Y-90961228D01*
X193963402Y-91012851D01*
X191365326Y-92512851D01*
X191318400Y-92546478D01*
X191318400Y-91242226D01*
X193401474Y-90039563D01*
X193503148Y-89966704D01*
X193588655Y-89875410D01*
X193654707Y-89769188D01*
X193698768Y-89652121D01*
X193719144Y-89528708D01*
X193715051Y-89403691D01*
X193686648Y-89281874D01*
X193635025Y-89167940D01*
X192321775Y-86893324D01*
X192754317Y-86460783D01*
X192751676Y-86476778D01*
%TA.AperFunction,Conductor*%
D24*
G36*
X192751676Y-86476778D02*
G01*
X192755768Y-86601795D01*
X192784171Y-86723612D01*
X192835795Y-86837546D01*
X192989330Y-87097333D01*
X193206187Y-87155440D01*
X194136515Y-86618315D01*
X194126515Y-86600994D01*
X194346485Y-86473994D01*
X194356485Y-86491315D01*
X194373806Y-86481315D01*
X194500806Y-86701285D01*
X194483485Y-86711285D01*
X194493485Y-86728606D01*
X194273515Y-86855606D01*
X194263515Y-86838285D01*
X193333187Y-87375410D01*
X193275080Y-87592267D01*
X193423295Y-87855126D01*
X193496153Y-87956800D01*
X193587448Y-88042307D01*
X193693670Y-88108359D01*
X193810736Y-88152420D01*
X193934149Y-88172795D01*
X194059166Y-88168704D01*
X194180983Y-88140300D01*
X194294918Y-88088676D01*
X194524275Y-87954109D01*
X194523150Y-87957817D01*
X194522431Y-87965117D01*
X194520460Y-87972170D01*
X194516069Y-88029712D01*
X194510407Y-88087200D01*
X194511126Y-88094495D01*
X194510568Y-88101801D01*
X194517488Y-88159097D01*
X194523150Y-88216583D01*
X194525279Y-88223601D01*
X194526157Y-88230871D01*
X194544120Y-88285712D01*
X194560890Y-88340993D01*
X194564346Y-88347458D01*
X194566626Y-88354420D01*
X194594945Y-88404707D01*
X194622175Y-88455650D01*
X194647464Y-88486464D01*
X198932687Y-94603777D01*
X198741567Y-94716730D01*
X198683460Y-94933587D01*
X199220585Y-95863915D01*
X199237906Y-95853915D01*
X199364906Y-96073885D01*
X199347585Y-96083885D01*
X199884710Y-97014213D01*
X200101567Y-97072320D01*
X200364426Y-96924105D01*
X200466100Y-96851247D01*
X200489531Y-96826229D01*
X200915840Y-97434800D01*
X200178259Y-97434800D01*
X200139662Y-97431722D01*
X200081218Y-97438578D01*
X200022617Y-97444350D01*
X200016687Y-97446149D01*
X200010540Y-97446870D01*
X199954551Y-97464998D01*
X199898207Y-97482090D01*
X199892746Y-97485009D01*
X199886853Y-97486917D01*
X199835491Y-97515612D01*
X199783550Y-97543375D01*
X199778757Y-97547309D01*
X199773356Y-97550326D01*
X199728593Y-97588478D01*
X199683052Y-97625852D01*
X199679121Y-97630642D01*
X199674409Y-97634658D01*
X199637948Y-97680812D01*
X199600575Y-97726350D01*
X199597652Y-97731819D01*
X199593817Y-97736673D01*
X199567062Y-97789049D01*
X199539290Y-97841007D01*
X199537491Y-97846937D01*
X199534675Y-97852450D01*
X199518654Y-97909032D01*
X199501550Y-97965417D01*
X199500942Y-97971590D01*
X199499257Y-97977541D01*
X199494582Y-98036170D01*
X199488807Y-98094800D01*
X199489414Y-98100965D01*
X199488922Y-98107138D01*
X199495778Y-98165581D01*
X199501550Y-98224183D01*
X199503349Y-98230113D01*
X199504070Y-98236260D01*
X199522198Y-98292249D01*
X199539290Y-98348593D01*
X199542209Y-98354054D01*
X199544117Y-98359947D01*
X199572814Y-98411313D01*
X199600575Y-98463250D01*
X199625149Y-98493193D01*
X205848708Y-107442400D01*
X205156659Y-107442400D01*
X205118062Y-107439322D01*
X205059618Y-107446178D01*
X205001017Y-107451950D01*
X204995087Y-107453749D01*
X204988940Y-107454470D01*
X204932951Y-107472598D01*
X204876607Y-107489690D01*
X204871146Y-107492609D01*
X204865253Y-107494517D01*
X204813891Y-107523212D01*
X204761950Y-107550975D01*
X204757157Y-107554909D01*
X204751756Y-107557926D01*
X204706993Y-107596077D01*
X204661452Y-107633452D01*
X204657521Y-107638242D01*
X204652809Y-107642258D01*
X204616348Y-107688412D01*
X204578975Y-107733950D01*
X204576052Y-107739419D01*
X204572217Y-107744273D01*
X204545462Y-107796649D01*
X204517690Y-107848607D01*
X204515891Y-107854537D01*
X204513075Y-107860050D01*
X204497054Y-107916632D01*
X204479950Y-107973017D01*
X204479342Y-107979190D01*
X204477657Y-107985141D01*
X204472982Y-108043770D01*
X204467207Y-108102400D01*
X204467814Y-108108565D01*
X204467322Y-108114738D01*
X204474178Y-108173181D01*
X204479950Y-108231783D01*
X204481749Y-108237713D01*
X204482470Y-108243860D01*
X204500598Y-108299849D01*
X204517690Y-108356193D01*
X204520609Y-108361654D01*
X204522517Y-108367547D01*
X204551214Y-108418913D01*
X204578975Y-108470850D01*
X204603549Y-108500793D01*
X206294236Y-110931928D01*
X205075000Y-110931928D01*
X204950518Y-110944188D01*
X204830820Y-110980498D01*
X204720506Y-111039463D01*
X204623815Y-111118815D01*
X204544463Y-111215506D01*
X204485498Y-111325820D01*
X204450000Y-111442841D01*
X204414502Y-111325820D01*
X204355537Y-111215506D01*
X204276185Y-111118815D01*
X204179494Y-111039463D01*
X204069180Y-110980498D01*
X203949482Y-110944188D01*
X203825000Y-110931928D01*
X203502800Y-110931928D01*
X203502800Y-107270894D01*
X203573686Y-107233005D01*
X203708262Y-107122562D01*
X203818705Y-106987986D01*
X203900772Y-106834450D01*
X203951308Y-106667854D01*
X203968372Y-106494600D01*
X203968372Y-105544600D01*
X203951308Y-105371346D01*
X203900772Y-105204750D01*
X203818705Y-105051214D01*
X203708262Y-104916638D01*
X203573686Y-104806195D01*
X203420150Y-104724128D01*
X203253554Y-104673592D01*
X203080300Y-104656528D01*
X202405300Y-104656528D01*
X202232046Y-104673592D01*
X202065450Y-104724128D01*
X201911914Y-104806195D01*
X201777338Y-104916638D01*
X201771958Y-104923194D01*
X201706485Y-104843415D01*
X201609794Y-104764063D01*
X201499480Y-104705098D01*
X201379782Y-104668788D01*
X201255300Y-104656528D01*
X200953550Y-104659600D01*
X200794800Y-104818350D01*
X200794800Y-105892600D01*
X200814800Y-105892600D01*
X200814800Y-106146600D01*
X200794800Y-106146600D01*
X200794800Y-107220850D01*
X200953550Y-107379600D01*
X201255300Y-107382672D01*
X201379782Y-107370412D01*
X201499480Y-107334102D01*
X201609794Y-107275137D01*
X201706485Y-107195785D01*
X201771958Y-107116006D01*
X201777338Y-107122562D01*
X201911914Y-107233005D01*
X201982800Y-107270895D01*
X201982801Y-111334711D01*
X201950000Y-111442841D01*
X201914502Y-111325820D01*
X201855537Y-111215506D01*
X201776185Y-111118815D01*
X201679494Y-111039463D01*
X201569180Y-110980498D01*
X201449482Y-110944188D01*
X201325000Y-110931928D01*
X200075000Y-110931928D01*
X199950518Y-110944188D01*
X199830820Y-110980498D01*
X199720506Y-111039463D01*
X199623815Y-111118815D01*
X199544463Y-111215506D01*
X199485498Y-111325820D01*
X199449188Y-111445518D01*
X199436928Y-111570000D01*
X199436928Y-113635001D01*
X193992590Y-113635001D01*
X193992590Y-111878872D01*
X194507601Y-111878872D01*
X194680855Y-111861808D01*
X194847451Y-111811272D01*
X195000987Y-111729205D01*
X195135562Y-111618762D01*
X195246005Y-111484187D01*
X195328072Y-111330651D01*
X195337127Y-111300800D01*
X198590678Y-111300800D01*
X198628000Y-111304476D01*
X198665322Y-111300800D01*
X198665333Y-111300800D01*
X198776986Y-111289803D01*
X198920247Y-111246346D01*
X199052276Y-111175774D01*
X199168001Y-111080801D01*
X199191804Y-111051797D01*
X199937802Y-110305800D01*
X199999939Y-110305800D01*
X200199898Y-110266026D01*
X200388256Y-110188005D01*
X200557774Y-110074737D01*
X200701937Y-109930574D01*
X200815205Y-109761056D01*
X200893226Y-109572698D01*
X200933000Y-109372739D01*
X200933000Y-109168861D01*
X200893226Y-108968902D01*
X200815205Y-108780544D01*
X200701937Y-108611026D01*
X200557774Y-108466863D01*
X200388256Y-108353595D01*
X200199898Y-108275574D01*
X199999939Y-108235800D01*
X199796061Y-108235800D01*
X199596102Y-108275574D01*
X199407744Y-108353595D01*
X199238226Y-108466863D01*
X199094063Y-108611026D01*
X198980795Y-108780544D01*
X198902774Y-108968902D01*
X198863000Y-109168861D01*
X198863000Y-109230998D01*
X198313199Y-109780800D01*
X197478234Y-109780800D01*
X197533085Y-109735785D01*
X197612437Y-109639094D01*
X197671402Y-109528780D01*
X197707712Y-109409082D01*
X197719972Y-109284600D01*
X197716900Y-108845350D01*
X197558150Y-108686600D01*
X196621400Y-108686600D01*
X196621400Y-108706600D01*
X196367400Y-108706600D01*
X196367400Y-108686600D01*
X196347400Y-108686600D01*
X196347400Y-108432600D01*
X196367400Y-108432600D01*
X196367400Y-108412600D01*
X196621400Y-108412600D01*
X196621400Y-108432600D01*
X197558150Y-108432600D01*
X197716900Y-108273850D01*
X197719972Y-107834600D01*
X197707712Y-107710118D01*
X197671402Y-107590420D01*
X197667023Y-107582227D01*
X197753000Y-107496250D01*
X197753000Y-106147000D01*
X198007000Y-106147000D01*
X198007000Y-107496250D01*
X198165750Y-107655000D01*
X198630000Y-107658072D01*
X198754482Y-107645812D01*
X198874180Y-107609502D01*
X198984494Y-107550537D01*
X199081185Y-107471185D01*
X199160537Y-107374494D01*
X199219502Y-107264180D01*
X199255812Y-107144482D01*
X199268072Y-107020000D01*
X199266888Y-106744600D01*
X199442228Y-106744600D01*
X199454488Y-106869082D01*
X199490798Y-106988780D01*
X199549763Y-107099094D01*
X199629115Y-107195785D01*
X199725806Y-107275137D01*
X199836120Y-107334102D01*
X199955818Y-107370412D01*
X200080300Y-107382672D01*
X200382050Y-107379600D01*
X200540800Y-107220850D01*
X200540800Y-106146600D01*
X199604050Y-106146600D01*
X199445300Y-106305350D01*
X199442228Y-106744600D01*
X199266888Y-106744600D01*
X199265000Y-106305750D01*
X199106250Y-106147000D01*
X198007000Y-106147000D01*
X197753000Y-106147000D01*
X197733000Y-106147000D01*
X197733000Y-105893000D01*
X197753000Y-105893000D01*
X197753000Y-104543750D01*
X198007000Y-104543750D01*
X198007000Y-105893000D01*
X199106250Y-105893000D01*
X199265000Y-105734250D01*
X199266890Y-105294600D01*
X199442228Y-105294600D01*
X199445300Y-105733850D01*
X199604050Y-105892600D01*
X200540800Y-105892600D01*
X200540800Y-104818350D01*
X200382050Y-104659600D01*
X200080300Y-104656528D01*
X199955818Y-104668788D01*
X199836120Y-104705098D01*
X199725806Y-104764063D01*
X199629115Y-104843415D01*
X199549763Y-104940106D01*
X199490798Y-105050420D01*
X199454488Y-105170118D01*
X199442228Y-105294600D01*
X199266890Y-105294600D01*
X199268072Y-105020000D01*
X199255812Y-104895518D01*
X199219502Y-104775820D01*
X199160537Y-104665506D01*
X199081185Y-104568815D01*
X198984494Y-104489463D01*
X198874180Y-104430498D01*
X198754482Y-104394188D01*
X198630000Y-104381928D01*
X198165750Y-104385000D01*
X198007000Y-104543750D01*
X197753000Y-104543750D01*
X197594250Y-104385000D01*
X197130000Y-104381928D01*
X197005518Y-104394188D01*
X196885820Y-104430498D01*
X196775506Y-104489463D01*
X196730000Y-104526809D01*
X196684494Y-104489463D01*
X196574180Y-104430498D01*
X196454482Y-104394188D01*
X196340000Y-104382913D01*
X196340000Y-101358072D01*
X197480000Y-101358072D01*
X197604482Y-101345812D01*
X197724180Y-101309502D01*
X197834494Y-101250537D01*
X197931185Y-101171185D01*
X198010537Y-101074494D01*
X198069502Y-100964180D01*
X198105812Y-100844482D01*
X198118072Y-100720000D01*
X198118072Y-98720000D01*
X198105812Y-98595518D01*
X198069502Y-98475820D01*
X198010537Y-98365506D01*
X197964664Y-98309609D01*
X198350918Y-98086605D01*
X198492429Y-97985200D01*
X198611437Y-97858136D01*
X198703370Y-97710296D01*
X198764694Y-97547362D01*
X198766075Y-97538995D01*
X198862665Y-97575349D01*
X198986078Y-97595724D01*
X199111095Y-97591632D01*
X199232912Y-97563229D01*
X199346846Y-97511605D01*
X199606633Y-97358070D01*
X199664740Y-97141213D01*
X199127615Y-96210885D01*
X199110294Y-96220885D01*
X198983294Y-96000915D01*
X199000615Y-95990915D01*
X198463490Y-95060587D01*
X198246633Y-95002480D01*
X197983774Y-95150695D01*
X197882100Y-95223553D01*
X197796593Y-95314848D01*
X197730541Y-95421070D01*
X197686480Y-95538136D01*
X197669669Y-95639963D01*
X197661732Y-95636976D01*
X197489965Y-95608617D01*
X197338910Y-95613563D01*
X197336648Y-95603860D01*
X197285025Y-95489926D01*
X194835025Y-91246402D01*
X194762166Y-91144728D01*
X194670872Y-91059221D01*
X194564650Y-90993169D01*
X194447583Y-90949108D01*
X194324170Y-90928732D01*
X194199153Y-90932825D01*
X194077336Y-90961228D01*
X193963402Y-91012851D01*
X191365326Y-92512851D01*
X191318400Y-92546478D01*
X191318400Y-91242226D01*
X193401474Y-90039563D01*
X193503148Y-89966704D01*
X193588655Y-89875410D01*
X193654707Y-89769188D01*
X193698768Y-89652121D01*
X193719144Y-89528708D01*
X193715051Y-89403691D01*
X193686648Y-89281874D01*
X193635025Y-89167940D01*
X192321775Y-86893324D01*
X192754317Y-86460783D01*
X192751676Y-86476778D01*
G37*
%TD.AperFunction*%
D23*
X181283815Y-107101185D02*
X181380506Y-107180537D01*
X181403667Y-107192917D01*
X181495750Y-107285000D01*
X181609380Y-107275467D01*
X181610518Y-107275812D01*
X181735000Y-107288072D01*
X182285000Y-107288072D01*
X182320686Y-107284557D01*
X182295728Y-107331250D01*
X182245192Y-107497846D01*
X182228128Y-107671100D01*
X182228128Y-108346100D01*
X182229339Y-108358400D01*
X180310440Y-108358400D01*
X180315546Y-108348847D01*
X180359003Y-108205586D01*
X180370000Y-108093933D01*
X180370000Y-108093924D01*
X180373676Y-108056601D01*
X180370000Y-108019278D01*
X180370000Y-107288072D01*
X180685000Y-107288072D01*
X180809482Y-107275812D01*
X180810620Y-107275467D01*
X180924250Y-107285000D01*
X181016333Y-107192917D01*
X181039494Y-107180537D01*
X181136185Y-107101185D01*
X181210000Y-107011241D01*
X181283815Y-107101185D01*
%TA.AperFunction,Conductor*%
D24*
G36*
X181283815Y-107101185D02*
G01*
X181380506Y-107180537D01*
X181403667Y-107192917D01*
X181495750Y-107285000D01*
X181609380Y-107275467D01*
X181610518Y-107275812D01*
X181735000Y-107288072D01*
X182285000Y-107288072D01*
X182320686Y-107284557D01*
X182295728Y-107331250D01*
X182245192Y-107497846D01*
X182228128Y-107671100D01*
X182228128Y-108346100D01*
X182229339Y-108358400D01*
X180310440Y-108358400D01*
X180315546Y-108348847D01*
X180359003Y-108205586D01*
X180370000Y-108093933D01*
X180370000Y-108093924D01*
X180373676Y-108056601D01*
X180370000Y-108019278D01*
X180370000Y-107288072D01*
X180685000Y-107288072D01*
X180809482Y-107275812D01*
X180810620Y-107275467D01*
X180924250Y-107285000D01*
X181016333Y-107192917D01*
X181039494Y-107180537D01*
X181136185Y-107101185D01*
X181210000Y-107011241D01*
X181283815Y-107101185D01*
G37*
%TD.AperFunction*%
D23*
X180441338Y-95133762D02*
X180575914Y-95244205D01*
X180646800Y-95282095D01*
X180646801Y-95963949D01*
X180603667Y-96007083D01*
X180580506Y-96019463D01*
X180483815Y-96098815D01*
X180410000Y-96188759D01*
X180370000Y-96140019D01*
X180370000Y-96030522D01*
X180373676Y-95993199D01*
X180370000Y-95955876D01*
X180370000Y-95955867D01*
X180359003Y-95844214D01*
X180315546Y-95700953D01*
X180244974Y-95568924D01*
X180150001Y-95453199D01*
X180120997Y-95429396D01*
X180066363Y-95374762D01*
X180163480Y-95345302D01*
X180273794Y-95286337D01*
X180370485Y-95206985D01*
X180435958Y-95127206D01*
X180441338Y-95133762D01*
%TA.AperFunction,Conductor*%
D24*
G36*
X180441338Y-95133762D02*
G01*
X180575914Y-95244205D01*
X180646800Y-95282095D01*
X180646801Y-95963949D01*
X180603667Y-96007083D01*
X180580506Y-96019463D01*
X180483815Y-96098815D01*
X180410000Y-96188759D01*
X180370000Y-96140019D01*
X180370000Y-96030522D01*
X180373676Y-95993199D01*
X180370000Y-95955876D01*
X180370000Y-95955867D01*
X180359003Y-95844214D01*
X180315546Y-95700953D01*
X180244974Y-95568924D01*
X180150001Y-95453199D01*
X180120997Y-95429396D01*
X180066363Y-95374762D01*
X180163480Y-95345302D01*
X180273794Y-95286337D01*
X180370485Y-95206985D01*
X180435958Y-95127206D01*
X180441338Y-95133762D01*
G37*
%TD.AperFunction*%
D23*
X185996427Y-67423185D02*
X185954017Y-67436050D01*
X185905632Y-67448347D01*
X185891935Y-67454883D01*
X185877407Y-67459290D01*
X185833354Y-67482837D01*
X185788297Y-67504337D01*
X185776141Y-67513417D01*
X185762750Y-67520575D01*
X185724133Y-67552268D01*
X185684140Y-67582142D01*
X185673989Y-67593420D01*
X185662252Y-67603052D01*
X185630561Y-67641668D01*
X185597164Y-67678771D01*
X185589409Y-67691811D01*
X185579775Y-67703550D01*
X185556226Y-67747607D01*
X185530710Y-67790512D01*
X185525647Y-67804817D01*
X185518490Y-67818207D01*
X185503987Y-67866016D01*
X185487333Y-67913071D01*
X185485159Y-67928084D01*
X185480750Y-67942617D01*
X185475854Y-67992332D01*
X185468698Y-68041738D01*
X185469495Y-68056894D01*
X185468007Y-68072000D01*
X185472902Y-68121705D01*
X185475524Y-68171565D01*
X185479262Y-68186272D01*
X185480750Y-68201383D01*
X185495250Y-68249183D01*
X185507547Y-68297568D01*
X185514083Y-68311265D01*
X185518490Y-68325793D01*
X185542038Y-68369848D01*
X185549508Y-68385503D01*
X185557302Y-68398406D01*
X185579775Y-68440450D01*
X185590854Y-68453950D01*
X191006652Y-77419600D01*
X190168404Y-77419600D01*
X190127547Y-77416622D01*
X190071401Y-77423597D01*
X190015017Y-77429150D01*
X190006916Y-77431607D01*
X189998531Y-77432649D01*
X189944812Y-77450447D01*
X189890607Y-77466890D01*
X189883148Y-77470877D01*
X189875119Y-77473537D01*
X189825891Y-77501481D01*
X189775950Y-77528175D01*
X189769409Y-77533543D01*
X189762056Y-77537717D01*
X189719227Y-77574726D01*
X189675452Y-77610652D01*
X189670086Y-77617191D01*
X189663686Y-77622721D01*
X189628910Y-77667363D01*
X189592975Y-77711150D01*
X189588984Y-77718617D01*
X189583791Y-77725283D01*
X189558400Y-77775837D01*
X189531690Y-77825807D01*
X189529233Y-77833906D01*
X189525439Y-77841460D01*
X189510396Y-77896003D01*
X189493950Y-77950217D01*
X189493120Y-77958641D01*
X189490873Y-77966789D01*
X189486760Y-78023222D01*
X189481207Y-78079600D01*
X189482037Y-78088022D01*
X189481422Y-78096453D01*
X189488397Y-78152598D01*
X189493950Y-78208983D01*
X189496407Y-78217084D01*
X189497449Y-78225469D01*
X189515247Y-78279188D01*
X189531690Y-78333393D01*
X189535677Y-78340852D01*
X189538337Y-78348881D01*
X189566277Y-78398100D01*
X189592975Y-78448050D01*
X189618977Y-78479734D01*
X193176213Y-83521284D01*
X193071076Y-83568921D01*
X192248352Y-84043921D01*
X192106842Y-84145326D01*
X191987833Y-84272390D01*
X191895901Y-84420229D01*
X191834576Y-84583164D01*
X191806217Y-84754931D01*
X191811914Y-84928930D01*
X191851446Y-85098475D01*
X191887484Y-85178013D01*
X191534966Y-85530531D01*
X191185025Y-84924416D01*
X191112166Y-84822742D01*
X191020872Y-84737235D01*
X190914650Y-84671183D01*
X190797583Y-84627122D01*
X190674170Y-84606746D01*
X190549153Y-84610839D01*
X190427336Y-84639242D01*
X190313402Y-84690865D01*
X187715326Y-86190865D01*
X187613652Y-86263724D01*
X187528145Y-86355018D01*
X187462093Y-86461240D01*
X187418032Y-86578307D01*
X187397656Y-86701720D01*
X187401749Y-86826737D01*
X187430152Y-86948554D01*
X187481775Y-87062488D01*
X189798400Y-91075000D01*
X189798400Y-92641598D01*
X188192555Y-94247444D01*
X188145221Y-94200110D01*
X187975703Y-94086842D01*
X187787345Y-94008821D01*
X187602400Y-93972033D01*
X187602400Y-93178327D01*
X187632251Y-93169272D01*
X187785787Y-93087205D01*
X187920362Y-92976762D01*
X188030805Y-92842187D01*
X188112872Y-92688651D01*
X188163408Y-92522055D01*
X188180472Y-92348801D01*
X188180472Y-91648799D01*
X188163408Y-91475545D01*
X188112872Y-91308949D01*
X188030805Y-91155413D01*
X187920362Y-91020838D01*
X187893509Y-90998800D01*
X187920362Y-90976762D01*
X188030805Y-90842187D01*
X188112872Y-90688651D01*
X188163408Y-90522055D01*
X188180472Y-90348801D01*
X188180472Y-89648799D01*
X188163408Y-89475545D01*
X188112872Y-89308949D01*
X188030805Y-89155413D01*
X187920362Y-89020838D01*
X187785787Y-88910395D01*
X187632251Y-88828328D01*
X187465655Y-88777792D01*
X187292401Y-88760728D01*
X186392399Y-88760728D01*
X186219145Y-88777792D01*
X186052549Y-88828328D01*
X185899013Y-88910395D01*
X185764438Y-89020838D01*
X185653995Y-89155413D01*
X185609424Y-89238800D01*
X184460125Y-89238800D01*
X184422800Y-89235124D01*
X184385475Y-89238800D01*
X184385467Y-89238800D01*
X184273814Y-89249797D01*
X184130553Y-89293254D01*
X183998524Y-89363826D01*
X183882799Y-89458799D01*
X183859001Y-89487797D01*
X182789399Y-90557400D01*
X182727261Y-90557400D01*
X182527302Y-90597174D01*
X182338944Y-90675195D01*
X182169426Y-90788463D01*
X182025263Y-90932626D01*
X181911995Y-91102144D01*
X181833974Y-91290502D01*
X181794200Y-91490461D01*
X181794200Y-91694339D01*
X181833974Y-91894298D01*
X181911995Y-92082656D01*
X182025263Y-92252174D01*
X182169426Y-92396337D01*
X182338944Y-92509605D01*
X182527302Y-92587626D01*
X182727261Y-92627400D01*
X182931139Y-92627400D01*
X183131098Y-92587626D01*
X183319456Y-92509605D01*
X183488974Y-92396337D01*
X183633137Y-92252174D01*
X183746405Y-92082656D01*
X183824426Y-91894298D01*
X183864200Y-91694339D01*
X183864200Y-91632201D01*
X184737602Y-90758800D01*
X185609424Y-90758800D01*
X185653995Y-90842187D01*
X185764438Y-90976762D01*
X185791291Y-90998800D01*
X185764438Y-91020838D01*
X185653995Y-91155413D01*
X185571928Y-91308949D01*
X185521392Y-91475545D01*
X185504328Y-91648799D01*
X185504328Y-92348801D01*
X185521392Y-92522055D01*
X185558719Y-92645106D01*
X185285800Y-92642328D01*
X185161318Y-92654588D01*
X185041620Y-92690898D01*
X184931306Y-92749863D01*
X184834615Y-92829215D01*
X184769142Y-92908994D01*
X184763762Y-92902438D01*
X184629186Y-92791995D01*
X184475650Y-92709928D01*
X184309054Y-92659392D01*
X184135800Y-92642328D01*
X183460800Y-92642328D01*
X183287546Y-92659392D01*
X183120950Y-92709928D01*
X182967414Y-92791995D01*
X182832838Y-92902438D01*
X182722395Y-93037014D01*
X182640328Y-93190550D01*
X182623690Y-93245400D01*
X182573705Y-93245400D01*
X182564772Y-93215950D01*
X182482705Y-93062414D01*
X182372262Y-92927838D01*
X182237686Y-92817395D01*
X182084150Y-92735328D01*
X181917554Y-92684792D01*
X181744300Y-92667728D01*
X181069300Y-92667728D01*
X180896046Y-92684792D01*
X180729450Y-92735328D01*
X180575914Y-92817395D01*
X180441338Y-92927838D01*
X180435958Y-92934394D01*
X180370485Y-92854615D01*
X180273794Y-92775263D01*
X180163480Y-92716298D01*
X180043782Y-92679988D01*
X179919300Y-92667728D01*
X179617550Y-92670800D01*
X179458800Y-92829550D01*
X179458800Y-93903800D01*
X179478800Y-93903800D01*
X179478800Y-94157800D01*
X179458800Y-94157800D01*
X179458800Y-94177800D01*
X179204800Y-94177800D01*
X179204800Y-94157800D01*
X179184800Y-94157800D01*
X179184800Y-93903800D01*
X179204800Y-93903800D01*
X179204800Y-92829550D01*
X179046050Y-92670800D01*
X178744300Y-92667728D01*
X178619818Y-92679988D01*
X178500120Y-92716298D01*
X178389806Y-92775263D01*
X178356800Y-92802350D01*
X178356800Y-91653201D01*
X182085869Y-87924133D01*
X182707743Y-87350097D01*
X182707809Y-87350047D01*
X182731059Y-87328575D01*
X182762525Y-87299529D01*
X182762600Y-87299445D01*
X184047913Y-86112395D01*
X184088591Y-86079011D01*
X184126498Y-86032821D01*
X184166214Y-85988168D01*
X184173914Y-85975045D01*
X184183564Y-85963286D01*
X184211730Y-85910592D01*
X184241974Y-85859045D01*
X184246965Y-85844673D01*
X184254136Y-85831257D01*
X184271485Y-85774063D01*
X184291085Y-85717623D01*
X184293176Y-85702558D01*
X184297593Y-85687996D01*
X184303452Y-85628514D01*
X184311664Y-85569338D01*
X184308590Y-85516810D01*
X184308590Y-85259672D01*
X184823601Y-85259672D01*
X184996855Y-85242608D01*
X185163451Y-85192072D01*
X185316987Y-85110005D01*
X185451562Y-84999562D01*
X185562005Y-84864987D01*
X185644072Y-84711451D01*
X185653127Y-84681600D01*
X187256289Y-84681600D01*
X187300226Y-84725537D01*
X187469744Y-84838805D01*
X187658102Y-84916826D01*
X187858061Y-84956600D01*
X188061939Y-84956600D01*
X188261898Y-84916826D01*
X188450256Y-84838805D01*
X188619774Y-84725537D01*
X188763937Y-84581374D01*
X188877205Y-84411856D01*
X188955226Y-84223498D01*
X188995000Y-84023539D01*
X188995000Y-83819661D01*
X188955226Y-83619702D01*
X188877205Y-83431344D01*
X188763937Y-83261826D01*
X188619774Y-83117663D01*
X188450256Y-83004395D01*
X188261898Y-82926374D01*
X188061939Y-82886600D01*
X187858061Y-82886600D01*
X187658102Y-82926374D01*
X187469744Y-83004395D01*
X187300226Y-83117663D01*
X187256289Y-83161600D01*
X185653127Y-83161600D01*
X185644072Y-83131749D01*
X185562005Y-82978213D01*
X185451562Y-82843638D01*
X185316987Y-82733195D01*
X185163451Y-82651128D01*
X184996855Y-82600592D01*
X184823601Y-82583528D01*
X184308590Y-82583528D01*
X184308590Y-81867933D01*
X184312266Y-81830610D01*
X184308590Y-81793287D01*
X184308590Y-81793277D01*
X184297593Y-81681624D01*
X184254136Y-81538363D01*
X184183564Y-81406333D01*
X184112389Y-81319607D01*
X184088591Y-81290609D01*
X184059593Y-81266811D01*
X179576000Y-76783219D01*
X179576000Y-76077527D01*
X179605851Y-76068472D01*
X179759387Y-75986405D01*
X179893962Y-75875962D01*
X180004405Y-75741387D01*
X180086472Y-75587851D01*
X180137008Y-75421255D01*
X180154072Y-75248001D01*
X180154072Y-74547999D01*
X180137008Y-74374745D01*
X180086472Y-74208149D01*
X180004405Y-74054613D01*
X179893962Y-73920038D01*
X179867109Y-73898000D01*
X179893962Y-73875962D01*
X179989458Y-73759600D01*
X181922289Y-73759600D01*
X181966226Y-73803537D01*
X182135744Y-73916805D01*
X182324102Y-73994826D01*
X182524061Y-74034600D01*
X182727939Y-74034600D01*
X182927898Y-73994826D01*
X183116256Y-73916805D01*
X183285774Y-73803537D01*
X183429937Y-73659374D01*
X183543205Y-73489856D01*
X183621226Y-73301498D01*
X183661000Y-73101539D01*
X183661000Y-72897661D01*
X183621226Y-72697702D01*
X183543205Y-72509344D01*
X183429937Y-72339826D01*
X183285774Y-72195663D01*
X183116256Y-72082395D01*
X182927898Y-72004374D01*
X182727939Y-71964600D01*
X182524061Y-71964600D01*
X182324102Y-72004374D01*
X182135744Y-72082395D01*
X181966226Y-72195663D01*
X181922289Y-72239600D01*
X180096012Y-72239600D01*
X180086472Y-72208149D01*
X180004405Y-72054613D01*
X179893962Y-71920038D01*
X179759387Y-71809595D01*
X179605851Y-71727528D01*
X179439255Y-71676992D01*
X179266001Y-71659928D01*
X178365999Y-71659928D01*
X178246948Y-71671653D01*
X182629004Y-67289598D01*
X182658001Y-67265801D01*
X182752974Y-67150076D01*
X182823546Y-67018047D01*
X182867003Y-66874786D01*
X182878000Y-66763133D01*
X182878000Y-66763124D01*
X182881676Y-66725801D01*
X182878000Y-66688478D01*
X182878000Y-66152727D01*
X182907851Y-66143672D01*
X183061387Y-66061605D01*
X183195962Y-65951162D01*
X183306405Y-65816587D01*
X183388472Y-65663051D01*
X183439008Y-65496455D01*
X183456072Y-65323201D01*
X183456072Y-64623199D01*
X183439008Y-64449945D01*
X183388472Y-64283349D01*
X183306405Y-64129813D01*
X183195962Y-63995238D01*
X183169109Y-63973200D01*
X183195962Y-63951162D01*
X183306405Y-63816587D01*
X183388472Y-63663051D01*
X183439008Y-63496455D01*
X183443476Y-63451093D01*
X185996427Y-67423185D01*
%TA.AperFunction,Conductor*%
D24*
G36*
X185996427Y-67423185D02*
G01*
X185954017Y-67436050D01*
X185905632Y-67448347D01*
X185891935Y-67454883D01*
X185877407Y-67459290D01*
X185833354Y-67482837D01*
X185788297Y-67504337D01*
X185776141Y-67513417D01*
X185762750Y-67520575D01*
X185724133Y-67552268D01*
X185684140Y-67582142D01*
X185673989Y-67593420D01*
X185662252Y-67603052D01*
X185630561Y-67641668D01*
X185597164Y-67678771D01*
X185589409Y-67691811D01*
X185579775Y-67703550D01*
X185556226Y-67747607D01*
X185530710Y-67790512D01*
X185525647Y-67804817D01*
X185518490Y-67818207D01*
X185503987Y-67866016D01*
X185487333Y-67913071D01*
X185485159Y-67928084D01*
X185480750Y-67942617D01*
X185475854Y-67992332D01*
X185468698Y-68041738D01*
X185469495Y-68056894D01*
X185468007Y-68072000D01*
X185472902Y-68121705D01*
X185475524Y-68171565D01*
X185479262Y-68186272D01*
X185480750Y-68201383D01*
X185495250Y-68249183D01*
X185507547Y-68297568D01*
X185514083Y-68311265D01*
X185518490Y-68325793D01*
X185542038Y-68369848D01*
X185549508Y-68385503D01*
X185557302Y-68398406D01*
X185579775Y-68440450D01*
X185590854Y-68453950D01*
X191006652Y-77419600D01*
X190168404Y-77419600D01*
X190127547Y-77416622D01*
X190071401Y-77423597D01*
X190015017Y-77429150D01*
X190006916Y-77431607D01*
X189998531Y-77432649D01*
X189944812Y-77450447D01*
X189890607Y-77466890D01*
X189883148Y-77470877D01*
X189875119Y-77473537D01*
X189825891Y-77501481D01*
X189775950Y-77528175D01*
X189769409Y-77533543D01*
X189762056Y-77537717D01*
X189719227Y-77574726D01*
X189675452Y-77610652D01*
X189670086Y-77617191D01*
X189663686Y-77622721D01*
X189628910Y-77667363D01*
X189592975Y-77711150D01*
X189588984Y-77718617D01*
X189583791Y-77725283D01*
X189558400Y-77775837D01*
X189531690Y-77825807D01*
X189529233Y-77833906D01*
X189525439Y-77841460D01*
X189510396Y-77896003D01*
X189493950Y-77950217D01*
X189493120Y-77958641D01*
X189490873Y-77966789D01*
X189486760Y-78023222D01*
X189481207Y-78079600D01*
X189482037Y-78088022D01*
X189481422Y-78096453D01*
X189488397Y-78152598D01*
X189493950Y-78208983D01*
X189496407Y-78217084D01*
X189497449Y-78225469D01*
X189515247Y-78279188D01*
X189531690Y-78333393D01*
X189535677Y-78340852D01*
X189538337Y-78348881D01*
X189566277Y-78398100D01*
X189592975Y-78448050D01*
X189618977Y-78479734D01*
X193176213Y-83521284D01*
X193071076Y-83568921D01*
X192248352Y-84043921D01*
X192106842Y-84145326D01*
X191987833Y-84272390D01*
X191895901Y-84420229D01*
X191834576Y-84583164D01*
X191806217Y-84754931D01*
X191811914Y-84928930D01*
X191851446Y-85098475D01*
X191887484Y-85178013D01*
X191534966Y-85530531D01*
X191185025Y-84924416D01*
X191112166Y-84822742D01*
X191020872Y-84737235D01*
X190914650Y-84671183D01*
X190797583Y-84627122D01*
X190674170Y-84606746D01*
X190549153Y-84610839D01*
X190427336Y-84639242D01*
X190313402Y-84690865D01*
X187715326Y-86190865D01*
X187613652Y-86263724D01*
X187528145Y-86355018D01*
X187462093Y-86461240D01*
X187418032Y-86578307D01*
X187397656Y-86701720D01*
X187401749Y-86826737D01*
X187430152Y-86948554D01*
X187481775Y-87062488D01*
X189798400Y-91075000D01*
X189798400Y-92641598D01*
X188192555Y-94247444D01*
X188145221Y-94200110D01*
X187975703Y-94086842D01*
X187787345Y-94008821D01*
X187602400Y-93972033D01*
X187602400Y-93178327D01*
X187632251Y-93169272D01*
X187785787Y-93087205D01*
X187920362Y-92976762D01*
X188030805Y-92842187D01*
X188112872Y-92688651D01*
X188163408Y-92522055D01*
X188180472Y-92348801D01*
X188180472Y-91648799D01*
X188163408Y-91475545D01*
X188112872Y-91308949D01*
X188030805Y-91155413D01*
X187920362Y-91020838D01*
X187893509Y-90998800D01*
X187920362Y-90976762D01*
X188030805Y-90842187D01*
X188112872Y-90688651D01*
X188163408Y-90522055D01*
X188180472Y-90348801D01*
X188180472Y-89648799D01*
X188163408Y-89475545D01*
X188112872Y-89308949D01*
X188030805Y-89155413D01*
X187920362Y-89020838D01*
X187785787Y-88910395D01*
X187632251Y-88828328D01*
X187465655Y-88777792D01*
X187292401Y-88760728D01*
X186392399Y-88760728D01*
X186219145Y-88777792D01*
X186052549Y-88828328D01*
X185899013Y-88910395D01*
X185764438Y-89020838D01*
X185653995Y-89155413D01*
X185609424Y-89238800D01*
X184460125Y-89238800D01*
X184422800Y-89235124D01*
X184385475Y-89238800D01*
X184385467Y-89238800D01*
X184273814Y-89249797D01*
X184130553Y-89293254D01*
X183998524Y-89363826D01*
X183882799Y-89458799D01*
X183859001Y-89487797D01*
X182789399Y-90557400D01*
X182727261Y-90557400D01*
X182527302Y-90597174D01*
X182338944Y-90675195D01*
X182169426Y-90788463D01*
X182025263Y-90932626D01*
X181911995Y-91102144D01*
X181833974Y-91290502D01*
X181794200Y-91490461D01*
X181794200Y-91694339D01*
X181833974Y-91894298D01*
X181911995Y-92082656D01*
X182025263Y-92252174D01*
X182169426Y-92396337D01*
X182338944Y-92509605D01*
X182527302Y-92587626D01*
X182727261Y-92627400D01*
X182931139Y-92627400D01*
X183131098Y-92587626D01*
X183319456Y-92509605D01*
X183488974Y-92396337D01*
X183633137Y-92252174D01*
X183746405Y-92082656D01*
X183824426Y-91894298D01*
X183864200Y-91694339D01*
X183864200Y-91632201D01*
X184737602Y-90758800D01*
X185609424Y-90758800D01*
X185653995Y-90842187D01*
X185764438Y-90976762D01*
X185791291Y-90998800D01*
X185764438Y-91020838D01*
X185653995Y-91155413D01*
X185571928Y-91308949D01*
X185521392Y-91475545D01*
X185504328Y-91648799D01*
X185504328Y-92348801D01*
X185521392Y-92522055D01*
X185558719Y-92645106D01*
X185285800Y-92642328D01*
X185161318Y-92654588D01*
X185041620Y-92690898D01*
X184931306Y-92749863D01*
X184834615Y-92829215D01*
X184769142Y-92908994D01*
X184763762Y-92902438D01*
X184629186Y-92791995D01*
X184475650Y-92709928D01*
X184309054Y-92659392D01*
X184135800Y-92642328D01*
X183460800Y-92642328D01*
X183287546Y-92659392D01*
X183120950Y-92709928D01*
X182967414Y-92791995D01*
X182832838Y-92902438D01*
X182722395Y-93037014D01*
X182640328Y-93190550D01*
X182623690Y-93245400D01*
X182573705Y-93245400D01*
X182564772Y-93215950D01*
X182482705Y-93062414D01*
X182372262Y-92927838D01*
X182237686Y-92817395D01*
X182084150Y-92735328D01*
X181917554Y-92684792D01*
X181744300Y-92667728D01*
X181069300Y-92667728D01*
X180896046Y-92684792D01*
X180729450Y-92735328D01*
X180575914Y-92817395D01*
X180441338Y-92927838D01*
X180435958Y-92934394D01*
X180370485Y-92854615D01*
X180273794Y-92775263D01*
X180163480Y-92716298D01*
X180043782Y-92679988D01*
X179919300Y-92667728D01*
X179617550Y-92670800D01*
X179458800Y-92829550D01*
X179458800Y-93903800D01*
X179478800Y-93903800D01*
X179478800Y-94157800D01*
X179458800Y-94157800D01*
X179458800Y-94177800D01*
X179204800Y-94177800D01*
X179204800Y-94157800D01*
X179184800Y-94157800D01*
X179184800Y-93903800D01*
X179204800Y-93903800D01*
X179204800Y-92829550D01*
X179046050Y-92670800D01*
X178744300Y-92667728D01*
X178619818Y-92679988D01*
X178500120Y-92716298D01*
X178389806Y-92775263D01*
X178356800Y-92802350D01*
X178356800Y-91653201D01*
X182085869Y-87924133D01*
X182707743Y-87350097D01*
X182707809Y-87350047D01*
X182731059Y-87328575D01*
X182762525Y-87299529D01*
X182762600Y-87299445D01*
X184047913Y-86112395D01*
X184088591Y-86079011D01*
X184126498Y-86032821D01*
X184166214Y-85988168D01*
X184173914Y-85975045D01*
X184183564Y-85963286D01*
X184211730Y-85910592D01*
X184241974Y-85859045D01*
X184246965Y-85844673D01*
X184254136Y-85831257D01*
X184271485Y-85774063D01*
X184291085Y-85717623D01*
X184293176Y-85702558D01*
X184297593Y-85687996D01*
X184303452Y-85628514D01*
X184311664Y-85569338D01*
X184308590Y-85516810D01*
X184308590Y-85259672D01*
X184823601Y-85259672D01*
X184996855Y-85242608D01*
X185163451Y-85192072D01*
X185316987Y-85110005D01*
X185451562Y-84999562D01*
X185562005Y-84864987D01*
X185644072Y-84711451D01*
X185653127Y-84681600D01*
X187256289Y-84681600D01*
X187300226Y-84725537D01*
X187469744Y-84838805D01*
X187658102Y-84916826D01*
X187858061Y-84956600D01*
X188061939Y-84956600D01*
X188261898Y-84916826D01*
X188450256Y-84838805D01*
X188619774Y-84725537D01*
X188763937Y-84581374D01*
X188877205Y-84411856D01*
X188955226Y-84223498D01*
X188995000Y-84023539D01*
X188995000Y-83819661D01*
X188955226Y-83619702D01*
X188877205Y-83431344D01*
X188763937Y-83261826D01*
X188619774Y-83117663D01*
X188450256Y-83004395D01*
X188261898Y-82926374D01*
X188061939Y-82886600D01*
X187858061Y-82886600D01*
X187658102Y-82926374D01*
X187469744Y-83004395D01*
X187300226Y-83117663D01*
X187256289Y-83161600D01*
X185653127Y-83161600D01*
X185644072Y-83131749D01*
X185562005Y-82978213D01*
X185451562Y-82843638D01*
X185316987Y-82733195D01*
X185163451Y-82651128D01*
X184996855Y-82600592D01*
X184823601Y-82583528D01*
X184308590Y-82583528D01*
X184308590Y-81867933D01*
X184312266Y-81830610D01*
X184308590Y-81793287D01*
X184308590Y-81793277D01*
X184297593Y-81681624D01*
X184254136Y-81538363D01*
X184183564Y-81406333D01*
X184112389Y-81319607D01*
X184088591Y-81290609D01*
X184059593Y-81266811D01*
X179576000Y-76783219D01*
X179576000Y-76077527D01*
X179605851Y-76068472D01*
X179759387Y-75986405D01*
X179893962Y-75875962D01*
X180004405Y-75741387D01*
X180086472Y-75587851D01*
X180137008Y-75421255D01*
X180154072Y-75248001D01*
X180154072Y-74547999D01*
X180137008Y-74374745D01*
X180086472Y-74208149D01*
X180004405Y-74054613D01*
X179893962Y-73920038D01*
X179867109Y-73898000D01*
X179893962Y-73875962D01*
X179989458Y-73759600D01*
X181922289Y-73759600D01*
X181966226Y-73803537D01*
X182135744Y-73916805D01*
X182324102Y-73994826D01*
X182524061Y-74034600D01*
X182727939Y-74034600D01*
X182927898Y-73994826D01*
X183116256Y-73916805D01*
X183285774Y-73803537D01*
X183429937Y-73659374D01*
X183543205Y-73489856D01*
X183621226Y-73301498D01*
X183661000Y-73101539D01*
X183661000Y-72897661D01*
X183621226Y-72697702D01*
X183543205Y-72509344D01*
X183429937Y-72339826D01*
X183285774Y-72195663D01*
X183116256Y-72082395D01*
X182927898Y-72004374D01*
X182727939Y-71964600D01*
X182524061Y-71964600D01*
X182324102Y-72004374D01*
X182135744Y-72082395D01*
X181966226Y-72195663D01*
X181922289Y-72239600D01*
X180096012Y-72239600D01*
X180086472Y-72208149D01*
X180004405Y-72054613D01*
X179893962Y-71920038D01*
X179759387Y-71809595D01*
X179605851Y-71727528D01*
X179439255Y-71676992D01*
X179266001Y-71659928D01*
X178365999Y-71659928D01*
X178246948Y-71671653D01*
X182629004Y-67289598D01*
X182658001Y-67265801D01*
X182752974Y-67150076D01*
X182823546Y-67018047D01*
X182867003Y-66874786D01*
X182878000Y-66763133D01*
X182878000Y-66763124D01*
X182881676Y-66725801D01*
X182878000Y-66688478D01*
X182878000Y-66152727D01*
X182907851Y-66143672D01*
X183061387Y-66061605D01*
X183195962Y-65951162D01*
X183306405Y-65816587D01*
X183388472Y-65663051D01*
X183439008Y-65496455D01*
X183456072Y-65323201D01*
X183456072Y-64623199D01*
X183439008Y-64449945D01*
X183388472Y-64283349D01*
X183306405Y-64129813D01*
X183195962Y-63995238D01*
X183169109Y-63973200D01*
X183195962Y-63951162D01*
X183306405Y-63816587D01*
X183388472Y-63663051D01*
X183439008Y-63496455D01*
X183443476Y-63451093D01*
X185996427Y-67423185D01*
G37*
%TD.AperFunction*%
D23*
X186000300Y-93878400D02*
X186020300Y-93878400D01*
X186020300Y-94132400D01*
X186000300Y-94132400D01*
X186000300Y-94152400D01*
X185746300Y-94152400D01*
X185746300Y-94132400D01*
X185726300Y-94132400D01*
X185726300Y-93878400D01*
X185746300Y-93878400D01*
X185746300Y-93858400D01*
X186000300Y-93858400D01*
X186000300Y-93878400D01*
%TA.AperFunction,Conductor*%
D24*
G36*
X186000300Y-93878400D02*
G01*
X186020300Y-93878400D01*
X186020300Y-94132400D01*
X186000300Y-94132400D01*
X186000300Y-94152400D01*
X185746300Y-94152400D01*
X185746300Y-94132400D01*
X185726300Y-94132400D01*
X185726300Y-93878400D01*
X185746300Y-93878400D01*
X185746300Y-93858400D01*
X186000300Y-93858400D01*
X186000300Y-93878400D01*
G37*
%TD.AperFunction*%
D23*
X177477928Y-72547999D02*
X177477928Y-73248001D01*
X177494992Y-73421255D01*
X177545528Y-73587851D01*
X177627595Y-73741387D01*
X177738038Y-73875962D01*
X177764891Y-73898000D01*
X177738038Y-73920038D01*
X177627595Y-74054613D01*
X177545528Y-74208149D01*
X177494992Y-74374745D01*
X177477928Y-74547999D01*
X177477928Y-75248001D01*
X177494992Y-75421255D01*
X177545528Y-75587851D01*
X177627595Y-75741387D01*
X177738038Y-75875962D01*
X177872613Y-75986405D01*
X178026149Y-76068472D01*
X178056000Y-76077527D01*
X178056000Y-77060697D01*
X178052324Y-77098020D01*
X178056000Y-77135342D01*
X178056000Y-77135352D01*
X178066997Y-77247005D01*
X178110454Y-77390266D01*
X178181026Y-77522296D01*
X178193682Y-77537717D01*
X178275999Y-77638021D01*
X178305003Y-77661824D01*
X182788591Y-82145413D01*
X182788591Y-82583528D01*
X182123599Y-82583528D01*
X181950345Y-82600592D01*
X181783749Y-82651128D01*
X181630213Y-82733195D01*
X181495638Y-82843638D01*
X181385195Y-82978213D01*
X181303128Y-83131749D01*
X181252592Y-83298345D01*
X181235528Y-83471599D01*
X181235528Y-84290899D01*
X181158405Y-84146613D01*
X181047962Y-84012038D01*
X180913387Y-83901595D01*
X180759851Y-83819528D01*
X180593255Y-83768992D01*
X180420001Y-83751928D01*
X179719999Y-83751928D01*
X179546745Y-83768992D01*
X179380149Y-83819528D01*
X179226613Y-83901595D01*
X179092038Y-84012038D01*
X179070000Y-84038891D01*
X179047962Y-84012038D01*
X178913387Y-83901595D01*
X178759851Y-83819528D01*
X178593255Y-83768992D01*
X178420001Y-83751928D01*
X177719999Y-83751928D01*
X177546745Y-83768992D01*
X177380149Y-83819528D01*
X177226613Y-83901595D01*
X177092038Y-84012038D01*
X176981595Y-84146613D01*
X176937879Y-84228400D01*
X175201711Y-84228400D01*
X175157774Y-84184463D01*
X174988256Y-84071195D01*
X174799898Y-83993174D01*
X174599939Y-83953400D01*
X174396061Y-83953400D01*
X174196102Y-83993174D01*
X174007744Y-84071195D01*
X173838226Y-84184463D01*
X173694063Y-84328626D01*
X173580795Y-84498144D01*
X173502774Y-84686502D01*
X173463000Y-84886461D01*
X173463000Y-85090339D01*
X173502774Y-85290298D01*
X173580795Y-85478656D01*
X173694063Y-85648174D01*
X173838226Y-85792337D01*
X174007744Y-85905605D01*
X174196102Y-85983626D01*
X174293004Y-86002901D01*
X174257477Y-86006400D01*
X174257467Y-86006400D01*
X174145814Y-86017397D01*
X174002553Y-86060854D01*
X173870523Y-86131426D01*
X173818667Y-86173984D01*
X173754799Y-86226399D01*
X173731001Y-86255397D01*
X172006800Y-87979599D01*
X172006800Y-84592001D01*
X176075804Y-80522998D01*
X176104801Y-80499201D01*
X176199774Y-80383476D01*
X176270346Y-80251447D01*
X176313803Y-80108186D01*
X176324800Y-79996533D01*
X176324800Y-79996524D01*
X176328476Y-79959201D01*
X176324800Y-79921878D01*
X176324800Y-73593801D01*
X177489654Y-72428948D01*
X177477928Y-72547999D01*
%TA.AperFunction,Conductor*%
D24*
G36*
X177477928Y-72547999D02*
G01*
X177477928Y-73248001D01*
X177494992Y-73421255D01*
X177545528Y-73587851D01*
X177627595Y-73741387D01*
X177738038Y-73875962D01*
X177764891Y-73898000D01*
X177738038Y-73920038D01*
X177627595Y-74054613D01*
X177545528Y-74208149D01*
X177494992Y-74374745D01*
X177477928Y-74547999D01*
X177477928Y-75248001D01*
X177494992Y-75421255D01*
X177545528Y-75587851D01*
X177627595Y-75741387D01*
X177738038Y-75875962D01*
X177872613Y-75986405D01*
X178026149Y-76068472D01*
X178056000Y-76077527D01*
X178056000Y-77060697D01*
X178052324Y-77098020D01*
X178056000Y-77135342D01*
X178056000Y-77135352D01*
X178066997Y-77247005D01*
X178110454Y-77390266D01*
X178181026Y-77522296D01*
X178193682Y-77537717D01*
X178275999Y-77638021D01*
X178305003Y-77661824D01*
X182788591Y-82145413D01*
X182788591Y-82583528D01*
X182123599Y-82583528D01*
X181950345Y-82600592D01*
X181783749Y-82651128D01*
X181630213Y-82733195D01*
X181495638Y-82843638D01*
X181385195Y-82978213D01*
X181303128Y-83131749D01*
X181252592Y-83298345D01*
X181235528Y-83471599D01*
X181235528Y-84290899D01*
X181158405Y-84146613D01*
X181047962Y-84012038D01*
X180913387Y-83901595D01*
X180759851Y-83819528D01*
X180593255Y-83768992D01*
X180420001Y-83751928D01*
X179719999Y-83751928D01*
X179546745Y-83768992D01*
X179380149Y-83819528D01*
X179226613Y-83901595D01*
X179092038Y-84012038D01*
X179070000Y-84038891D01*
X179047962Y-84012038D01*
X178913387Y-83901595D01*
X178759851Y-83819528D01*
X178593255Y-83768992D01*
X178420001Y-83751928D01*
X177719999Y-83751928D01*
X177546745Y-83768992D01*
X177380149Y-83819528D01*
X177226613Y-83901595D01*
X177092038Y-84012038D01*
X176981595Y-84146613D01*
X176937879Y-84228400D01*
X175201711Y-84228400D01*
X175157774Y-84184463D01*
X174988256Y-84071195D01*
X174799898Y-83993174D01*
X174599939Y-83953400D01*
X174396061Y-83953400D01*
X174196102Y-83993174D01*
X174007744Y-84071195D01*
X173838226Y-84184463D01*
X173694063Y-84328626D01*
X173580795Y-84498144D01*
X173502774Y-84686502D01*
X173463000Y-84886461D01*
X173463000Y-85090339D01*
X173502774Y-85290298D01*
X173580795Y-85478656D01*
X173694063Y-85648174D01*
X173838226Y-85792337D01*
X174007744Y-85905605D01*
X174196102Y-85983626D01*
X174293004Y-86002901D01*
X174257477Y-86006400D01*
X174257467Y-86006400D01*
X174145814Y-86017397D01*
X174002553Y-86060854D01*
X173870523Y-86131426D01*
X173818667Y-86173984D01*
X173754799Y-86226399D01*
X173731001Y-86255397D01*
X172006800Y-87979599D01*
X172006800Y-84592001D01*
X176075804Y-80522998D01*
X176104801Y-80499201D01*
X176199774Y-80383476D01*
X176270346Y-80251447D01*
X176313803Y-80108186D01*
X176324800Y-79996533D01*
X176324800Y-79996524D01*
X176328476Y-79959201D01*
X176324800Y-79921878D01*
X176324800Y-73593801D01*
X177489654Y-72428948D01*
X177477928Y-72547999D01*
G37*
%TD.AperFunction*%
%TD*%
M02*
