%TF.GenerationSoftware,KiCad,Pcbnew,(5.1.10)-1*%
%TF.CreationDate,2021-11-13T13:30:36-05:00*%
%TF.ProjectId,Electronics Club,456c6563-7472-46f6-9e69-637320436c75,rev?*%
%TF.SameCoordinates,Original*%
%TF.FileFunction,Profile,NP*%
%FSLAX46Y46*%
G04 Gerber Fmt 4.6, Leading zero omitted, Abs format (unit mm)*
G04 Created by KiCad (PCBNEW (5.1.10)-1) date 2021-11-13 13:30:36*
%MOMM*%
%LPD*%
G01*
G04 APERTURE LIST*
%TA.AperFunction,Profile*%
%ADD10C,0.050000*%
%TD*%
G04 APERTURE END LIST*
D10*
X176834800Y-68072000D02*
X181114700Y-61366400D01*
X177850800Y-63144400D02*
X181114700Y-61366400D01*
X182880000Y-61353700D02*
X186080400Y-63144400D01*
X187198000Y-68072000D02*
X182880000Y-61353700D01*
X169926000Y-118110000D02*
X169926000Y-133096000D01*
X151790400Y-118110000D02*
X169926000Y-118110000D01*
X158851600Y-108102400D02*
X151790400Y-118110000D01*
X156819600Y-108102400D02*
X158851600Y-108102400D01*
X163830000Y-98094800D02*
X156819600Y-108102400D01*
X161848800Y-98094800D02*
X163830000Y-98094800D01*
X168859200Y-88087200D02*
X161848800Y-98094800D01*
X166827200Y-88138000D02*
X168859200Y-88087200D01*
X173837600Y-78079600D02*
X166827200Y-88138000D01*
X171856400Y-78079600D02*
X173837600Y-78079600D01*
X177850800Y-68072000D02*
X171856400Y-78079600D01*
X176834800Y-68072000D02*
X177850800Y-68072000D01*
X179628800Y-58775600D02*
X177850800Y-63144400D01*
X176733200Y-56946800D02*
X179628800Y-58775600D01*
X180441600Y-56896000D02*
X176733200Y-56946800D01*
X181965600Y-52781200D02*
X180441600Y-56896000D01*
X183794400Y-56896000D02*
X181965600Y-52781200D01*
X187299600Y-56946800D02*
X183794400Y-56896000D01*
X183845200Y-58775600D02*
X187299600Y-56946800D01*
X186080400Y-63144400D02*
X183845200Y-58775600D01*
X186131200Y-68072000D02*
X187198000Y-68072000D01*
X192176400Y-78079600D02*
X186131200Y-68072000D01*
X190144400Y-78079600D02*
X192176400Y-78079600D01*
X197205600Y-88087200D02*
X190144400Y-78079600D01*
X195173600Y-88087200D02*
X197205600Y-88087200D01*
X202184000Y-98094800D02*
X195173600Y-88087200D01*
X200152000Y-98094800D02*
X202184000Y-98094800D01*
X207111600Y-108102400D02*
X200152000Y-98094800D01*
X205130400Y-108102400D02*
X207111600Y-108102400D01*
X212090000Y-118110000D02*
X205130400Y-108102400D01*
X195072000Y-118110000D02*
X212090000Y-118110000D01*
X195072000Y-133096000D02*
X195072000Y-118110000D01*
X169926000Y-133096000D02*
X195072000Y-133096000D01*
M02*
